<svg width="617" height="134" viewBox="0 0 617 134" fill="none" xmlns="http://www.w3.org/2000/svg">
<circle cx="54.5995" cy="102.306" r="31.5995" fill="white"/>
<circle cx="297.6" cy="102.306" r="31.5995" fill="white"/>
<circle cx="539.878" cy="102.306" r="31.5995" fill="white"/>
<path d="M83.5 100.048H182.98L278.318 100.048" stroke="white" stroke-width="9.02844"/>
<path d="M315.5 100.048H414.98L510.318 100.048" stroke="white" stroke-width="9.02844"/>
<path d="M57.995 92.8074V112.506H53.8302V96.7605H53.7148L49.2038 99.5883V95.8949L54.0803 92.8074H57.995Z" fill="#1D4E89"/>
<path d="M290.65 112.506V109.505L297.662 103.012C298.258 102.435 298.758 101.916 299.162 101.454C299.573 100.993 299.884 100.541 300.095 100.098C300.307 99.6492 300.413 99.1651 300.413 98.6457C300.413 98.0686 300.281 97.5717 300.018 97.1549C299.756 96.7317 299.396 96.4078 298.941 96.1834C298.486 95.9526 297.97 95.8371 297.393 95.8371C296.79 95.8371 296.264 95.959 295.815 96.2026C295.366 96.4463 295.02 96.7958 294.776 97.251C294.533 97.7063 294.411 98.2481 294.411 98.8765H290.458C290.458 97.5877 290.75 96.4688 291.333 95.5197C291.917 94.5707 292.734 93.8365 293.786 93.3171C294.837 92.7977 296.049 92.538 297.421 92.538C298.832 92.538 300.06 92.7881 301.105 93.2883C302.157 93.782 302.974 94.4681 303.558 95.3466C304.141 96.2251 304.433 97.2318 304.433 98.3668C304.433 99.1106 304.286 99.8448 303.991 100.569C303.702 101.294 303.186 102.099 302.442 102.984C301.698 103.862 300.65 104.917 299.297 106.148L296.421 108.966V109.101H304.693V112.506H290.65Z" fill="#1D4E89"/>
<path d="M539.728 112.518C538.291 112.518 537.012 112.271 535.89 111.777C534.774 111.277 533.892 110.591 533.245 109.719C532.604 108.841 532.273 107.827 532.254 106.68H536.448C536.473 107.161 536.63 107.584 536.919 107.949C537.214 108.308 537.605 108.587 538.092 108.786C538.58 108.985 539.128 109.084 539.737 109.084C540.372 109.084 540.933 108.972 541.42 108.748C541.908 108.523 542.289 108.212 542.565 107.815C542.841 107.417 542.979 106.959 542.979 106.439C542.979 105.913 542.831 105.448 542.536 105.044C542.248 104.634 541.831 104.314 541.286 104.083C540.747 103.852 540.106 103.736 539.362 103.736H537.525V100.678H539.362C539.991 100.678 540.545 100.569 541.026 100.351C541.513 100.133 541.892 99.8313 542.161 99.4466C542.43 99.0555 542.565 98.6002 542.565 98.0808C542.565 97.5871 542.446 97.1542 542.209 96.7823C541.978 96.404 541.651 96.109 541.228 95.8974C540.811 95.6858 540.324 95.58 539.766 95.58C539.202 95.58 538.686 95.6826 538.218 95.8878C537.749 96.0866 537.374 96.3719 537.092 96.7438C536.81 97.1158 536.659 97.5518 536.64 98.0519H532.648C532.668 96.917 532.992 95.9167 533.62 95.051C534.248 94.1854 535.095 93.5089 536.159 93.0215C537.23 92.5278 538.439 92.2809 539.785 92.2809C541.145 92.2809 542.334 92.5278 543.354 93.0215C544.373 93.5153 545.165 94.1822 545.729 95.0222C546.3 95.8558 546.582 96.7919 546.576 97.8307C546.582 98.9336 546.239 99.8538 545.547 100.591C544.861 101.329 543.966 101.797 542.863 101.995V102.149C544.312 102.335 545.415 102.839 546.172 103.659C546.935 104.474 547.313 105.493 547.307 106.718C547.313 107.84 546.989 108.837 546.335 109.709C545.688 110.581 544.793 111.268 543.652 111.768C542.511 112.268 541.202 112.518 539.728 112.518Z" fill="#1D4E89"/>
<path d="M4.76136 15V3.36364H12.6023V5.39205H7.22159V8.16477H12.1989V10.1932H7.22159V12.9716H12.625V15H4.76136ZM16.9332 9.95455V15H14.5128V6.27273H16.8196V7.8125H16.9219C17.1151 7.30492 17.4389 6.90341 17.8935 6.60795C18.348 6.30871 18.8991 6.15909 19.5469 6.15909C20.1529 6.15909 20.6813 6.29167 21.1321 6.55682C21.5829 6.82197 21.9332 7.20076 22.1832 7.69318C22.4332 8.18182 22.5582 8.76515 22.5582 9.44318V15H20.1378V9.875C20.1416 9.34091 20.0052 8.92424 19.7287 8.625C19.4522 8.32197 19.0715 8.17045 18.5866 8.17045C18.2609 8.17045 17.973 8.24053 17.723 8.38068C17.4768 8.52083 17.2836 8.72538 17.1435 8.99432C17.0071 9.25947 16.937 9.57955 16.9332 9.95455ZM29.108 6.27273V8.09091H23.8523V6.27273H29.108ZM25.0455 4.18182H27.4659V12.3182C27.4659 12.5417 27.5 12.7159 27.5682 12.8409C27.6364 12.9621 27.7311 13.0473 27.8523 13.0966C27.9773 13.1458 28.1212 13.1705 28.2841 13.1705C28.3977 13.1705 28.5114 13.161 28.625 13.142C28.7386 13.1193 28.8258 13.1023 28.8864 13.0909L29.267 14.892C29.1458 14.9299 28.9754 14.9735 28.7557 15.0227C28.536 15.0758 28.2689 15.108 27.9545 15.1193C27.3712 15.142 26.8598 15.0644 26.4205 14.8864C25.9848 14.7083 25.6458 14.4318 25.4034 14.0568C25.161 13.6818 25.0417 13.2083 25.0455 12.6364V4.18182ZM30.6847 15V6.27273H33.0312V7.79545H33.1222C33.2813 7.25379 33.5483 6.8447 33.9233 6.56818C34.2983 6.28788 34.7301 6.14773 35.2188 6.14773C35.34 6.14773 35.4706 6.1553 35.6108 6.17045C35.7509 6.18561 35.8741 6.20644 35.9801 6.23295V8.38068C35.8665 8.34659 35.7093 8.31629 35.5085 8.28977C35.3078 8.26326 35.1241 8.25 34.9574 8.25C34.6013 8.25 34.2831 8.32765 34.0028 8.48295C33.7263 8.63447 33.5066 8.84659 33.3438 9.11932C33.1847 9.39205 33.1051 9.70644 33.1051 10.0625V15H30.6847ZM39.4702 15.1648C38.9134 15.1648 38.4171 15.0682 37.9815 14.875C37.5459 14.678 37.2012 14.3883 36.9474 14.0057C36.6974 13.6193 36.5724 13.1383 36.5724 12.5625C36.5724 12.0777 36.6615 11.6705 36.8395 11.3409C37.0175 11.0114 37.2599 10.7462 37.5668 10.5455C37.8736 10.3447 38.2221 10.1932 38.6122 10.0909C39.0062 9.98864 39.419 9.91667 39.8509 9.875C40.3584 9.82197 40.7675 9.77273 41.0781 9.72727C41.3887 9.67803 41.6141 9.60606 41.7543 9.51136C41.8944 9.41667 41.9645 9.27652 41.9645 9.09091V9.05682C41.9645 8.69697 41.8509 8.41856 41.6236 8.22159C41.4001 8.02462 41.0819 7.92614 40.669 7.92614C40.2334 7.92614 39.8868 8.02273 39.6293 8.21591C39.3717 8.4053 39.2012 8.64394 39.1179 8.93182L36.8793 8.75C36.9929 8.2197 37.2164 7.76136 37.5497 7.375C37.883 6.98485 38.313 6.68561 38.8395 6.47727C39.3698 6.26515 39.9834 6.15909 40.6804 6.15909C41.1652 6.15909 41.6293 6.21591 42.0724 6.32955C42.5194 6.44318 42.9152 6.61932 43.2599 6.85795C43.6084 7.09659 43.883 7.40341 44.0838 7.77841C44.2846 8.14962 44.3849 8.5947 44.3849 9.11364V15H42.0895V13.7898H42.0213C41.8812 14.0625 41.6937 14.303 41.4588 14.5114C41.224 14.7159 40.9418 14.8769 40.6122 14.9943C40.2827 15.108 39.902 15.1648 39.4702 15.1648ZM40.1634 13.4943C40.5194 13.4943 40.8338 13.4242 41.1065 13.2841C41.3793 13.1402 41.5933 12.947 41.7486 12.7045C41.9039 12.4621 41.9815 12.1875 41.9815 11.8807V10.9545C41.9058 11.0038 41.8016 11.0492 41.669 11.0909C41.5402 11.1288 41.3944 11.1648 41.2315 11.1989C41.0687 11.2292 40.9058 11.2576 40.7429 11.2841C40.58 11.3068 40.4323 11.3277 40.2997 11.3466C40.0156 11.3883 39.7675 11.4545 39.5554 11.5455C39.3433 11.6364 39.1785 11.7595 39.0611 11.9148C38.9437 12.0663 38.8849 12.2557 38.8849 12.483C38.8849 12.8125 39.0043 13.0644 39.2429 13.2386C39.4853 13.4091 39.7921 13.4943 40.1634 13.4943ZM46.2628 15V6.27273H48.6094V7.79545H48.7003C48.8594 7.25379 49.1264 6.8447 49.5014 6.56818C49.8764 6.28788 50.3082 6.14773 50.7969 6.14773C50.9181 6.14773 51.0488 6.1553 51.1889 6.17045C51.3291 6.18561 51.4522 6.20644 51.5582 6.23295V8.38068C51.4446 8.34659 51.2874 8.31629 51.0866 8.28977C50.8859 8.26326 50.7022 8.25 50.5355 8.25C50.1795 8.25 49.8613 8.32765 49.581 8.48295C49.3045 8.63447 49.0848 8.84659 48.9219 9.11932C48.7628 9.39205 48.6832 9.70644 48.6832 10.0625V15H46.2628ZM56.3807 15.1705C55.483 15.1705 54.7102 14.9886 54.0625 14.625C53.4186 14.2576 52.9223 13.7386 52.5739 13.0682C52.2254 12.3939 52.0511 11.5966 52.0511 10.6761C52.0511 9.77841 52.2254 8.99053 52.5739 8.3125C52.9223 7.63447 53.4129 7.10606 54.0455 6.72727C54.6818 6.34848 55.428 6.15909 56.2841 6.15909C56.8598 6.15909 57.3958 6.25189 57.892 6.4375C58.392 6.61932 58.8277 6.89394 59.1989 7.26136C59.5739 7.62879 59.8655 8.09091 60.0739 8.64773C60.2822 9.20076 60.3864 9.84848 60.3864 10.5909V11.2557H53.017V9.75568H58.108C58.108 9.4072 58.0322 9.09848 57.8807 8.82955C57.7292 8.56061 57.5189 8.35038 57.25 8.19886C56.9848 8.04356 56.6761 7.96591 56.3239 7.96591C55.9564 7.96591 55.6307 8.05114 55.3466 8.22159C55.0663 8.38826 54.8466 8.61364 54.6875 8.89773C54.5284 9.17803 54.447 9.49053 54.4432 9.83523V11.2614C54.4432 11.6932 54.5227 12.0663 54.6818 12.3807C54.8447 12.6951 55.0739 12.9375 55.3693 13.108C55.6648 13.2784 56.0152 13.3636 56.4205 13.3636C56.6894 13.3636 56.9356 13.3258 57.1591 13.25C57.3826 13.1742 57.5739 13.0606 57.733 12.9091C57.892 12.7576 58.0133 12.572 58.0966 12.3523L60.3352 12.5C60.2216 13.0379 59.9886 13.5076 59.6364 13.9091C59.2879 14.3068 58.8371 14.6174 58.2841 14.8409C57.7348 15.0606 57.1004 15.1705 56.3807 15.1705ZM61.9659 15V6.27273H64.2727V7.8125H64.375C64.5568 7.30114 64.8598 6.89773 65.2841 6.60227C65.7083 6.30682 66.2159 6.15909 66.8068 6.15909C67.4053 6.15909 67.9148 6.30871 68.3352 6.60795C68.7557 6.90341 69.036 7.30492 69.1761 7.8125H69.267C69.4451 7.3125 69.767 6.91288 70.233 6.61364C70.7027 6.31061 71.2576 6.15909 71.8977 6.15909C72.7121 6.15909 73.3731 6.41856 73.8807 6.9375C74.392 7.45265 74.6477 8.18371 74.6477 9.13068V15H72.233V9.60795C72.233 9.12311 72.1042 8.75947 71.8466 8.51705C71.589 8.27462 71.267 8.15341 70.8807 8.15341C70.4413 8.15341 70.0985 8.29356 69.8523 8.57386C69.6061 8.85038 69.483 9.21591 69.483 9.67045V15H67.1364V9.55682C67.1364 9.12879 67.0133 8.78788 66.767 8.53409C66.5246 8.2803 66.2045 8.15341 65.8068 8.15341C65.5379 8.15341 65.2955 8.22159 65.0795 8.35795C64.8674 8.49053 64.6989 8.67803 64.5739 8.92045C64.4489 9.15909 64.3864 9.43939 64.3864 9.76136V15H61.9659ZM80.5028 15.1705C79.6203 15.1705 78.857 14.983 78.2131 14.608C77.5729 14.2292 77.0786 13.7027 76.7301 13.0284C76.3816 12.3504 76.2074 11.5644 76.2074 10.6705C76.2074 9.76894 76.3816 8.98106 76.7301 8.30682C77.0786 7.62879 77.5729 7.10227 78.2131 6.72727C78.857 6.34848 79.6203 6.15909 80.5028 6.15909C81.3854 6.15909 82.1468 6.34848 82.7869 6.72727C83.4309 7.10227 83.9271 7.62879 84.2756 8.30682C84.6241 8.98106 84.7983 9.76894 84.7983 10.6705C84.7983 11.5644 84.6241 12.3504 84.2756 13.0284C83.9271 13.7027 83.4309 14.2292 82.7869 14.608C82.1468 14.983 81.3854 15.1705 80.5028 15.1705ZM80.5142 13.2955C80.9157 13.2955 81.2509 13.1818 81.5199 12.9545C81.7888 12.7235 81.9915 12.4091 82.1278 12.0114C82.268 11.6136 82.3381 11.161 82.3381 10.6534C82.3381 10.1458 82.268 9.69318 82.1278 9.29545C81.9915 8.89773 81.7888 8.58333 81.5199 8.35227C81.2509 8.12121 80.9157 8.00568 80.5142 8.00568C80.1089 8.00568 79.768 8.12121 79.4915 8.35227C79.2188 8.58333 79.0123 8.89773 78.8722 9.29545C78.7358 9.69318 78.6676 10.1458 78.6676 10.6534C78.6676 11.161 78.7358 11.6136 78.8722 12.0114C79.0123 12.4091 79.2188 12.7235 79.4915 12.9545C79.768 13.1818 80.1089 13.2955 80.5142 13.2955ZM93.6335 8.76136L91.4176 8.89773C91.3797 8.70833 91.2983 8.53788 91.1733 8.38636C91.0483 8.23106 90.8835 8.10795 90.679 8.01705C90.4782 7.92235 90.2377 7.875 89.9574 7.875C89.5824 7.875 89.2661 7.95455 89.0085 8.11364C88.7509 8.26894 88.6222 8.47727 88.6222 8.73864C88.6222 8.94697 88.7055 9.12311 88.8722 9.26705C89.0388 9.41098 89.3248 9.52652 89.7301 9.61364L91.3097 9.93182C92.1581 10.1061 92.7907 10.3864 93.2074 10.7727C93.6241 11.1591 93.8324 11.6667 93.8324 12.2955C93.8324 12.8674 93.6638 13.3693 93.3267 13.8011C92.9934 14.233 92.535 14.5701 91.9517 14.8125C91.3722 15.0511 90.7036 15.1705 89.946 15.1705C88.7907 15.1705 87.8703 14.9299 87.1847 14.4489C86.5028 13.964 86.1032 13.3049 85.9858 12.4716L88.3665 12.3466C88.4384 12.6989 88.6127 12.9678 88.8892 13.1534C89.1657 13.3352 89.5199 13.4261 89.9517 13.4261C90.3759 13.4261 90.7169 13.3447 90.9744 13.1818C91.2358 13.0152 91.3684 12.8011 91.3722 12.5398C91.3684 12.3201 91.2756 12.1402 91.0938 12C90.9119 11.8561 90.6316 11.7462 90.2528 11.6705L88.7415 11.3693C87.8892 11.1989 87.2547 10.9034 86.8381 10.483C86.4252 10.0625 86.2188 9.52652 86.2188 8.875C86.2188 8.31439 86.3703 7.83144 86.6733 7.42614C86.9801 7.02083 87.41 6.70833 87.9631 6.48864C88.5199 6.26894 89.1714 6.15909 89.9176 6.15909C91.0199 6.15909 91.8873 6.39205 92.5199 6.85795C93.1563 7.32386 93.5275 7.95833 93.6335 8.76136ZM103.037 15.1705C102.139 15.1705 101.366 14.9886 100.719 14.625C100.075 14.2576 99.5786 13.7386 99.2301 13.0682C98.8816 12.3939 98.7074 11.5966 98.7074 10.6761C98.7074 9.77841 98.8816 8.99053 99.2301 8.3125C99.5786 7.63447 100.069 7.10606 100.702 6.72727C101.338 6.34848 102.084 6.15909 102.94 6.15909C103.516 6.15909 104.052 6.25189 104.548 6.4375C105.048 6.61932 105.484 6.89394 105.855 7.26136C106.23 7.62879 106.522 8.09091 106.73 8.64773C106.938 9.20076 107.043 9.84848 107.043 10.5909V11.2557H99.6733V9.75568H104.764C104.764 9.4072 104.688 9.09848 104.537 8.82955C104.385 8.56061 104.175 8.35038 103.906 8.19886C103.641 8.04356 103.332 7.96591 102.98 7.96591C102.613 7.96591 102.287 8.05114 102.003 8.22159C101.723 8.38826 101.503 8.61364 101.344 8.89773C101.185 9.17803 101.103 9.49053 101.099 9.83523V11.2614C101.099 11.6932 101.179 12.0663 101.338 12.3807C101.501 12.6951 101.73 12.9375 102.026 13.108C102.321 13.2784 102.671 13.3636 103.077 13.3636C103.346 13.3636 103.592 13.3258 103.815 13.25C104.039 13.1742 104.23 13.0606 104.389 12.9091C104.548 12.7576 104.67 12.572 104.753 12.3523L106.991 12.5C106.878 13.0379 106.645 13.5076 106.293 13.9091C105.944 14.3068 105.493 14.6174 104.94 14.8409C104.391 15.0606 103.757 15.1705 103.037 15.1705ZM108.622 15V6.27273H110.929V7.8125H111.031C111.213 7.30114 111.516 6.89773 111.94 6.60227C112.365 6.30682 112.872 6.15909 113.463 6.15909C114.062 6.15909 114.571 6.30871 114.991 6.60795C115.412 6.90341 115.692 7.30492 115.832 7.8125H115.923C116.101 7.3125 116.423 6.91288 116.889 6.61364C117.359 6.31061 117.914 6.15909 118.554 6.15909C119.368 6.15909 120.029 6.41856 120.537 6.9375C121.048 7.45265 121.304 8.18371 121.304 9.13068V15H118.889V9.60795C118.889 9.12311 118.76 8.75947 118.503 8.51705C118.245 8.27462 117.923 8.15341 117.537 8.15341C117.098 8.15341 116.755 8.29356 116.509 8.57386C116.262 8.85038 116.139 9.21591 116.139 9.67045V15H113.793V9.55682C113.793 9.12879 113.67 8.78788 113.423 8.53409C113.181 8.2803 112.861 8.15341 112.463 8.15341C112.194 8.15341 111.952 8.22159 111.736 8.35795C111.524 8.49053 111.355 8.67803 111.23 8.92045C111.105 9.15909 111.043 9.43939 111.043 9.76136V15H108.622ZM37.6122 34.1705C36.7183 34.1705 35.9493 33.9811 35.3054 33.6023C34.6652 33.2197 34.1728 32.6894 33.8281 32.0114C33.4872 31.3333 33.3168 30.553 33.3168 29.6705C33.3168 28.7765 33.4891 27.9924 33.8338 27.3182C34.1823 26.6402 34.6766 26.1117 35.3168 25.733C35.9569 25.3504 36.7183 25.1591 37.6009 25.1591C38.3622 25.1591 39.0289 25.2973 39.6009 25.5739C40.1728 25.8504 40.6255 26.2386 40.9588 26.7386C41.2921 27.2386 41.4759 27.8258 41.5099 28.5H39.2259C39.1615 28.0644 38.991 27.714 38.7145 27.4489C38.4418 27.1799 38.0838 27.0455 37.6406 27.0455C37.2656 27.0455 36.938 27.1477 36.6577 27.3523C36.3812 27.553 36.1652 27.8466 36.0099 28.233C35.8546 28.6193 35.777 29.0871 35.777 29.6364C35.777 30.1932 35.8527 30.6667 36.0043 31.0568C36.1596 31.447 36.3774 31.7443 36.6577 31.9489C36.938 32.1534 37.2656 32.2557 37.6406 32.2557C37.9171 32.2557 38.1652 32.1989 38.3849 32.0852C38.6084 31.9716 38.7921 31.8068 38.9361 31.5909C39.0838 31.3712 39.1804 31.108 39.2259 30.8011H41.5099C41.4721 31.4678 41.2902 32.0549 40.9645 32.5625C40.6425 33.0663 40.1974 33.4602 39.6293 33.7443C39.0611 34.0284 38.3887 34.1705 37.6122 34.1705ZM47.0028 34.1705C46.1203 34.1705 45.357 33.983 44.7131 33.608C44.0729 33.2292 43.5786 32.7027 43.2301 32.0284C42.8816 31.3504 42.7074 30.5644 42.7074 29.6705C42.7074 28.7689 42.8816 27.9811 43.2301 27.3068C43.5786 26.6288 44.0729 26.1023 44.7131 25.7273C45.357 25.3485 46.1203 25.1591 47.0028 25.1591C47.8854 25.1591 48.6468 25.3485 49.2869 25.7273C49.9309 26.1023 50.4271 26.6288 50.7756 27.3068C51.1241 27.9811 51.2983 28.7689 51.2983 29.6705C51.2983 30.5644 51.1241 31.3504 50.7756 32.0284C50.4271 32.7027 49.9309 33.2292 49.2869 33.608C48.6468 33.983 47.8854 34.1705 47.0028 34.1705ZM47.0142 32.2955C47.4157 32.2955 47.7509 32.1818 48.0199 31.9545C48.2888 31.7235 48.4915 31.4091 48.6278 31.0114C48.768 30.6136 48.8381 30.161 48.8381 29.6534C48.8381 29.1458 48.768 28.6932 48.6278 28.2955C48.4915 27.8977 48.2888 27.5833 48.0199 27.3523C47.7509 27.1212 47.4157 27.0057 47.0142 27.0057C46.6089 27.0057 46.268 27.1212 45.9915 27.3523C45.7188 27.5833 45.5123 27.8977 45.3722 28.2955C45.2358 28.6932 45.1676 29.1458 45.1676 29.6534C45.1676 30.161 45.2358 30.6136 45.3722 31.0114C45.5123 31.4091 45.7188 31.7235 45.9915 31.9545C46.268 32.1818 46.6089 32.2955 47.0142 32.2955ZM55.2926 28.9545V34H52.8722V25.2727H55.179V26.8125H55.2812C55.4744 26.3049 55.7983 25.9034 56.2528 25.608C56.7074 25.3087 57.2585 25.1591 57.9062 25.1591C58.5123 25.1591 59.0407 25.2917 59.4915 25.5568C59.9422 25.822 60.2926 26.2008 60.5426 26.6932C60.7926 27.1818 60.9176 27.7652 60.9176 28.4432V34H58.4972V28.875C58.5009 28.3409 58.3646 27.9242 58.0881 27.625C57.8116 27.322 57.4309 27.1705 56.946 27.1705C56.6203 27.1705 56.3324 27.2405 56.0824 27.3807C55.8362 27.5208 55.643 27.7254 55.5028 27.9943C55.3665 28.2595 55.2964 28.5795 55.2926 28.9545ZM67.4673 25.2727V27.0909H62.2116V25.2727H67.4673ZM63.4048 23.1818H65.8253V31.3182C65.8253 31.5417 65.8594 31.7159 65.9276 31.8409C65.9957 31.9621 66.0904 32.0473 66.2116 32.0966C66.3366 32.1458 66.4806 32.1705 66.6435 32.1705C66.7571 32.1705 66.8707 32.161 66.9844 32.142C67.098 32.1193 67.1851 32.1023 67.2457 32.0909L67.6264 33.892C67.5052 33.9299 67.3348 33.9735 67.1151 34.0227C66.8954 34.0758 66.6283 34.108 66.3139 34.1193C65.7306 34.142 65.2192 34.0644 64.7798 33.8864C64.3442 33.7083 64.0052 33.4318 63.7628 33.0568C63.5204 32.6818 63.401 32.2083 63.4048 31.6364V23.1818ZM71.5327 34.1648C70.9759 34.1648 70.4796 34.0682 70.044 33.875C69.6084 33.678 69.2637 33.3883 69.0099 33.0057C68.7599 32.6193 68.6349 32.1383 68.6349 31.5625C68.6349 31.0777 68.724 30.6705 68.902 30.3409C69.08 30.0114 69.3224 29.7462 69.6293 29.5455C69.9361 29.3447 70.2846 29.1932 70.6747 29.0909C71.0687 28.9886 71.4815 28.9167 71.9134 28.875C72.4209 28.822 72.83 28.7727 73.1406 28.7273C73.4512 28.678 73.6766 28.6061 73.8168 28.5114C73.9569 28.4167 74.027 28.2765 74.027 28.0909V28.0568C74.027 27.697 73.9134 27.4186 73.6861 27.2216C73.4626 27.0246 73.1444 26.9261 72.7315 26.9261C72.2959 26.9261 71.9493 27.0227 71.6918 27.2159C71.4342 27.4053 71.2637 27.6439 71.1804 27.9318L68.9418 27.75C69.0554 27.2197 69.2789 26.7614 69.6122 26.375C69.9455 25.9848 70.3755 25.6856 70.902 25.4773C71.4323 25.2652 72.0459 25.1591 72.7429 25.1591C73.2277 25.1591 73.6918 25.2159 74.1349 25.3295C74.5819 25.4432 74.9777 25.6193 75.3224 25.858C75.6709 26.0966 75.9455 26.4034 76.1463 26.7784C76.3471 27.1496 76.4474 27.5947 76.4474 28.1136V34H74.152V32.7898H74.0838C73.9437 33.0625 73.7562 33.303 73.5213 33.5114C73.2865 33.7159 73.0043 33.8769 72.6747 33.9943C72.3452 34.108 71.9645 34.1648 71.5327 34.1648ZM72.2259 32.4943C72.5819 32.4943 72.8963 32.4242 73.169 32.2841C73.4418 32.1402 73.6558 31.947 73.8111 31.7045C73.9664 31.4621 74.044 31.1875 74.044 30.8807V29.9545C73.9683 30.0038 73.8641 30.0492 73.7315 30.0909C73.6027 30.1288 73.4569 30.1648 73.294 30.1989C73.1312 30.2292 72.9683 30.2576 72.8054 30.2841C72.6425 30.3068 72.4948 30.3277 72.3622 30.3466C72.0781 30.3883 71.83 30.4545 71.6179 30.5455C71.4058 30.6364 71.241 30.7595 71.1236 30.9148C71.0062 31.0663 70.9474 31.2557 70.9474 31.483C70.9474 31.8125 71.0668 32.0644 71.3054 32.2386C71.5478 32.4091 71.8546 32.4943 72.2259 32.4943ZM82.9673 25.2727V27.0909H77.7116V25.2727H82.9673ZM78.9048 23.1818H81.3253V31.3182C81.3253 31.5417 81.3594 31.7159 81.4276 31.8409C81.4957 31.9621 81.5904 32.0473 81.7116 32.0966C81.8366 32.1458 81.9806 32.1705 82.1435 32.1705C82.2571 32.1705 82.3707 32.161 82.4844 32.142C82.598 32.1193 82.6851 32.1023 82.7457 32.0909L83.1264 33.892C83.0052 33.9299 82.8348 33.9735 82.6151 34.0227C82.3954 34.0758 82.1283 34.108 81.8139 34.1193C81.2306 34.142 80.7192 34.0644 80.2798 33.8864C79.8442 33.7083 79.5052 33.4318 79.2628 33.0568C79.0204 32.6818 78.901 32.2083 78.9048 31.6364V23.1818ZM88.3935 34.1705C87.5109 34.1705 86.7476 33.983 86.1037 33.608C85.4635 33.2292 84.9692 32.7027 84.6207 32.0284C84.2723 31.3504 84.098 30.5644 84.098 29.6705C84.098 28.7689 84.2723 27.9811 84.6207 27.3068C84.9692 26.6288 85.4635 26.1023 86.1037 25.7273C86.7476 25.3485 87.5109 25.1591 88.3935 25.1591C89.276 25.1591 90.0374 25.3485 90.6776 25.7273C91.3215 26.1023 91.8177 26.6288 92.1662 27.3068C92.5147 27.9811 92.6889 28.7689 92.6889 29.6705C92.6889 30.5644 92.5147 31.3504 92.1662 32.0284C91.8177 32.7027 91.3215 33.2292 90.6776 33.608C90.0374 33.983 89.276 34.1705 88.3935 34.1705ZM88.4048 32.2955C88.8063 32.2955 89.1416 32.1818 89.4105 31.9545C89.6795 31.7235 89.8821 31.4091 90.0185 31.0114C90.1586 30.6136 90.2287 30.161 90.2287 29.6534C90.2287 29.1458 90.1586 28.6932 90.0185 28.2955C89.8821 27.8977 89.6795 27.5833 89.4105 27.3523C89.1416 27.1212 88.8063 27.0057 88.4048 27.0057C87.9995 27.0057 87.6586 27.1212 87.3821 27.3523C87.1094 27.5833 86.9029 27.8977 86.7628 28.2955C86.6264 28.6932 86.5582 29.1458 86.5582 29.6534C86.5582 30.161 86.6264 30.6136 86.7628 31.0114C86.9029 31.4091 87.1094 31.7235 87.3821 31.9545C87.6586 32.1818 87.9995 32.2955 88.4048 32.2955Z" fill="white"/>
<path d="M211.129 15V3.36364H218.969V5.39205H213.589V8.16477H218.566V10.1932H213.589V12.9716H218.992V15H211.129ZM223.3 9.95455V15H220.88V6.27273H223.187V7.8125H223.289C223.482 7.30492 223.806 6.90341 224.261 6.60795C224.715 6.30871 225.266 6.15909 225.914 6.15909C226.52 6.15909 227.049 6.29167 227.499 6.55682C227.95 6.82197 228.3 7.20076 228.55 7.69318C228.8 8.18182 228.925 8.76515 228.925 9.44318V15H226.505V9.875C226.509 9.34091 226.372 8.92424 226.096 8.625C225.819 8.32197 225.439 8.17045 224.954 8.17045C224.628 8.17045 224.34 8.24053 224.09 8.38068C223.844 8.52083 223.651 8.72538 223.511 8.99432C223.374 9.25947 223.304 9.57955 223.3 9.95455ZM235.475 6.27273V8.09091H230.219V6.27273H235.475ZM231.413 4.18182H233.833V12.3182C233.833 12.5417 233.867 12.7159 233.935 12.8409C234.004 12.9621 234.098 13.0473 234.219 13.0966C234.344 13.1458 234.488 13.1705 234.651 13.1705C234.765 13.1705 234.879 13.161 234.992 13.142C235.106 13.1193 235.193 13.1023 235.254 13.0909L235.634 14.892C235.513 14.9299 235.343 14.9735 235.123 15.0227C234.903 15.0758 234.636 15.108 234.322 15.1193C233.738 15.142 233.227 15.0644 232.788 14.8864C232.352 14.7083 232.013 14.4318 231.771 14.0568C231.528 13.6818 231.409 13.2083 231.413 12.6364V4.18182ZM240.935 15.1705C240.038 15.1705 239.265 14.9886 238.617 14.625C237.973 14.2576 237.477 13.7386 237.129 13.0682C236.78 12.3939 236.606 11.5966 236.606 10.6761C236.606 9.77841 236.78 8.99053 237.129 8.3125C237.477 7.63447 237.968 7.10606 238.6 6.72727C239.237 6.34848 239.983 6.15909 240.839 6.15909C241.415 6.15909 241.951 6.25189 242.447 6.4375C242.947 6.61932 243.382 6.89394 243.754 7.26136C244.129 7.62879 244.42 8.09091 244.629 8.64773C244.837 9.20076 244.941 9.84848 244.941 10.5909V11.2557H237.572V9.75568H242.663C242.663 9.4072 242.587 9.09848 242.435 8.82955C242.284 8.56061 242.074 8.35038 241.805 8.19886C241.54 8.04356 241.231 7.96591 240.879 7.96591C240.511 7.96591 240.185 8.05114 239.901 8.22159C239.621 8.38826 239.401 8.61364 239.242 8.89773C239.083 9.17803 239.002 9.49053 238.998 9.83523V11.2614C238.998 11.6932 239.077 12.0663 239.237 12.3807C239.399 12.6951 239.629 12.9375 239.924 13.108C240.219 13.2784 240.57 13.3636 240.975 13.3636C241.244 13.3636 241.49 13.3258 241.714 13.25C241.937 13.1742 242.129 13.0606 242.288 12.9091C242.447 12.7576 242.568 12.572 242.651 12.3523L244.89 12.5C244.776 13.0379 244.543 13.5076 244.191 13.9091C243.843 14.3068 243.392 14.6174 242.839 14.8409C242.29 15.0606 241.655 15.1705 240.935 15.1705ZM248.941 9.95455V15H246.521V6.27273H248.827V7.8125H248.93C249.123 7.30492 249.447 6.90341 249.901 6.60795C250.356 6.30871 250.907 6.15909 251.555 6.15909C252.161 6.15909 252.689 6.29167 253.14 6.55682C253.591 6.82197 253.941 7.20076 254.191 7.69318C254.441 8.18182 254.566 8.76515 254.566 9.44318V15H252.146V9.875C252.149 9.34091 252.013 8.92424 251.737 8.625C251.46 8.32197 251.079 8.17045 250.594 8.17045C250.269 8.17045 249.981 8.24053 249.731 8.38068C249.485 8.52083 249.291 8.72538 249.151 8.99432C249.015 9.25947 248.945 9.57955 248.941 9.95455ZM259.69 15.142C259.027 15.142 258.426 14.9716 257.888 14.6307C257.354 14.286 256.93 13.7803 256.616 13.1136C256.305 12.4432 256.15 11.6212 256.15 10.6477C256.15 9.64773 256.311 8.81629 256.633 8.15341C256.955 7.48674 257.383 6.98864 257.917 6.65909C258.455 6.32576 259.044 6.15909 259.684 6.15909C260.173 6.15909 260.58 6.24242 260.906 6.40909C261.235 6.57197 261.5 6.77652 261.701 7.02273C261.906 7.26515 262.061 7.50379 262.167 7.73864H262.241V3.36364H264.656V15H262.269V13.6023H262.167C262.053 13.8447 261.892 14.0852 261.684 14.3239C261.479 14.5587 261.212 14.7538 260.883 14.9091C260.557 15.0644 260.159 15.142 259.69 15.142ZM260.457 13.2159C260.847 13.2159 261.176 13.1098 261.445 12.8977C261.718 12.6818 261.926 12.3807 262.07 11.9943C262.218 11.608 262.292 11.1553 262.292 10.6364C262.292 10.1174 262.22 9.66667 262.076 9.28409C261.932 8.90151 261.724 8.60606 261.451 8.39773C261.178 8.18939 260.847 8.08523 260.457 8.08523C260.059 8.08523 259.724 8.19318 259.451 8.40909C259.178 8.625 258.972 8.92424 258.832 9.30682C258.692 9.68939 258.621 10.1326 258.621 10.6364C258.621 11.1439 258.692 11.5928 258.832 11.983C258.976 12.3693 259.182 12.6723 259.451 12.892C259.724 13.108 260.059 13.2159 260.457 13.2159ZM270.623 15.1705C269.725 15.1705 268.952 14.9886 268.305 14.625C267.661 14.2576 267.165 13.7386 266.816 13.0682C266.468 12.3939 266.293 11.5966 266.293 10.6761C266.293 9.77841 266.468 8.99053 266.816 8.3125C267.165 7.63447 267.655 7.10606 268.288 6.72727C268.924 6.34848 269.67 6.15909 270.526 6.15909C271.102 6.15909 271.638 6.25189 272.134 6.4375C272.634 6.61932 273.07 6.89394 273.441 7.26136C273.816 7.62879 274.108 8.09091 274.316 8.64773C274.524 9.20076 274.629 9.84848 274.629 10.5909V11.2557H267.259V9.75568H272.35C272.35 9.4072 272.274 9.09848 272.123 8.82955C271.971 8.56061 271.761 8.35038 271.492 8.19886C271.227 8.04356 270.918 7.96591 270.566 7.96591C270.199 7.96591 269.873 8.05114 269.589 8.22159C269.308 8.38826 269.089 8.61364 268.93 8.89773C268.771 9.17803 268.689 9.49053 268.685 9.83523V11.2614C268.685 11.6932 268.765 12.0663 268.924 12.3807C269.087 12.6951 269.316 12.9375 269.612 13.108C269.907 13.2784 270.257 13.3636 270.663 13.3636C270.932 13.3636 271.178 13.3258 271.401 13.25C271.625 13.1742 271.816 13.0606 271.975 12.9091C272.134 12.7576 272.255 12.572 272.339 12.3523L274.577 12.5C274.464 13.0379 274.231 13.5076 273.879 13.9091C273.53 14.3068 273.079 14.6174 272.526 14.8409C271.977 15.0606 271.343 15.1705 270.623 15.1705ZM276.208 15V6.27273H278.555V7.79545H278.646C278.805 7.25379 279.072 6.8447 279.447 6.56818C279.822 6.28788 280.254 6.14773 280.742 6.14773C280.863 6.14773 280.994 6.1553 281.134 6.17045C281.274 6.18561 281.397 6.20644 281.504 6.23295V8.38068C281.39 8.34659 281.233 8.31629 281.032 8.28977C280.831 8.26326 280.647 8.25 280.481 8.25C280.125 8.25 279.807 8.32765 279.526 8.48295C279.25 8.63447 279.03 8.84659 278.867 9.11932C278.708 9.39205 278.629 9.70644 278.629 10.0625V15H276.208ZM286.326 15.1705C285.428 15.1705 284.656 14.9886 284.008 14.625C283.364 14.2576 282.868 13.7386 282.519 13.0682C282.171 12.3939 281.996 11.5966 281.996 10.6761C281.996 9.77841 282.171 8.99053 282.519 8.3125C282.868 7.63447 283.358 7.10606 283.991 6.72727C284.627 6.34848 285.373 6.15909 286.229 6.15909C286.805 6.15909 287.341 6.25189 287.837 6.4375C288.337 6.61932 288.773 6.89394 289.144 7.26136C289.519 7.62879 289.811 8.09091 290.019 8.64773C290.228 9.20076 290.332 9.84848 290.332 10.5909V11.2557H282.962V9.75568H288.053C288.053 9.4072 287.978 9.09848 287.826 8.82955C287.674 8.56061 287.464 8.35038 287.195 8.19886C286.93 8.04356 286.621 7.96591 286.269 7.96591C285.902 7.96591 285.576 8.05114 285.292 8.22159C285.012 8.38826 284.792 8.61364 284.633 8.89773C284.474 9.17803 284.392 9.49053 284.388 9.83523V11.2614C284.388 11.6932 284.468 12.0663 284.627 12.3807C284.79 12.6951 285.019 12.9375 285.315 13.108C285.61 13.2784 285.96 13.3636 286.366 13.3636C286.635 13.3636 286.881 13.3258 287.104 13.25C287.328 13.1742 287.519 13.0606 287.678 12.9091C287.837 12.7576 287.959 12.572 288.042 12.3523L290.281 12.5C290.167 13.0379 289.934 13.5076 289.582 13.9091C289.233 14.3068 288.782 14.6174 288.229 14.8409C287.68 15.0606 287.046 15.1705 286.326 15.1705ZM291.911 15V6.27273H294.218V7.8125H294.32C294.502 7.30114 294.805 6.89773 295.229 6.60227C295.654 6.30682 296.161 6.15909 296.752 6.15909C297.351 6.15909 297.86 6.30871 298.281 6.60795C298.701 6.90341 298.981 7.30492 299.121 7.8125H299.212C299.39 7.3125 299.712 6.91288 300.178 6.61364C300.648 6.31061 301.203 6.15909 301.843 6.15909C302.657 6.15909 303.318 6.41856 303.826 6.9375C304.337 7.45265 304.593 8.18371 304.593 9.13068V15H302.178V9.60795C302.178 9.12311 302.049 8.75947 301.792 8.51705C301.534 8.27462 301.212 8.15341 300.826 8.15341C300.387 8.15341 300.044 8.29356 299.798 8.57386C299.551 8.85038 299.428 9.21591 299.428 9.67045V15H297.082V9.55682C297.082 9.12879 296.959 8.78788 296.712 8.53409C296.47 8.2803 296.15 8.15341 295.752 8.15341C295.483 8.15341 295.241 8.22159 295.025 8.35795C294.813 8.49053 294.644 8.67803 294.519 8.92045C294.394 9.15909 294.332 9.43939 294.332 9.76136V15H291.911ZM310.448 15.1705C309.566 15.1705 308.802 14.983 308.158 14.608C307.518 14.2292 307.024 13.7027 306.675 13.0284C306.327 12.3504 306.153 11.5644 306.153 10.6705C306.153 9.76894 306.327 8.98106 306.675 8.30682C307.024 7.62879 307.518 7.10227 308.158 6.72727C308.802 6.34848 309.566 6.15909 310.448 6.15909C311.331 6.15909 312.092 6.34848 312.732 6.72727C313.376 7.10227 313.872 7.62879 314.221 8.30682C314.569 8.98106 314.744 9.76894 314.744 10.6705C314.744 11.5644 314.569 12.3504 314.221 13.0284C313.872 13.7027 313.376 14.2292 312.732 14.608C312.092 14.983 311.331 15.1705 310.448 15.1705ZM310.46 13.2955C310.861 13.2955 311.196 13.1818 311.465 12.9545C311.734 12.7235 311.937 12.4091 312.073 12.0114C312.213 11.6136 312.283 11.161 312.283 10.6534C312.283 10.1458 312.213 9.69318 312.073 9.29545C311.937 8.89773 311.734 8.58333 311.465 8.35227C311.196 8.12121 310.861 8.00568 310.46 8.00568C310.054 8.00568 309.713 8.12121 309.437 8.35227C309.164 8.58333 308.958 8.89773 308.817 9.29545C308.681 9.69318 308.613 10.1458 308.613 10.6534C308.613 11.161 308.681 11.6136 308.817 12.0114C308.958 12.4091 309.164 12.7235 309.437 12.9545C309.713 13.1818 310.054 13.2955 310.46 13.2955ZM323.579 8.76136L321.363 8.89773C321.325 8.70833 321.244 8.53788 321.119 8.38636C320.994 8.23106 320.829 8.10795 320.624 8.01705C320.424 7.92235 320.183 7.875 319.903 7.875C319.528 7.875 319.211 7.95455 318.954 8.11364C318.696 8.26894 318.567 8.47727 318.567 8.73864C318.567 8.94697 318.651 9.12311 318.817 9.26705C318.984 9.41098 319.27 9.52652 319.675 9.61364L321.255 9.93182C322.103 10.1061 322.736 10.3864 323.153 10.7727C323.569 11.1591 323.778 11.6667 323.778 12.2955C323.778 12.8674 323.609 13.3693 323.272 13.8011C322.939 14.233 322.48 14.5701 321.897 14.8125C321.317 15.0511 320.649 15.1705 319.891 15.1705C318.736 15.1705 317.816 14.9299 317.13 14.4489C316.448 13.964 316.049 13.3049 315.931 12.4716L318.312 12.3466C318.384 12.6989 318.558 12.9678 318.835 13.1534C319.111 13.3352 319.465 13.4261 319.897 13.4261C320.321 13.4261 320.662 13.3447 320.92 13.1818C321.181 13.0152 321.314 12.8011 321.317 12.5398C321.314 12.3201 321.221 12.1402 321.039 12C320.857 11.8561 320.577 11.7462 320.198 11.6705L318.687 11.3693C317.835 11.1989 317.2 10.9034 316.783 10.483C316.371 10.0625 316.164 9.52652 316.164 8.875C316.164 8.31439 316.316 7.83144 316.619 7.42614C316.925 7.02083 317.355 6.70833 317.908 6.48864C318.465 6.26894 319.117 6.15909 319.863 6.15909C320.965 6.15909 321.833 6.39205 322.465 6.85795C323.102 7.32386 323.473 7.95833 323.579 8.76136ZM329.005 15V6.27273H331.312V7.8125H331.414C331.596 7.30114 331.899 6.89773 332.323 6.60227C332.747 6.30682 333.255 6.15909 333.846 6.15909C334.444 6.15909 334.954 6.30871 335.374 6.60795C335.795 6.90341 336.075 7.30492 336.215 7.8125H336.306C336.484 7.3125 336.806 6.91288 337.272 6.61364C337.742 6.31061 338.297 6.15909 338.937 6.15909C339.751 6.15909 340.412 6.41856 340.92 6.9375C341.431 7.45265 341.687 8.18371 341.687 9.13068V15H339.272V9.60795C339.272 9.12311 339.143 8.75947 338.886 8.51705C338.628 8.27462 338.306 8.15341 337.92 8.15341C337.48 8.15341 337.138 8.29356 336.891 8.57386C336.645 8.85038 336.522 9.21591 336.522 9.67045V15H334.175V9.55682C334.175 9.12879 334.052 8.78788 333.806 8.53409C333.564 8.2803 333.244 8.15341 332.846 8.15341C332.577 8.15341 332.335 8.22159 332.119 8.35795C331.906 8.49053 331.738 8.67803 331.613 8.92045C331.488 9.15909 331.425 9.43939 331.425 9.76136V15H329.005ZM347.576 15.1705C346.678 15.1705 345.906 14.9886 345.258 14.625C344.614 14.2576 344.118 13.7386 343.769 13.0682C343.421 12.3939 343.246 11.5966 343.246 10.6761C343.246 9.77841 343.421 8.99053 343.769 8.3125C344.118 7.63447 344.608 7.10606 345.241 6.72727C345.877 6.34848 346.623 6.15909 347.479 6.15909C348.055 6.15909 348.591 6.25189 349.087 6.4375C349.587 6.61932 350.023 6.89394 350.394 7.26136C350.769 7.62879 351.061 8.09091 351.269 8.64773C351.478 9.20076 351.582 9.84848 351.582 10.5909V11.2557H344.212V9.75568H349.303C349.303 9.4072 349.228 9.09848 349.076 8.82955C348.924 8.56061 348.714 8.35038 348.445 8.19886C348.18 8.04356 347.871 7.96591 347.519 7.96591C347.152 7.96591 346.826 8.05114 346.542 8.22159C346.262 8.38826 346.042 8.61364 345.883 8.89773C345.724 9.17803 345.642 9.49053 345.638 9.83523V11.2614C345.638 11.6932 345.718 12.0663 345.877 12.3807C346.04 12.6951 346.269 12.9375 346.565 13.108C346.86 13.2784 347.21 13.3636 347.616 13.3636C347.885 13.3636 348.131 13.3258 348.354 13.25C348.578 13.1742 348.769 13.0606 348.928 12.9091C349.087 12.7576 349.209 12.572 349.292 12.3523L351.531 12.5C351.417 13.0379 351.184 13.5076 350.832 13.9091C350.483 14.3068 350.032 14.6174 349.479 14.8409C348.93 15.0606 348.296 15.1705 347.576 15.1705ZM355.582 3.36364V15H353.161V3.36364H355.582ZM359.941 9.95455V15H357.521V3.36364H359.873V7.8125H359.975C360.172 7.29735 360.49 6.89394 360.93 6.60227C361.369 6.30682 361.92 6.15909 362.583 6.15909C363.189 6.15909 363.718 6.29167 364.168 6.55682C364.623 6.81818 364.975 7.19508 365.225 7.6875C365.479 8.17614 365.604 8.76136 365.6 9.44318V15H363.18V9.875C363.183 9.33712 363.047 8.91856 362.771 8.61932C362.498 8.32008 362.115 8.17045 361.623 8.17045C361.293 8.17045 361.002 8.24053 360.748 8.38068C360.498 8.52083 360.301 8.72538 360.157 8.99432C360.017 9.25947 359.945 9.57955 359.941 9.95455ZM371.448 15.1705C370.566 15.1705 369.802 14.983 369.158 14.608C368.518 14.2292 368.024 13.7027 367.675 13.0284C367.327 12.3504 367.153 11.5644 367.153 10.6705C367.153 9.76894 367.327 8.98106 367.675 8.30682C368.024 7.62879 368.518 7.10227 369.158 6.72727C369.802 6.34848 370.566 6.15909 371.448 6.15909C372.331 6.15909 373.092 6.34848 373.732 6.72727C374.376 7.10227 374.872 7.62879 375.221 8.30682C375.569 8.98106 375.744 9.76894 375.744 10.6705C375.744 11.5644 375.569 12.3504 375.221 13.0284C374.872 13.7027 374.376 14.2292 373.732 14.608C373.092 14.983 372.331 15.1705 371.448 15.1705ZM371.46 13.2955C371.861 13.2955 372.196 13.1818 372.465 12.9545C372.734 12.7235 372.937 12.4091 373.073 12.0114C373.213 11.6136 373.283 11.161 373.283 10.6534C373.283 10.1458 373.213 9.69318 373.073 9.29545C372.937 8.89773 372.734 8.58333 372.465 8.35227C372.196 8.12121 371.861 8.00568 371.46 8.00568C371.054 8.00568 370.713 8.12121 370.437 8.35227C370.164 8.58333 369.958 8.89773 369.817 9.29545C369.681 9.69318 369.613 10.1458 369.613 10.6534C369.613 11.161 369.681 11.6136 369.817 12.0114C369.958 12.4091 370.164 12.7235 370.437 12.9545C370.713 13.1818 371.054 13.2955 371.46 13.2955ZM377.317 15V6.27273H379.664V7.79545H379.755C379.914 7.25379 380.181 6.8447 380.556 6.56818C380.931 6.28788 381.363 6.14773 381.852 6.14773C381.973 6.14773 382.103 6.1553 382.244 6.17045C382.384 6.18561 382.507 6.20644 382.613 6.23295V8.38068C382.499 8.34659 382.342 8.31629 382.141 8.28977C381.941 8.26326 381.757 8.25 381.59 8.25C381.234 8.25 380.916 8.32765 380.636 8.48295C380.359 8.63447 380.139 8.84659 379.977 9.11932C379.817 9.39205 379.738 9.70644 379.738 10.0625V15H377.317ZM390.056 15.1648C389.499 15.1648 389.003 15.0682 388.567 14.875C388.132 14.678 387.787 14.3883 387.533 14.0057C387.283 13.6193 387.158 13.1383 387.158 12.5625C387.158 12.0777 387.247 11.6705 387.425 11.3409C387.603 11.0114 387.846 10.7462 388.153 10.5455C388.46 10.3447 388.808 10.1932 389.198 10.0909C389.592 9.98864 390.005 9.91667 390.437 9.875C390.944 9.82197 391.353 9.77273 391.664 9.72727C391.975 9.67803 392.2 9.60606 392.34 9.51136C392.48 9.41667 392.55 9.27652 392.55 9.09091V9.05682C392.55 8.69697 392.437 8.41856 392.21 8.22159C391.986 8.02462 391.668 7.92614 391.255 7.92614C390.819 7.92614 390.473 8.02273 390.215 8.21591C389.958 8.4053 389.787 8.64394 389.704 8.93182L387.465 8.75C387.579 8.2197 387.802 7.76136 388.136 7.375C388.469 6.98485 388.899 6.68561 389.425 6.47727C389.956 6.26515 390.569 6.15909 391.266 6.15909C391.751 6.15909 392.215 6.21591 392.658 6.32955C393.105 6.44318 393.501 6.61932 393.846 6.85795C394.194 7.09659 394.469 7.40341 394.67 7.77841C394.871 8.14962 394.971 8.5947 394.971 9.11364V15H392.675V13.7898H392.607C392.467 14.0625 392.28 14.303 392.045 14.5114C391.81 14.7159 391.528 14.8769 391.198 14.9943C390.869 15.108 390.488 15.1648 390.056 15.1648ZM390.749 13.4943C391.105 13.4943 391.42 13.4242 391.692 13.2841C391.965 13.1402 392.179 12.947 392.335 12.7045C392.49 12.4621 392.567 12.1875 392.567 11.8807V10.9545C392.492 11.0038 392.388 11.0492 392.255 11.0909C392.126 11.1288 391.98 11.1648 391.817 11.1989C391.655 11.2292 391.492 11.2576 391.329 11.2841C391.166 11.3068 391.018 11.3277 390.886 11.3466C390.602 11.3883 390.353 11.4545 390.141 11.5455C389.929 11.6364 389.764 11.7595 389.647 11.9148C389.53 12.0663 389.471 12.2557 389.471 12.483C389.471 12.8125 389.59 13.0644 389.829 13.2386C390.071 13.4091 390.378 13.4943 390.749 13.4943ZM245.274 27.7614L243.058 27.8977C243.02 27.7083 242.939 27.5379 242.814 27.3864C242.689 27.2311 242.524 27.108 242.32 27.017C242.119 26.9223 241.878 26.875 241.598 26.875C241.223 26.875 240.907 26.9545 240.649 27.1136C240.392 27.2689 240.263 27.4773 240.263 27.7386C240.263 27.947 240.346 28.1231 240.513 28.267C240.679 28.411 240.965 28.5265 241.371 28.6136L242.95 28.9318C243.799 29.1061 244.431 29.3864 244.848 29.7727C245.265 30.1591 245.473 30.6667 245.473 31.2955C245.473 31.8674 245.304 32.3693 244.967 32.8011C244.634 33.233 244.176 33.5701 243.592 33.8125C243.013 34.0511 242.344 34.1705 241.587 34.1705C240.431 34.1705 239.511 33.9299 238.825 33.4489C238.143 32.964 237.744 32.3049 237.626 31.4716L240.007 31.3466C240.079 31.6989 240.253 31.9678 240.53 32.1534C240.806 32.3352 241.161 32.4261 241.592 32.4261C242.017 32.4261 242.357 32.3447 242.615 32.1818C242.876 32.0152 243.009 31.8011 243.013 31.5398C243.009 31.3201 242.916 31.1402 242.734 31C242.553 30.8561 242.272 30.7462 241.893 30.6705L240.382 30.3693C239.53 30.1989 238.895 29.9034 238.479 29.483C238.066 29.0625 237.859 28.5265 237.859 27.875C237.859 27.3144 238.011 26.8314 238.314 26.4261C238.621 26.0208 239.051 25.7083 239.604 25.4886C240.161 25.2689 240.812 25.1591 241.558 25.1591C242.661 25.1591 243.528 25.392 244.161 25.858C244.797 26.3239 245.168 26.9583 245.274 27.7614ZM252.594 30.2841V25.2727H255.014V34H252.69V32.4148H252.599C252.402 32.9261 252.075 33.3371 251.616 33.6477C251.162 33.9583 250.607 34.1136 249.952 34.1136C249.368 34.1136 248.855 33.9811 248.412 33.7159C247.969 33.4508 247.622 33.0739 247.372 32.5852C247.126 32.0966 247.001 31.5114 246.997 30.8295V25.2727H249.418V30.3977C249.421 30.9129 249.56 31.3201 249.832 31.6193C250.105 31.9186 250.471 32.0682 250.929 32.0682C251.221 32.0682 251.493 32.0019 251.747 31.8693C252.001 31.733 252.205 31.5322 252.361 31.267C252.52 31.0019 252.598 30.6742 252.594 30.2841ZM259.439 34.1648C258.882 34.1648 258.386 34.0682 257.95 33.875C257.515 33.678 257.17 33.3883 256.916 33.0057C256.666 32.6193 256.541 32.1383 256.541 31.5625C256.541 31.0777 256.63 30.6705 256.808 30.3409C256.986 30.0114 257.229 29.7462 257.536 29.5455C257.842 29.3447 258.191 29.1932 258.581 29.0909C258.975 28.9886 259.388 28.9167 259.82 28.875C260.327 28.822 260.736 28.7727 261.047 28.7273C261.357 28.678 261.583 28.6061 261.723 28.5114C261.863 28.4167 261.933 28.2765 261.933 28.0909V28.0568C261.933 27.697 261.82 27.4186 261.592 27.2216C261.369 27.0246 261.051 26.9261 260.638 26.9261C260.202 26.9261 259.856 27.0227 259.598 27.2159C259.34 27.4053 259.17 27.6439 259.087 27.9318L256.848 27.75C256.962 27.2197 257.185 26.7614 257.518 26.375C257.852 25.9848 258.282 25.6856 258.808 25.4773C259.339 25.2652 259.952 25.1591 260.649 25.1591C261.134 25.1591 261.598 25.2159 262.041 25.3295C262.488 25.4432 262.884 25.6193 263.229 25.858C263.577 26.0966 263.852 26.4034 264.053 26.7784C264.253 27.1496 264.354 27.5947 264.354 28.1136V34H262.058V32.7898H261.99C261.85 33.0625 261.662 33.303 261.428 33.5114C261.193 33.7159 260.911 33.8769 260.581 33.9943C260.251 34.108 259.871 34.1648 259.439 34.1648ZM260.132 32.4943C260.488 32.4943 260.803 32.4242 261.075 32.2841C261.348 32.1402 261.562 31.947 261.717 31.7045C261.873 31.4621 261.95 31.1875 261.95 30.8807V29.9545C261.875 30.0038 261.77 30.0492 261.638 30.0909C261.509 30.1288 261.363 30.1648 261.2 30.1989C261.037 30.2292 260.875 30.2576 260.712 30.2841C260.549 30.3068 260.401 30.3277 260.268 30.3466C259.984 30.3883 259.736 30.4545 259.524 30.5455C259.312 30.6364 259.147 30.7595 259.03 30.9148C258.912 31.0663 258.854 31.2557 258.854 31.483C258.854 31.8125 258.973 32.0644 259.212 32.2386C259.454 32.4091 259.761 32.4943 260.132 32.4943ZM272.355 28.9545V34H269.935V25.2727H272.241V26.8125H272.344C272.537 26.3049 272.861 25.9034 273.315 25.608C273.77 25.3087 274.321 25.1591 274.969 25.1591C275.575 25.1591 276.103 25.2917 276.554 25.5568C277.005 25.822 277.355 26.2008 277.605 26.6932C277.855 27.1818 277.98 27.7652 277.98 28.4432V34H275.56V28.875C275.563 28.3409 275.427 27.9242 275.151 27.625C274.874 27.322 274.493 27.1705 274.009 27.1705C273.683 27.1705 273.395 27.2405 273.145 27.3807C272.899 27.5208 272.705 27.7254 272.565 27.9943C272.429 28.2595 272.359 28.5795 272.355 28.9545ZM283.865 34.1705C282.967 34.1705 282.195 33.9886 281.547 33.625C280.903 33.2576 280.407 32.7386 280.058 32.0682C279.71 31.3939 279.536 30.5966 279.536 29.6761C279.536 28.7784 279.71 27.9905 280.058 27.3125C280.407 26.6345 280.897 26.1061 281.53 25.7273C282.166 25.3485 282.912 25.1591 283.768 25.1591C284.344 25.1591 284.88 25.2519 285.376 25.4375C285.876 25.6193 286.312 25.8939 286.683 26.2614C287.058 26.6288 287.35 27.0909 287.558 27.6477C287.767 28.2008 287.871 28.8485 287.871 29.5909V30.2557H280.501V28.7557H285.592C285.592 28.4072 285.517 28.0985 285.365 27.8295C285.214 27.5606 285.003 27.3504 284.734 27.1989C284.469 27.0436 284.161 26.9659 283.808 26.9659C283.441 26.9659 283.115 27.0511 282.831 27.2216C282.551 27.3883 282.331 27.6136 282.172 27.8977C282.013 28.178 281.931 28.4905 281.928 28.8352V30.2614C281.928 30.6932 282.007 31.0663 282.166 31.3807C282.329 31.6951 282.558 31.9375 282.854 32.108C283.149 32.2784 283.5 32.3636 283.905 32.3636C284.174 32.3636 284.42 32.3258 284.643 32.25C284.867 32.1742 285.058 32.0606 285.217 31.9091C285.376 31.7576 285.498 31.572 285.581 31.3523L287.82 31.5C287.706 32.0379 287.473 32.5076 287.121 32.9091C286.772 33.3068 286.321 33.6174 285.768 33.8409C285.219 34.0606 284.585 34.1705 283.865 34.1705ZM293.393 34.1705C292.5 34.1705 291.731 33.9811 291.087 33.6023C290.446 33.2197 289.954 32.6894 289.609 32.0114C289.268 31.3333 289.098 30.553 289.098 29.6705C289.098 28.7765 289.27 27.9924 289.615 27.3182C289.964 26.6402 290.458 26.1117 291.098 25.733C291.738 25.3504 292.5 25.1591 293.382 25.1591C294.143 25.1591 294.81 25.2973 295.382 25.5739C295.954 25.8504 296.407 26.2386 296.74 26.7386C297.073 27.2386 297.257 27.8258 297.291 28.5H295.007C294.943 28.0644 294.772 27.714 294.496 27.4489C294.223 27.1799 293.865 27.0455 293.422 27.0455C293.047 27.0455 292.719 27.1477 292.439 27.3523C292.162 27.553 291.946 27.8466 291.791 28.233C291.636 28.6193 291.558 29.0871 291.558 29.6364C291.558 30.1932 291.634 30.6667 291.786 31.0568C291.941 31.447 292.159 31.7443 292.439 31.9489C292.719 32.1534 293.047 32.2557 293.422 32.2557C293.698 32.2557 293.946 32.1989 294.166 32.0852C294.39 31.9716 294.573 31.8068 294.717 31.5909C294.865 31.3712 294.962 31.108 295.007 30.8011H297.291C297.253 31.4678 297.071 32.0549 296.746 32.5625C296.424 33.0663 295.979 33.4602 295.411 33.7443C294.842 34.0284 294.17 34.1705 293.393 34.1705ZM302.818 34.1705C301.92 34.1705 301.148 33.9886 300.5 33.625C299.856 33.2576 299.36 32.7386 299.011 32.0682C298.663 31.3939 298.489 30.5966 298.489 29.6761C298.489 28.7784 298.663 27.9905 299.011 27.3125C299.36 26.6345 299.85 26.1061 300.483 25.7273C301.119 25.3485 301.866 25.1591 302.722 25.1591C303.297 25.1591 303.833 25.2519 304.33 25.4375C304.83 25.6193 305.265 25.8939 305.636 26.2614C306.011 26.6288 306.303 27.0909 306.511 27.6477C306.72 28.2008 306.824 28.8485 306.824 29.5909V30.2557H299.455V28.7557H304.545C304.545 28.4072 304.47 28.0985 304.318 27.8295C304.167 27.5606 303.956 27.3504 303.688 27.1989C303.422 27.0436 303.114 26.9659 302.761 26.9659C302.394 26.9659 302.068 27.0511 301.784 27.2216C301.504 27.3883 301.284 27.6136 301.125 27.8977C300.966 28.178 300.884 28.4905 300.881 28.8352V30.2614C300.881 30.6932 300.96 31.0663 301.119 31.3807C301.282 31.6951 301.511 31.9375 301.807 32.108C302.102 32.2784 302.453 32.3636 302.858 32.3636C303.127 32.3636 303.373 32.3258 303.597 32.25C303.82 32.1742 304.011 32.0606 304.17 31.9091C304.33 31.7576 304.451 31.572 304.534 31.3523L306.773 31.5C306.659 32.0379 306.426 32.5076 306.074 32.9091C305.725 33.3068 305.275 33.6174 304.722 33.8409C304.172 34.0606 303.538 34.1705 302.818 34.1705ZM315.665 27.7614L313.449 27.8977C313.411 27.7083 313.33 27.5379 313.205 27.3864C313.08 27.2311 312.915 27.108 312.71 27.017C312.509 26.9223 312.269 26.875 311.989 26.875C311.614 26.875 311.297 26.9545 311.04 27.1136C310.782 27.2689 310.653 27.4773 310.653 27.7386C310.653 27.947 310.737 28.1231 310.903 28.267C311.07 28.411 311.356 28.5265 311.761 28.6136L313.341 28.9318C314.189 29.1061 314.822 29.3864 315.239 29.7727C315.655 30.1591 315.864 30.6667 315.864 31.2955C315.864 31.8674 315.695 32.3693 315.358 32.8011C315.025 33.233 314.566 33.5701 313.983 33.8125C313.403 34.0511 312.735 34.1705 311.977 34.1705C310.822 34.1705 309.902 33.9299 309.216 33.4489C308.534 32.964 308.134 32.3049 308.017 31.4716L310.398 31.3466C310.47 31.6989 310.644 31.9678 310.92 32.1534C311.197 32.3352 311.551 32.4261 311.983 32.4261C312.407 32.4261 312.748 32.3447 313.006 32.1818C313.267 32.0152 313.4 31.8011 313.403 31.5398C313.4 31.3201 313.307 31.1402 313.125 31C312.943 30.8561 312.663 30.7462 312.284 30.6705L310.773 30.3693C309.92 30.1989 309.286 29.9034 308.869 29.483C308.456 29.0625 308.25 28.5265 308.25 27.875C308.25 27.3144 308.402 26.8314 308.705 26.4261C309.011 26.0208 309.441 25.7083 309.994 25.4886C310.551 25.2689 311.203 25.1591 311.949 25.1591C313.051 25.1591 313.919 25.392 314.551 25.858C315.188 26.3239 315.559 26.9583 315.665 27.7614ZM324.649 27.7614L322.433 27.8977C322.395 27.7083 322.314 27.5379 322.189 27.3864C322.064 27.2311 321.899 27.108 321.695 27.017C321.494 26.9223 321.253 26.875 320.973 26.875C320.598 26.875 320.282 26.9545 320.024 27.1136C319.767 27.2689 319.638 27.4773 319.638 27.7386C319.638 27.947 319.721 28.1231 319.888 28.267C320.054 28.411 320.34 28.5265 320.746 28.6136L322.325 28.9318C323.174 29.1061 323.806 29.3864 324.223 29.7727C324.64 30.1591 324.848 30.6667 324.848 31.2955C324.848 31.8674 324.679 32.3693 324.342 32.8011C324.009 33.233 323.551 33.5701 322.967 33.8125C322.388 34.0511 321.719 34.1705 320.962 34.1705C319.806 34.1705 318.886 33.9299 318.2 33.4489C317.518 32.964 317.119 32.3049 317.001 31.4716L319.382 31.3466C319.454 31.6989 319.628 31.9678 319.905 32.1534C320.181 32.3352 320.536 32.4261 320.967 32.4261C321.392 32.4261 321.732 32.3447 321.99 32.1818C322.251 32.0152 322.384 31.8011 322.388 31.5398C322.384 31.3201 322.291 31.1402 322.109 31C321.928 30.8561 321.647 30.7462 321.268 30.6705L319.757 30.3693C318.905 30.1989 318.27 29.9034 317.854 29.483C317.441 29.0625 317.234 28.5265 317.234 27.875C317.234 27.3144 317.386 26.8314 317.689 26.4261C317.996 26.0208 318.426 25.7083 318.979 25.4886C319.536 25.2689 320.187 25.1591 320.933 25.1591C322.036 25.1591 322.903 25.392 323.536 25.858C324.172 26.3239 324.543 26.9583 324.649 27.7614ZM326.372 34V25.2727H328.793V34H326.372ZM327.588 24.1477C327.228 24.1477 326.92 24.0284 326.662 23.7898C326.408 23.5473 326.281 23.2576 326.281 22.9205C326.281 22.5871 326.408 22.3011 326.662 22.0625C326.92 21.8201 327.228 21.6989 327.588 21.6989C327.948 21.6989 328.255 21.8201 328.509 22.0625C328.766 22.3011 328.895 22.5871 328.895 22.9205C328.895 23.2576 328.766 23.5473 328.509 23.7898C328.255 24.0284 327.948 24.1477 327.588 24.1477ZM333.947 34.142C333.285 34.142 332.684 33.9716 332.146 33.6307C331.612 33.286 331.188 32.7803 330.874 32.1136C330.563 31.4432 330.408 30.6212 330.408 29.6477C330.408 28.6477 330.569 27.8163 330.891 27.1534C331.213 26.4867 331.641 25.9886 332.175 25.6591C332.713 25.3258 333.302 25.1591 333.942 25.1591C334.43 25.1591 334.838 25.2424 335.163 25.4091C335.493 25.572 335.758 25.7765 335.959 26.0227C336.163 26.2652 336.319 26.5038 336.425 26.7386H336.499V22.3636H338.913V34H336.527V32.6023H336.425C336.311 32.8447 336.15 33.0852 335.942 33.3239C335.737 33.5587 335.47 33.7538 335.141 33.9091C334.815 34.0644 334.417 34.142 333.947 34.142ZM334.714 32.2159C335.105 32.2159 335.434 32.1098 335.703 31.8977C335.976 31.6818 336.184 31.3807 336.328 30.9943C336.476 30.608 336.55 30.1553 336.55 29.6364C336.55 29.1174 336.478 28.6667 336.334 28.2841C336.19 27.9015 335.982 27.6061 335.709 27.3977C335.436 27.1894 335.105 27.0852 334.714 27.0852C334.317 27.0852 333.982 27.1932 333.709 27.4091C333.436 27.625 333.23 27.9242 333.089 28.3068C332.949 28.6894 332.879 29.1326 332.879 29.6364C332.879 30.1439 332.949 30.5928 333.089 30.983C333.233 31.3693 333.44 31.6723 333.709 31.892C333.982 32.108 334.317 32.2159 334.714 32.2159ZM343.392 34.1648C342.835 34.1648 342.339 34.0682 341.903 33.875C341.468 33.678 341.123 33.3883 340.869 33.0057C340.619 32.6193 340.494 32.1383 340.494 31.5625C340.494 31.0777 340.583 30.6705 340.761 30.3409C340.939 30.0114 341.182 29.7462 341.489 29.5455C341.795 29.3447 342.144 29.1932 342.534 29.0909C342.928 28.9886 343.341 28.9167 343.773 28.875C344.28 28.822 344.689 28.7727 345 28.7273C345.311 28.678 345.536 28.6061 345.676 28.5114C345.816 28.4167 345.886 28.2765 345.886 28.0909V28.0568C345.886 27.697 345.773 27.4186 345.545 27.2216C345.322 27.0246 345.004 26.9261 344.591 26.9261C344.155 26.9261 343.809 27.0227 343.551 27.2159C343.294 27.4053 343.123 27.6439 343.04 27.9318L340.801 27.75C340.915 27.2197 341.138 26.7614 341.472 26.375C341.805 25.9848 342.235 25.6856 342.761 25.4773C343.292 25.2652 343.905 25.1591 344.602 25.1591C345.087 25.1591 345.551 25.2159 345.994 25.3295C346.441 25.4432 346.837 25.6193 347.182 25.858C347.53 26.0966 347.805 26.4034 348.006 26.7784C348.206 27.1496 348.307 27.5947 348.307 28.1136V34H346.011V32.7898H345.943C345.803 33.0625 345.616 33.303 345.381 33.5114C345.146 33.7159 344.864 33.8769 344.534 33.9943C344.205 34.108 343.824 34.1648 343.392 34.1648ZM344.085 32.4943C344.441 32.4943 344.756 32.4242 345.028 32.2841C345.301 32.1402 345.515 31.947 345.67 31.7045C345.826 31.4621 345.903 31.1875 345.903 30.8807V29.9545C345.828 30.0038 345.723 30.0492 345.591 30.0909C345.462 30.1288 345.316 30.1648 345.153 30.1989C344.991 30.2292 344.828 30.2576 344.665 30.2841C344.502 30.3068 344.354 30.3277 344.222 30.3466C343.938 30.3883 343.689 30.4545 343.477 30.5455C343.265 30.6364 343.1 30.7595 342.983 30.9148C342.866 31.0663 342.807 31.2557 342.807 31.483C342.807 31.8125 342.926 32.0644 343.165 32.2386C343.407 32.4091 343.714 32.4943 344.085 32.4943ZM353.401 34.142C352.738 34.142 352.137 33.9716 351.599 33.6307C351.065 33.286 350.641 32.7803 350.327 32.1136C350.016 31.4432 349.861 30.6212 349.861 29.6477C349.861 28.6477 350.022 27.8163 350.344 27.1534C350.666 26.4867 351.094 25.9886 351.628 25.6591C352.166 25.3258 352.755 25.1591 353.395 25.1591C353.884 25.1591 354.291 25.2424 354.616 25.4091C354.946 25.572 355.211 25.7765 355.412 26.0227C355.616 26.2652 355.772 26.5038 355.878 26.7386H355.952V22.3636H358.366V34H355.98V32.6023H355.878C355.764 32.8447 355.603 33.0852 355.395 33.3239C355.19 33.5587 354.923 33.7538 354.594 33.9091C354.268 34.0644 353.87 34.142 353.401 34.142ZM354.168 32.2159C354.558 32.2159 354.887 32.1098 355.156 31.8977C355.429 31.6818 355.637 31.3807 355.781 30.9943C355.929 30.608 356.003 30.1553 356.003 29.6364C356.003 29.1174 355.931 28.6667 355.787 28.2841C355.643 27.9015 355.435 27.6061 355.162 27.3977C354.889 27.1894 354.558 27.0852 354.168 27.0852C353.77 27.0852 353.435 27.1932 353.162 27.4091C352.889 27.625 352.683 27.9242 352.543 28.3068C352.402 28.6894 352.332 29.1326 352.332 29.6364C352.332 30.1439 352.402 30.5928 352.543 30.983C352.687 31.3693 352.893 31.6723 353.162 31.892C353.435 32.108 353.77 32.2159 354.168 32.2159ZM364.334 34.1705C363.436 34.1705 362.663 33.9886 362.016 33.625C361.372 33.2576 360.875 32.7386 360.527 32.0682C360.179 31.3939 360.004 30.5966 360.004 29.6761C360.004 28.7784 360.179 27.9905 360.527 27.3125C360.875 26.6345 361.366 26.1061 361.999 25.7273C362.635 25.3485 363.381 25.1591 364.237 25.1591C364.813 25.1591 365.349 25.2519 365.845 25.4375C366.345 25.6193 366.781 25.8939 367.152 26.2614C367.527 26.6288 367.819 27.0909 368.027 27.6477C368.235 28.2008 368.339 28.8485 368.339 29.5909V30.2557H360.97V28.7557H366.061C366.061 28.4072 365.985 28.0985 365.834 27.8295C365.682 27.5606 365.472 27.3504 365.203 27.1989C364.938 27.0436 364.629 26.9659 364.277 26.9659C363.91 26.9659 363.584 27.0511 363.3 27.2216C363.019 27.3883 362.8 27.6136 362.641 27.8977C362.482 28.178 362.4 28.4905 362.396 28.8352V30.2614C362.396 30.6932 362.476 31.0663 362.635 31.3807C362.798 31.6951 363.027 31.9375 363.322 32.108C363.618 32.2784 363.968 32.3636 364.374 32.3636C364.643 32.3636 364.889 32.3258 365.112 32.25C365.336 32.1742 365.527 32.0606 365.686 31.9091C365.845 31.7576 365.966 31.572 366.05 31.3523L368.288 31.5C368.175 32.0379 367.942 32.5076 367.589 32.9091C367.241 33.3068 366.79 33.6174 366.237 33.8409C365.688 34.0606 365.054 34.1705 364.334 34.1705Z" fill="white"/>
<path d="M484.277 15V3.36364H492.118V5.39205H486.737V8.16477H491.714V10.1932H486.737V12.9716H492.141V15H484.277ZM496.449 9.95455V15H494.028V6.27273H496.335V7.8125H496.438C496.631 7.30492 496.955 6.90341 497.409 6.60795C497.864 6.30871 498.415 6.15909 499.062 6.15909C499.669 6.15909 500.197 6.29167 500.648 6.55682C501.098 6.82197 501.449 7.20076 501.699 7.69318C501.949 8.18182 502.074 8.76515 502.074 9.44318V15H499.653V9.875C499.657 9.34091 499.521 8.92424 499.244 8.625C498.968 8.32197 498.587 8.17045 498.102 8.17045C497.777 8.17045 497.489 8.24053 497.239 8.38068C496.992 8.52083 496.799 8.72538 496.659 8.99432C496.523 9.25947 496.453 9.57955 496.449 9.95455ZM511.805 6.27273L508.754 15H506.027L502.976 6.27273H505.533L507.345 12.517H507.436L509.243 6.27273H511.805ZM513.044 15V6.27273H515.464V15H513.044ZM514.26 5.14773C513.9 5.14773 513.591 5.02841 513.334 4.78977C513.08 4.54735 512.953 4.25758 512.953 3.92045C512.953 3.58712 513.08 3.30114 513.334 3.0625C513.591 2.82008 513.9 2.69886 514.26 2.69886C514.62 2.69886 514.927 2.82008 515.18 3.0625C515.438 3.30114 515.567 3.58712 515.567 3.92045C515.567 4.25758 515.438 4.54735 515.18 4.78977C514.927 5.02841 514.62 5.14773 514.26 5.14773ZM519.892 15.1648C519.335 15.1648 518.839 15.0682 518.403 14.875C517.968 14.678 517.623 14.3883 517.369 14.0057C517.119 13.6193 516.994 13.1383 516.994 12.5625C516.994 12.0777 517.083 11.6705 517.261 11.3409C517.439 11.0114 517.682 10.7462 517.989 10.5455C518.295 10.3447 518.644 10.1932 519.034 10.0909C519.428 9.98864 519.841 9.91667 520.273 9.875C520.78 9.82197 521.189 9.77273 521.5 9.72727C521.811 9.67803 522.036 9.60606 522.176 9.51136C522.316 9.41667 522.386 9.27652 522.386 9.09091V9.05682C522.386 8.69697 522.273 8.41856 522.045 8.22159C521.822 8.02462 521.504 7.92614 521.091 7.92614C520.655 7.92614 520.309 8.02273 520.051 8.21591C519.794 8.4053 519.623 8.64394 519.54 8.93182L517.301 8.75C517.415 8.2197 517.638 7.76136 517.972 7.375C518.305 6.98485 518.735 6.68561 519.261 6.47727C519.792 6.26515 520.405 6.15909 521.102 6.15909C521.587 6.15909 522.051 6.21591 522.494 6.32955C522.941 6.44318 523.337 6.61932 523.682 6.85795C524.03 7.09659 524.305 7.40341 524.506 7.77841C524.706 8.14962 524.807 8.5947 524.807 9.11364V15H522.511V13.7898H522.443C522.303 14.0625 522.116 14.303 521.881 14.5114C521.646 14.7159 521.364 14.8769 521.034 14.9943C520.705 15.108 520.324 15.1648 519.892 15.1648ZM520.585 13.4943C520.941 13.4943 521.256 13.4242 521.528 13.2841C521.801 13.1402 522.015 12.947 522.17 12.7045C522.326 12.4621 522.403 12.1875 522.403 11.8807V10.9545C522.328 11.0038 522.223 11.0492 522.091 11.0909C521.962 11.1288 521.816 11.1648 521.653 11.1989C521.491 11.2292 521.328 11.2576 521.165 11.2841C521.002 11.3068 520.854 11.3277 520.722 11.3466C520.438 11.3883 520.189 11.4545 519.977 11.5455C519.765 11.6364 519.6 11.7595 519.483 11.9148C519.366 12.0663 519.307 12.2557 519.307 12.483C519.307 12.8125 519.426 13.0644 519.665 13.2386C519.907 13.4091 520.214 13.4943 520.585 13.4943ZM526.685 15V6.27273H529.031V7.79545H529.122C529.281 7.25379 529.548 6.8447 529.923 6.56818C530.298 6.28788 530.73 6.14773 531.219 6.14773C531.34 6.14773 531.471 6.1553 531.611 6.17045C531.751 6.18561 531.874 6.20644 531.98 6.23295V8.38068C531.866 8.34659 531.709 8.31629 531.509 8.28977C531.308 8.26326 531.124 8.25 530.957 8.25C530.601 8.25 530.283 8.32765 530.003 8.48295C529.726 8.63447 529.507 8.84659 529.344 9.11932C529.185 9.39205 529.105 9.70644 529.105 10.0625V15H526.685ZM536.803 15.1705C535.905 15.1705 535.132 14.9886 534.484 14.625C533.84 14.2576 533.344 13.7386 532.996 13.0682C532.647 12.3939 532.473 11.5966 532.473 10.6761C532.473 9.77841 532.647 8.99053 532.996 8.3125C533.344 7.63447 533.835 7.10606 534.467 6.72727C535.104 6.34848 535.85 6.15909 536.706 6.15909C537.282 6.15909 537.818 6.25189 538.314 6.4375C538.814 6.61932 539.25 6.89394 539.621 7.26136C539.996 7.62879 540.287 8.09091 540.496 8.64773C540.704 9.20076 540.808 9.84848 540.808 10.5909V11.2557H533.439V9.75568H538.53C538.53 9.4072 538.454 9.09848 538.303 8.82955C538.151 8.56061 537.941 8.35038 537.672 8.19886C537.407 8.04356 537.098 7.96591 536.746 7.96591C536.378 7.96591 536.053 8.05114 535.768 8.22159C535.488 8.38826 535.268 8.61364 535.109 8.89773C534.95 9.17803 534.869 9.49053 534.865 9.83523V11.2614C534.865 11.6932 534.945 12.0663 535.104 12.3807C535.267 12.6951 535.496 12.9375 535.791 13.108C536.087 13.2784 536.437 13.3636 536.842 13.3636C537.111 13.3636 537.357 13.3258 537.581 13.25C537.804 13.1742 537.996 13.0606 538.155 12.9091C538.314 12.7576 538.435 12.572 538.518 12.3523L540.757 12.5C540.643 13.0379 540.411 13.5076 540.058 13.9091C539.71 14.3068 539.259 14.6174 538.706 14.8409C538.157 15.0606 537.522 15.1705 536.803 15.1705ZM542.388 15V6.27273H544.695V7.8125H544.797C544.979 7.30114 545.282 6.89773 545.706 6.60227C546.13 6.30682 546.638 6.15909 547.229 6.15909C547.827 6.15909 548.337 6.30871 548.757 6.60795C549.178 6.90341 549.458 7.30492 549.598 7.8125H549.689C549.867 7.3125 550.189 6.91288 550.655 6.61364C551.125 6.31061 551.679 6.15909 552.32 6.15909C553.134 6.15909 553.795 6.41856 554.303 6.9375C554.814 7.45265 555.07 8.18371 555.07 9.13068V15H552.655V9.60795C552.655 9.12311 552.526 8.75947 552.268 8.51705C552.011 8.27462 551.689 8.15341 551.303 8.15341C550.863 8.15341 550.52 8.29356 550.274 8.57386C550.028 8.85038 549.905 9.21591 549.905 9.67045V15H547.558V9.55682C547.558 9.12879 547.435 8.78788 547.189 8.53409C546.946 8.2803 546.626 8.15341 546.229 8.15341C545.96 8.15341 545.717 8.22159 545.501 8.35795C545.289 8.49053 545.121 8.67803 544.996 8.92045C544.871 9.15909 544.808 9.43939 544.808 9.76136V15H542.388ZM560.925 15.1705C560.042 15.1705 559.279 14.983 558.635 14.608C557.995 14.2292 557.5 13.7027 557.152 13.0284C556.804 12.3504 556.629 11.5644 556.629 10.6705C556.629 9.76894 556.804 8.98106 557.152 8.30682C557.5 7.62879 557.995 7.10227 558.635 6.72727C559.279 6.34848 560.042 6.15909 560.925 6.15909C561.807 6.15909 562.569 6.34848 563.209 6.72727C563.853 7.10227 564.349 7.62879 564.697 8.30682C565.046 8.98106 565.22 9.76894 565.22 10.6705C565.22 11.5644 565.046 12.3504 564.697 13.0284C564.349 13.7027 563.853 14.2292 563.209 14.608C562.569 14.983 561.807 15.1705 560.925 15.1705ZM560.936 13.2955C561.338 13.2955 561.673 13.1818 561.942 12.9545C562.211 12.7235 562.413 12.4091 562.55 12.0114C562.69 11.6136 562.76 11.161 562.76 10.6534C562.76 10.1458 562.69 9.69318 562.55 9.29545C562.413 8.89773 562.211 8.58333 561.942 8.35227C561.673 8.12121 561.338 8.00568 560.936 8.00568C560.531 8.00568 560.19 8.12121 559.913 8.35227C559.641 8.58333 559.434 8.89773 559.294 9.29545C559.158 9.69318 559.089 10.1458 559.089 10.6534C559.089 11.161 559.158 11.6136 559.294 12.0114C559.434 12.4091 559.641 12.7235 559.913 12.9545C560.19 13.1818 560.531 13.2955 560.936 13.2955ZM574.055 8.76136L571.839 8.89773C571.802 8.70833 571.72 8.53788 571.595 8.38636C571.47 8.23106 571.305 8.10795 571.101 8.01705C570.9 7.92235 570.66 7.875 570.379 7.875C570.004 7.875 569.688 7.95455 569.43 8.11364C569.173 8.26894 569.044 8.47727 569.044 8.73864C569.044 8.94697 569.127 9.12311 569.294 9.26705C569.461 9.41098 569.747 9.52652 570.152 9.61364L571.732 9.93182C572.58 10.1061 573.213 10.3864 573.629 10.7727C574.046 11.1591 574.254 11.6667 574.254 12.2955C574.254 12.8674 574.086 13.3693 573.749 13.8011C573.415 14.233 572.957 14.5701 572.374 14.8125C571.794 15.0511 571.125 15.1705 570.368 15.1705C569.213 15.1705 568.292 14.9299 567.607 14.4489C566.925 13.964 566.525 13.3049 566.408 12.4716L568.788 12.3466C568.86 12.6989 569.035 12.9678 569.311 13.1534C569.588 13.3352 569.942 13.4261 570.374 13.4261C570.798 13.4261 571.139 13.3447 571.396 13.1818C571.658 13.0152 571.79 12.8011 571.794 12.5398C571.79 12.3201 571.697 12.1402 571.516 12C571.334 11.8561 571.054 11.7462 570.675 11.6705L569.163 11.3693C568.311 11.1989 567.677 10.9034 567.26 10.483C566.847 10.0625 566.641 9.52652 566.641 8.875C566.641 8.31439 566.792 7.83144 567.095 7.42614C567.402 7.02083 567.832 6.70833 568.385 6.48864C568.942 6.26894 569.593 6.15909 570.339 6.15909C571.442 6.15909 572.309 6.39205 572.942 6.85795C573.578 7.32386 573.949 7.95833 574.055 8.76136ZM586.743 8.76136L584.527 8.89773C584.489 8.70833 584.408 8.53788 584.283 8.38636C584.158 8.23106 583.993 8.10795 583.788 8.01705C583.588 7.92235 583.347 7.875 583.067 7.875C582.692 7.875 582.375 7.95455 582.118 8.11364C581.86 8.26894 581.732 8.47727 581.732 8.73864C581.732 8.94697 581.815 9.12311 581.982 9.26705C582.148 9.41098 582.434 9.52652 582.839 9.61364L584.419 9.93182C585.268 10.1061 585.9 10.3864 586.317 10.7727C586.733 11.1591 586.942 11.6667 586.942 12.2955C586.942 12.8674 586.773 13.3693 586.436 13.8011C586.103 14.233 585.644 14.5701 585.061 14.8125C584.482 15.0511 583.813 15.1705 583.055 15.1705C581.9 15.1705 580.98 14.9299 580.294 14.4489C579.612 13.964 579.213 13.3049 579.095 12.4716L581.476 12.3466C581.548 12.6989 581.722 12.9678 581.999 13.1534C582.275 13.3352 582.629 13.4261 583.061 13.4261C583.485 13.4261 583.826 13.3447 584.084 13.1818C584.345 13.0152 584.478 12.8011 584.482 12.5398C584.478 12.3201 584.385 12.1402 584.203 12C584.021 11.8561 583.741 11.7462 583.362 11.6705L581.851 11.3693C580.999 11.1989 580.364 10.9034 579.947 10.483C579.535 10.0625 579.328 9.52652 579.328 8.875C579.328 8.31439 579.48 7.83144 579.783 7.42614C580.089 7.02083 580.519 6.70833 581.072 6.48864C581.629 6.26894 582.281 6.15909 583.027 6.15909C584.129 6.15909 584.997 6.39205 585.629 6.85795C586.266 7.32386 586.637 7.95833 586.743 8.76136ZM594.062 11.2841V6.27273H596.483V15H594.159V13.4148H594.068C593.871 13.9261 593.544 14.3371 593.085 14.6477C592.631 14.9583 592.076 15.1136 591.42 15.1136C590.837 15.1136 590.324 14.9811 589.881 14.7159C589.438 14.4508 589.091 14.0739 588.841 13.5852C588.595 13.0966 588.47 12.5114 588.466 11.8295V6.27273H590.886V11.3977C590.89 11.9129 591.028 12.3201 591.301 12.6193C591.574 12.9186 591.939 13.0682 592.398 13.0682C592.689 13.0682 592.962 13.0019 593.216 12.8693C593.47 12.733 593.674 12.5322 593.83 12.267C593.989 12.0019 594.066 11.6742 594.062 11.2841ZM600.908 15.1648C600.351 15.1648 599.855 15.0682 599.419 14.875C598.983 14.678 598.639 14.3883 598.385 14.0057C598.135 13.6193 598.01 13.1383 598.01 12.5625C598.01 12.0777 598.099 11.6705 598.277 11.3409C598.455 11.0114 598.697 10.7462 599.004 10.5455C599.311 10.3447 599.66 10.1932 600.05 10.0909C600.444 9.98864 600.857 9.91667 601.288 9.875C601.796 9.82197 602.205 9.77273 602.516 9.72727C602.826 9.67803 603.052 9.60606 603.192 9.51136C603.332 9.41667 603.402 9.27652 603.402 9.09091V9.05682C603.402 8.69697 603.288 8.41856 603.061 8.22159C602.838 8.02462 602.519 7.92614 602.107 7.92614C601.671 7.92614 601.324 8.02273 601.067 8.21591C600.809 8.4053 600.639 8.64394 600.555 8.93182L598.317 8.75C598.43 8.2197 598.654 7.76136 598.987 7.375C599.321 6.98485 599.75 6.68561 600.277 6.47727C600.807 6.26515 601.421 6.15909 602.118 6.15909C602.603 6.15909 603.067 6.21591 603.51 6.32955C603.957 6.44318 604.353 6.61932 604.697 6.85795C605.046 7.09659 605.321 7.40341 605.521 7.77841C605.722 8.14962 605.822 8.5947 605.822 9.11364V15H603.527V13.7898H603.459C603.319 14.0625 603.131 14.303 602.896 14.5114C602.661 14.7159 602.379 14.8769 602.05 14.9943C601.72 15.108 601.339 15.1648 600.908 15.1648ZM601.601 13.4943C601.957 13.4943 602.271 13.4242 602.544 13.2841C602.817 13.1402 603.031 12.947 603.186 12.7045C603.341 12.4621 603.419 12.1875 603.419 11.8807V10.9545C603.343 11.0038 603.239 11.0492 603.107 11.0909C602.978 11.1288 602.832 11.1648 602.669 11.1989C602.506 11.2292 602.343 11.2576 602.18 11.2841C602.018 11.3068 601.87 11.3277 601.737 11.3466C601.453 11.3883 601.205 11.4545 600.993 11.5455C600.781 11.6364 600.616 11.7595 600.499 11.9148C600.381 12.0663 600.322 12.2557 600.322 12.483C600.322 12.8125 600.442 13.0644 600.68 13.2386C600.923 13.4091 601.23 13.4943 601.601 13.4943ZM510.716 37.2727V25.2727H513.102V26.7386H513.21C513.316 26.5038 513.47 26.2652 513.67 26.0227C513.875 25.7765 514.14 25.572 514.466 25.4091C514.795 25.2424 515.205 25.1591 515.693 25.1591C516.33 25.1591 516.917 25.3258 517.455 25.6591C517.992 25.9886 518.422 26.4867 518.744 27.1534C519.066 27.8163 519.227 28.6477 519.227 29.6477C519.227 30.6212 519.07 31.4432 518.756 32.1136C518.445 32.7803 518.021 33.286 517.483 33.6307C516.949 33.9716 516.35 34.142 515.688 34.142C515.218 34.142 514.818 34.0644 514.489 33.9091C514.163 33.7538 513.896 33.5587 513.688 33.3239C513.479 33.0852 513.32 32.8447 513.21 32.6023H513.136V37.2727H510.716ZM513.085 29.6364C513.085 30.1553 513.157 30.608 513.301 30.9943C513.445 31.3807 513.653 31.6818 513.926 31.8977C514.199 32.1098 514.53 32.2159 514.92 32.2159C515.314 32.2159 515.648 32.108 515.92 31.892C516.193 31.6723 516.4 31.3693 516.54 30.983C516.684 30.5928 516.756 30.1439 516.756 29.6364C516.756 29.1326 516.686 28.6894 516.545 28.3068C516.405 27.9242 516.199 27.625 515.926 27.4091C515.653 27.1932 515.318 27.0852 514.92 27.0852C514.527 27.0852 514.193 27.1894 513.92 27.3977C513.652 27.6061 513.445 27.9015 513.301 28.2841C513.157 28.6667 513.085 29.1174 513.085 29.6364ZM520.841 34V25.2727H523.188V26.7955H523.278C523.438 26.2538 523.705 25.8447 524.08 25.5682C524.455 25.2879 524.886 25.1477 525.375 25.1477C525.496 25.1477 525.627 25.1553 525.767 25.1705C525.907 25.1856 526.03 25.2064 526.136 25.233V27.3807C526.023 27.3466 525.866 27.3163 525.665 27.2898C525.464 27.2633 525.28 27.25 525.114 27.25C524.758 27.25 524.439 27.3277 524.159 27.483C523.883 27.6345 523.663 27.8466 523.5 28.1193C523.341 28.392 523.261 28.7064 523.261 29.0625V34H520.841ZM530.925 34.1705C530.042 34.1705 529.279 33.983 528.635 33.608C527.995 33.2292 527.5 32.7027 527.152 32.0284C526.804 31.3504 526.629 30.5644 526.629 29.6705C526.629 28.7689 526.804 27.9811 527.152 27.3068C527.5 26.6288 527.995 26.1023 528.635 25.7273C529.279 25.3485 530.042 25.1591 530.925 25.1591C531.807 25.1591 532.569 25.3485 533.209 25.7273C533.853 26.1023 534.349 26.6288 534.697 27.3068C535.046 27.9811 535.22 28.7689 535.22 29.6705C535.22 30.5644 535.046 31.3504 534.697 32.0284C534.349 32.7027 533.853 33.2292 533.209 33.608C532.569 33.983 531.807 34.1705 530.925 34.1705ZM530.936 32.2955C531.338 32.2955 531.673 32.1818 531.942 31.9545C532.211 31.7235 532.413 31.4091 532.55 31.0114C532.69 30.6136 532.76 30.161 532.76 29.6534C532.76 29.1458 532.69 28.6932 532.55 28.2955C532.413 27.8977 532.211 27.5833 531.942 27.3523C531.673 27.1212 531.338 27.0057 530.936 27.0057C530.531 27.0057 530.19 27.1212 529.913 27.3523C529.641 27.5833 529.434 27.8977 529.294 28.2955C529.158 28.6932 529.089 29.1458 529.089 29.6534C529.089 30.161 529.158 30.6136 529.294 31.0114C529.434 31.4091 529.641 31.7235 529.913 31.9545C530.19 32.1818 530.531 32.2955 530.936 32.2955ZM536.794 37.2727V25.2727H539.18V26.7386H539.288C539.394 26.5038 539.548 26.2652 539.749 26.0227C539.953 25.7765 540.218 25.572 540.544 25.4091C540.874 25.2424 541.283 25.1591 541.771 25.1591C542.408 25.1591 542.995 25.3258 543.533 25.6591C544.071 25.9886 544.5 26.4867 544.822 27.1534C545.144 27.8163 545.305 28.6477 545.305 29.6477C545.305 30.6212 545.148 31.4432 544.834 32.1136C544.523 32.7803 544.099 33.286 543.561 33.6307C543.027 33.9716 542.429 34.142 541.766 34.142C541.296 34.142 540.896 34.0644 540.567 33.9091C540.241 33.7538 539.974 33.5587 539.766 33.3239C539.557 33.0852 539.398 32.8447 539.288 32.6023H539.214V37.2727H536.794ZM539.163 29.6364C539.163 30.1553 539.235 30.608 539.379 30.9943C539.523 31.3807 539.732 31.6818 540.004 31.8977C540.277 32.1098 540.608 32.2159 540.999 32.2159C541.393 32.2159 541.726 32.108 541.999 31.892C542.271 31.6723 542.478 31.3693 542.618 30.983C542.762 30.5928 542.834 30.1439 542.834 29.6364C542.834 29.1326 542.764 28.6894 542.624 28.3068C542.483 27.9242 542.277 27.625 542.004 27.4091C541.732 27.1932 541.396 27.0852 540.999 27.0852C540.605 27.0852 540.271 27.1894 539.999 27.3977C539.73 27.6061 539.523 27.9015 539.379 28.2841C539.235 28.6667 539.163 29.1174 539.163 29.6364ZM550.862 34.1705C549.98 34.1705 549.216 33.983 548.572 33.608C547.932 33.2292 547.438 32.7027 547.089 32.0284C546.741 31.3504 546.567 30.5644 546.567 29.6705C546.567 28.7689 546.741 27.9811 547.089 27.3068C547.438 26.6288 547.932 26.1023 548.572 25.7273C549.216 25.3485 549.98 25.1591 550.862 25.1591C551.745 25.1591 552.506 25.3485 553.146 25.7273C553.79 26.1023 554.286 26.6288 554.635 27.3068C554.983 27.9811 555.158 28.7689 555.158 29.6705C555.158 30.5644 554.983 31.3504 554.635 32.0284C554.286 32.7027 553.79 33.2292 553.146 33.608C552.506 33.983 551.745 34.1705 550.862 34.1705ZM550.874 32.2955C551.275 32.2955 551.61 32.1818 551.879 31.9545C552.148 31.7235 552.351 31.4091 552.487 31.0114C552.627 30.6136 552.697 30.161 552.697 29.6534C552.697 29.1458 552.627 28.6932 552.487 28.2955C552.351 27.8977 552.148 27.5833 551.879 27.3523C551.61 27.1212 551.275 27.0057 550.874 27.0057C550.468 27.0057 550.127 27.1212 549.851 27.3523C549.578 27.5833 549.372 27.8977 549.232 28.2955C549.095 28.6932 549.027 29.1458 549.027 29.6534C549.027 30.161 549.095 30.6136 549.232 31.0114C549.372 31.4091 549.578 31.7235 549.851 31.9545C550.127 32.1818 550.468 32.2955 550.874 32.2955ZM563.993 27.7614L561.777 27.8977C561.739 27.7083 561.658 27.5379 561.533 27.3864C561.408 27.2311 561.243 27.108 561.038 27.017C560.838 26.9223 560.597 26.875 560.317 26.875C559.942 26.875 559.625 26.9545 559.368 27.1136C559.11 27.2689 558.982 27.4773 558.982 27.7386C558.982 27.947 559.065 28.1231 559.232 28.267C559.398 28.411 559.684 28.5265 560.089 28.6136L561.669 28.9318C562.518 29.1061 563.15 29.3864 563.567 29.7727C563.983 30.1591 564.192 30.6667 564.192 31.2955C564.192 31.8674 564.023 32.3693 563.686 32.8011C563.353 33.233 562.894 33.5701 562.311 33.8125C561.732 34.0511 561.063 34.1705 560.305 34.1705C559.15 34.1705 558.23 33.9299 557.544 33.4489C556.862 32.964 556.463 32.3049 556.345 31.4716L558.726 31.3466C558.798 31.6989 558.972 31.9678 559.249 32.1534C559.525 32.3352 559.879 32.4261 560.311 32.4261C560.735 32.4261 561.076 32.3447 561.334 32.1818C561.595 32.0152 561.728 31.8011 561.732 31.5398C561.728 31.3201 561.635 31.1402 561.453 31C561.271 30.8561 560.991 30.7462 560.612 30.6705L559.101 30.3693C558.249 30.1989 557.614 29.9034 557.197 29.483C556.785 29.0625 556.578 28.5265 556.578 27.875C556.578 27.3144 556.73 26.8314 557.033 26.4261C557.339 26.0208 557.769 25.7083 558.322 25.4886C558.879 25.2689 559.531 25.1591 560.277 25.1591C561.379 25.1591 562.247 25.392 562.879 25.858C563.516 26.3239 563.887 26.9583 563.993 27.7614ZM570.358 25.2727V27.0909H565.102V25.2727H570.358ZM566.295 23.1818H568.716V31.3182C568.716 31.5417 568.75 31.7159 568.818 31.8409C568.886 31.9621 568.981 32.0473 569.102 32.0966C569.227 32.1458 569.371 32.1705 569.534 32.1705C569.648 32.1705 569.761 32.161 569.875 32.142C569.989 32.1193 570.076 32.1023 570.136 32.0909L570.517 33.892C570.396 33.9299 570.225 33.9735 570.006 34.0227C569.786 34.0758 569.519 34.108 569.205 34.1193C568.621 34.142 568.11 34.0644 567.67 33.8864C567.235 33.7083 566.896 33.4318 566.653 33.0568C566.411 32.6818 566.292 32.2083 566.295 31.6364V23.1818ZM574.423 34.1648C573.866 34.1648 573.37 34.0682 572.935 33.875C572.499 33.678 572.154 33.3883 571.901 33.0057C571.651 32.6193 571.526 32.1383 571.526 31.5625C571.526 31.0777 571.615 30.6705 571.793 30.3409C571.971 30.0114 572.213 29.7462 572.52 29.5455C572.827 29.3447 573.175 29.1932 573.565 29.0909C573.959 28.9886 574.372 28.9167 574.804 28.875C575.312 28.822 575.721 28.7727 576.031 28.7273C576.342 28.678 576.567 28.6061 576.707 28.5114C576.848 28.4167 576.918 28.2765 576.918 28.0909V28.0568C576.918 27.697 576.804 27.4186 576.577 27.2216C576.353 27.0246 576.035 26.9261 575.622 26.9261C575.187 26.9261 574.84 27.0227 574.582 27.2159C574.325 27.4053 574.154 27.6439 574.071 27.9318L571.832 27.75C571.946 27.2197 572.17 26.7614 572.503 26.375C572.836 25.9848 573.266 25.6856 573.793 25.4773C574.323 25.2652 574.937 25.1591 575.634 25.1591C576.118 25.1591 576.582 25.2159 577.026 25.3295C577.473 25.4432 577.868 25.6193 578.213 25.858C578.562 26.0966 578.836 26.4034 579.037 26.7784C579.238 27.1496 579.338 27.5947 579.338 28.1136V34H577.043V32.7898H576.974C576.834 33.0625 576.647 33.303 576.412 33.5114C576.177 33.7159 575.895 33.8769 575.565 33.9943C575.236 34.108 574.855 34.1648 574.423 34.1648ZM575.116 32.4943C575.473 32.4943 575.787 32.4242 576.06 32.2841C576.332 32.1402 576.546 31.947 576.702 31.7045C576.857 31.4621 576.935 31.1875 576.935 30.8807V29.9545C576.859 30.0038 576.755 30.0492 576.622 30.0909C576.493 30.1288 576.348 30.1648 576.185 30.1989C576.022 30.2292 575.859 30.2576 575.696 30.2841C575.533 30.3068 575.385 30.3277 575.253 30.3466C574.969 30.3883 574.721 30.4545 574.509 30.5455C574.296 30.6364 574.132 30.7595 574.014 30.9148C573.897 31.0663 573.838 31.2557 573.838 31.483C573.838 31.8125 573.957 32.0644 574.196 32.2386C574.438 32.4091 574.745 32.4943 575.116 32.4943Z" fill="white"/>
</svg>
