<svg width="658" height="157" viewBox="0 0 658 157" fill="none" xmlns="http://www.w3.org/2000/svg">
<circle cx="86.5995" cy="125.306" r="31.5995" fill="white"/>
<circle cx="329.6" cy="125.306" r="31.5995" fill="white"/>
<circle cx="571.878" cy="125.306" r="31.5995" fill="white"/>
<path d="M115.5 123.048H214.98L310.318 123.048" stroke="white" stroke-width="9.02844"/>
<path d="M347.5 123.048H446.98L542.318 123.048" stroke="white" stroke-width="9.02844"/>
<path d="M89.995 115.807V135.506H85.8302V119.76H85.7148L81.2038 122.588V118.895L86.0803 115.807H89.995Z" fill="#1D4E89"/>
<path d="M322.65 135.506V132.505L329.662 126.012C330.258 125.435 330.758 124.916 331.162 124.454C331.573 123.993 331.884 123.541 332.095 123.098C332.307 122.649 332.413 122.165 332.413 121.646C332.413 121.069 332.281 120.572 332.018 120.155C331.756 119.732 331.396 119.408 330.941 119.183C330.486 118.953 329.97 118.837 329.393 118.837C328.79 118.837 328.264 118.959 327.815 119.203C327.366 119.446 327.02 119.796 326.776 120.251C326.533 120.706 326.411 121.248 326.411 121.877H322.458C322.458 120.588 322.75 119.469 323.333 118.52C323.917 117.571 324.734 116.837 325.786 116.317C326.837 115.798 328.049 115.538 329.421 115.538C330.832 115.538 332.06 115.788 333.105 116.288C334.157 116.782 334.974 117.468 335.558 118.347C336.141 119.225 336.433 120.232 336.433 121.367C336.433 122.111 336.286 122.845 335.991 123.569C335.702 124.294 335.186 125.099 334.442 125.984C333.698 126.862 332.65 127.917 331.297 129.148L328.421 131.966V132.101H336.693V135.506H322.65Z" fill="#1D4E89"/>
<path d="M571.728 135.518C570.291 135.518 569.012 135.271 567.89 134.777C566.774 134.277 565.892 133.591 565.245 132.719C564.604 131.841 564.273 130.827 564.254 129.68H568.448C568.473 130.161 568.63 130.584 568.919 130.949C569.214 131.308 569.605 131.587 570.092 131.786C570.58 131.985 571.128 132.084 571.737 132.084C572.372 132.084 572.933 131.972 573.42 131.748C573.908 131.523 574.289 131.212 574.565 130.815C574.841 130.417 574.979 129.959 574.979 129.439C574.979 128.913 574.831 128.448 574.536 128.044C574.248 127.634 573.831 127.314 573.286 127.083C572.747 126.852 572.106 126.736 571.362 126.736H569.525V123.678H571.362C571.991 123.678 572.545 123.569 573.026 123.351C573.513 123.133 573.892 122.831 574.161 122.447C574.43 122.055 574.565 121.6 574.565 121.081C574.565 120.587 574.446 120.154 574.209 119.782C573.978 119.404 573.651 119.109 573.228 118.897C572.811 118.686 572.324 118.58 571.766 118.58C571.202 118.58 570.686 118.683 570.218 118.888C569.749 119.087 569.374 119.372 569.092 119.744C568.81 120.116 568.659 120.552 568.64 121.052H564.648C564.668 119.917 564.992 118.917 565.62 118.051C566.248 117.185 567.095 116.509 568.159 116.022C569.23 115.528 570.439 115.281 571.785 115.281C573.145 115.281 574.334 115.528 575.354 116.022C576.373 116.515 577.165 117.182 577.729 118.022C578.3 118.856 578.582 119.792 578.576 120.831C578.582 121.934 578.239 122.854 577.547 123.591C576.861 124.329 575.966 124.797 574.863 124.995V125.149C576.312 125.335 577.415 125.839 578.172 126.659C578.935 127.474 579.313 128.493 579.307 129.718C579.313 130.84 578.989 131.837 578.335 132.709C577.688 133.581 576.793 134.268 575.652 134.768C574.511 135.268 573.202 135.518 571.728 135.518Z" fill="#1D4E89"/>
<path d="M2.14205 23V5.54545H13.9034V8.58807H5.83239V12.7472H13.2983V15.7898H5.83239V19.9574H13.9375V23H2.14205ZM20.3999 15.4318V23H16.7692V9.90909H20.2294V12.2188H20.3828C20.6726 11.4574 21.1584 10.8551 21.8402 10.4119C22.522 9.96307 23.3487 9.73864 24.3203 9.73864C25.2294 9.73864 26.022 9.9375 26.6982 10.3352C27.3743 10.733 27.8999 11.3011 28.2749 12.0398C28.6499 12.7727 28.8374 13.6477 28.8374 14.6648V23H25.2067V15.3125C25.2124 14.5114 25.0078 13.8864 24.593 13.4375C24.1783 12.983 23.6072 12.7557 22.88 12.7557C22.3913 12.7557 21.9595 12.8608 21.5845 13.071C21.2152 13.2812 20.9254 13.5881 20.7152 13.9915C20.5107 14.3892 20.4055 14.8693 20.3999 15.4318ZM38.6619 9.90909V12.6364H30.7784V9.90909H38.6619ZM32.5682 6.77273H36.1989V18.9773C36.1989 19.3125 36.25 19.5739 36.3523 19.7614C36.4545 19.9432 36.5966 20.071 36.7784 20.1449C36.9659 20.2187 37.1818 20.2557 37.4261 20.2557C37.5966 20.2557 37.767 20.2415 37.9375 20.2131C38.108 20.179 38.2386 20.1534 38.3295 20.1364L38.9006 22.8381C38.7188 22.8949 38.4631 22.9602 38.1335 23.0341C37.804 23.1136 37.4034 23.1619 36.9318 23.179C36.0568 23.2131 35.2898 23.0966 34.6307 22.8295C33.9773 22.5625 33.4688 22.1477 33.1051 21.5852C32.7415 21.0227 32.5625 20.3125 32.5682 19.4545V6.77273ZM41.027 23V9.90909H44.5469V12.1932H44.6832C44.9219 11.3807 45.3224 10.767 45.8849 10.3523C46.4474 9.93182 47.0952 9.72159 47.8281 9.72159C48.0099 9.72159 48.206 9.73295 48.4162 9.75568C48.6264 9.77841 48.8111 9.80966 48.9702 9.84943V13.071C48.7997 13.0199 48.5639 12.9744 48.2628 12.9347C47.9616 12.8949 47.6861 12.875 47.4361 12.875C46.902 12.875 46.4247 12.9915 46.0043 13.2244C45.5895 13.4517 45.2599 13.7699 45.0156 14.179C44.777 14.5881 44.6577 15.0597 44.6577 15.5938V23H41.027ZM54.2053 23.2472C53.37 23.2472 52.6257 23.1023 51.9723 22.8125C51.3189 22.517 50.8018 22.0824 50.4212 21.5085C50.0462 20.929 49.8587 20.2074 49.8587 19.3438C49.8587 18.6165 49.9922 18.0057 50.2592 17.5114C50.5263 17.017 50.8899 16.6193 51.3501 16.3182C51.8104 16.017 52.3331 15.7898 52.9183 15.6364C53.5092 15.483 54.1286 15.375 54.7763 15.3125C55.5376 15.233 56.1513 15.1591 56.6172 15.0909C57.0831 15.017 57.4212 14.9091 57.6314 14.767C57.8416 14.625 57.9467 14.4148 57.9467 14.1364V14.0852C57.9467 13.5455 57.7763 13.1278 57.4354 12.8324C57.1001 12.5369 56.6229 12.3892 56.0036 12.3892C55.3501 12.3892 54.8303 12.5341 54.4439 12.8239C54.0575 13.108 53.8018 13.4659 53.6768 13.8977L50.3189 13.625C50.4893 12.8295 50.8246 12.142 51.3246 11.5625C51.8246 10.9773 52.4695 10.5284 53.2592 10.2159C54.0547 9.89773 54.9751 9.73864 56.0206 9.73864C56.7479 9.73864 57.4439 9.82386 58.1087 9.99432C58.7791 10.1648 59.3729 10.429 59.8899 10.7869C60.4126 11.1449 60.8246 11.6051 61.1257 12.1676C61.4268 12.7244 61.5774 13.392 61.5774 14.1705V23H58.1342V21.1847H58.032C57.8217 21.5938 57.5405 21.9545 57.1882 22.267C56.8359 22.5739 56.4126 22.8153 55.9183 22.9915C55.424 23.1619 54.853 23.2472 54.2053 23.2472ZM55.245 20.7415C55.7791 20.7415 56.2507 20.6364 56.6598 20.4261C57.0689 20.2102 57.3899 19.9205 57.6229 19.5568C57.8558 19.1932 57.9723 18.7812 57.9723 18.321V16.9318C57.8587 17.0057 57.7024 17.0739 57.5036 17.1364C57.3104 17.1932 57.0916 17.2472 56.8473 17.2983C56.603 17.3437 56.3587 17.3864 56.1143 17.4261C55.87 17.4602 55.6484 17.4915 55.4496 17.5199C55.0234 17.5824 54.6513 17.6818 54.3331 17.8182C54.0149 17.9545 53.7678 18.1392 53.5916 18.3722C53.4155 18.5994 53.3274 18.8835 53.3274 19.2244C53.3274 19.7188 53.5064 20.0966 53.8643 20.358C54.228 20.6136 54.6882 20.7415 55.245 20.7415ZM64.3942 23V9.90909H67.9141V12.1932H68.0504C68.2891 11.3807 68.6896 10.767 69.2521 10.3523C69.8146 9.93182 70.4624 9.72159 71.1953 9.72159C71.3771 9.72159 71.5732 9.73295 71.7834 9.75568C71.9936 9.77841 72.1783 9.80966 72.3374 9.84943V13.071C72.1669 13.0199 71.9311 12.9744 71.63 12.9347C71.3288 12.8949 71.0533 12.875 70.8033 12.875C70.2692 12.875 69.7919 12.9915 69.3714 13.2244C68.9567 13.4517 68.6271 13.7699 68.3828 14.179C68.1442 14.5881 68.0249 15.0597 68.0249 15.5938V23H64.3942ZM79.571 23.2557C78.2244 23.2557 77.0653 22.983 76.0938 22.4375C75.1278 21.8864 74.3835 21.108 73.8608 20.1023C73.3381 19.0909 73.0767 17.8949 73.0767 16.5142C73.0767 15.1676 73.3381 13.9858 73.8608 12.9688C74.3835 11.9517 75.1193 11.1591 76.0682 10.5909C77.0227 10.0227 78.142 9.73864 79.4261 9.73864C80.2898 9.73864 81.0938 9.87784 81.8381 10.1562C82.5881 10.429 83.2415 10.8409 83.7983 11.392C84.3608 11.9432 84.7983 12.6364 85.1108 13.4716C85.4233 14.3011 85.5795 15.2727 85.5795 16.3864V17.3835H74.5256V15.1335H82.1619C82.1619 14.6108 82.0483 14.1477 81.821 13.7443C81.5938 13.3409 81.2784 13.0256 80.875 12.7983C80.4773 12.5653 80.0142 12.4489 79.4858 12.4489C78.9347 12.4489 78.446 12.5767 78.0199 12.8324C77.5994 13.0824 77.2699 13.4205 77.0312 13.8466C76.7926 14.267 76.6705 14.7358 76.6648 15.2528V17.392C76.6648 18.0398 76.7841 18.5994 77.0227 19.071C77.267 19.5426 77.6108 19.9062 78.054 20.1619C78.4972 20.4176 79.0227 20.5455 79.6307 20.5455C80.0341 20.5455 80.4034 20.4886 80.7386 20.375C81.0739 20.2614 81.3608 20.0909 81.5994 19.8636C81.8381 19.6364 82.0199 19.358 82.1449 19.0284L85.5028 19.25C85.3324 20.0568 84.983 20.7614 84.4545 21.3636C83.9318 21.9602 83.2557 22.4261 82.4261 22.7614C81.6023 23.0909 80.6506 23.2557 79.571 23.2557ZM87.9489 23V9.90909H91.4091V12.2188H91.5625C91.8352 11.4517 92.2898 10.8466 92.9261 10.4034C93.5625 9.96023 94.3239 9.73864 95.2102 9.73864C96.108 9.73864 96.8722 9.96307 97.5028 10.4119C98.1335 10.8551 98.554 11.4574 98.7642 12.2188H98.9006C99.1676 11.4688 99.6506 10.8693 100.349 10.4205C101.054 9.96591 101.886 9.73864 102.847 9.73864C104.068 9.73864 105.06 10.1278 105.821 10.9062C106.588 11.679 106.972 12.7756 106.972 14.196V23H103.349V14.9119C103.349 14.1847 103.156 13.6392 102.77 13.2756C102.384 12.9119 101.901 12.7301 101.321 12.7301C100.662 12.7301 100.148 12.9403 99.7784 13.3608C99.4091 13.7756 99.2244 14.3239 99.2244 15.0057V23H95.7045V14.8352C95.7045 14.1932 95.5199 13.6818 95.1506 13.3011C94.7869 12.9205 94.3068 12.7301 93.7102 12.7301C93.3068 12.7301 92.9432 12.8324 92.6193 13.0369C92.3011 13.2358 92.0483 13.517 91.8608 13.8807C91.6733 14.2386 91.5795 14.6591 91.5795 15.142V23H87.9489ZM115.754 23.2557C114.43 23.2557 113.286 22.9744 112.32 22.4119C111.359 21.8437 110.618 21.054 110.095 20.0426C109.572 19.0256 109.311 17.8466 109.311 16.5057C109.311 15.1534 109.572 13.9716 110.095 12.9602C110.618 11.9432 111.359 11.1534 112.32 10.5909C113.286 10.0227 114.43 9.73864 115.754 9.73864C117.078 9.73864 118.22 10.0227 119.18 10.5909C120.146 11.1534 120.891 11.9432 121.413 12.9602C121.936 13.9716 122.197 15.1534 122.197 16.5057C122.197 17.8466 121.936 19.0256 121.413 20.0426C120.891 21.054 120.146 21.8437 119.18 22.4119C118.22 22.9744 117.078 23.2557 115.754 23.2557ZM115.771 20.4432C116.374 20.4432 116.876 20.2727 117.28 19.9318C117.683 19.5852 117.987 19.1136 118.192 18.517C118.402 17.9205 118.507 17.2415 118.507 16.4801C118.507 15.7188 118.402 15.0398 118.192 14.4432C117.987 13.8466 117.683 13.375 117.28 13.0284C116.876 12.6818 116.374 12.5085 115.771 12.5085C115.163 12.5085 114.652 12.6818 114.237 13.0284C113.828 13.375 113.518 13.8466 113.308 14.4432C113.104 15.0398 113.001 15.7188 113.001 16.4801C113.001 17.2415 113.104 17.9205 113.308 18.517C113.518 19.1136 113.828 19.5852 114.237 19.9318C114.652 20.2727 115.163 20.4432 115.771 20.4432ZM135.45 13.642L132.126 13.8466C132.07 13.5625 131.947 13.3068 131.76 13.0795C131.572 12.8466 131.325 12.6619 131.018 12.5256C130.717 12.3835 130.357 12.3125 129.936 12.3125C129.374 12.3125 128.899 12.4318 128.513 12.6705C128.126 12.9034 127.933 13.2159 127.933 13.608C127.933 13.9205 128.058 14.1847 128.308 14.4006C128.558 14.6165 128.987 14.7898 129.595 14.9205L131.964 15.3977C133.237 15.6591 134.186 16.0795 134.811 16.6591C135.436 17.2386 135.749 18 135.749 18.9432C135.749 19.8011 135.496 20.554 134.99 21.2017C134.49 21.8494 133.803 22.3551 132.928 22.7188C132.058 23.0767 131.055 23.2557 129.919 23.2557C128.186 23.2557 126.805 22.8949 125.777 22.1733C124.754 21.446 124.155 20.4574 123.979 19.2074L127.55 19.0199C127.658 19.5483 127.919 19.9517 128.334 20.2301C128.749 20.5028 129.28 20.6392 129.928 20.6392C130.564 20.6392 131.075 20.517 131.462 20.2727C131.854 20.0227 132.053 19.7017 132.058 19.3097C132.053 18.9801 131.913 18.7102 131.641 18.5C131.368 18.2841 130.947 18.1193 130.379 18.0057L128.112 17.554C126.834 17.2983 125.882 16.8551 125.257 16.2244C124.638 15.5937 124.328 14.7898 124.328 13.8125C124.328 12.9716 124.555 12.2472 125.01 11.6392C125.47 11.0312 126.115 10.5625 126.945 10.233C127.78 9.90341 128.757 9.73864 129.876 9.73864C131.53 9.73864 132.831 10.0881 133.78 10.7869C134.734 11.4858 135.291 12.4375 135.45 13.642ZM149.555 23.2557C148.209 23.2557 147.05 22.983 146.078 22.4375C145.112 21.8864 144.368 21.108 143.845 20.1023C143.322 19.0909 143.061 17.8949 143.061 16.5142C143.061 15.1676 143.322 13.9858 143.845 12.9688C144.368 11.9517 145.104 11.1591 146.053 10.5909C147.007 10.0227 148.126 9.73864 149.411 9.73864C150.274 9.73864 151.078 9.87784 151.822 10.1562C152.572 10.429 153.226 10.8409 153.783 11.392C154.345 11.9432 154.783 12.6364 155.095 13.4716C155.408 14.3011 155.564 15.2727 155.564 16.3864V17.3835H144.51V15.1335H152.146C152.146 14.6108 152.033 14.1477 151.805 13.7443C151.578 13.3409 151.263 13.0256 150.859 12.7983C150.462 12.5653 149.999 12.4489 149.47 12.4489C148.919 12.4489 148.43 12.5767 148.004 12.8324C147.584 13.0824 147.254 13.4205 147.016 13.8466C146.777 14.267 146.655 14.7358 146.649 15.2528V17.392C146.649 18.0398 146.768 18.5994 147.007 19.071C147.251 19.5426 147.595 19.9062 148.038 20.1619C148.482 20.4176 149.007 20.5455 149.615 20.5455C150.018 20.5455 150.388 20.4886 150.723 20.375C151.058 20.2614 151.345 20.0909 151.584 19.8636C151.822 19.6364 152.004 19.358 152.129 19.0284L155.487 19.25C155.317 20.0568 154.967 20.7614 154.439 21.3636C153.916 21.9602 153.24 22.4261 152.411 22.7614C151.587 23.0909 150.635 23.2557 149.555 23.2557ZM157.933 23V9.90909H161.393V12.2188H161.547C161.82 11.4517 162.274 10.8466 162.911 10.4034C163.547 9.96023 164.308 9.73864 165.195 9.73864C166.092 9.73864 166.857 9.96307 167.487 10.4119C168.118 10.8551 168.538 11.4574 168.749 12.2188H168.885C169.152 11.4688 169.635 10.8693 170.334 10.4205C171.038 9.96591 171.871 9.73864 172.831 9.73864C174.053 9.73864 175.044 10.1278 175.805 10.9062C176.572 11.679 176.956 12.7756 176.956 14.196V23H173.334V14.9119C173.334 14.1847 173.141 13.6392 172.754 13.2756C172.368 12.9119 171.885 12.7301 171.305 12.7301C170.646 12.7301 170.132 12.9403 169.763 13.3608C169.393 13.7756 169.209 14.3239 169.209 15.0057V23H165.689V14.8352C165.689 14.1932 165.504 13.6818 165.135 13.3011C164.771 12.9205 164.291 12.7301 163.695 12.7301C163.291 12.7301 162.928 12.8324 162.604 13.0369C162.286 13.2358 162.033 13.517 161.845 13.8807C161.658 14.2386 161.564 14.6591 161.564 15.142V23H157.933ZM51.4183 52.2557C50.0774 52.2557 48.924 51.9716 47.9581 51.4034C46.9979 50.8295 46.2592 50.0341 45.7422 49.017C45.2308 48 44.9751 46.8295 44.9751 45.5057C44.9751 44.1648 45.2337 42.9886 45.7507 41.9773C46.2734 40.9602 47.0149 40.1676 47.9751 39.5994C48.9354 39.0256 50.0774 38.7386 51.4013 38.7386C52.5433 38.7386 53.5433 38.946 54.4013 39.3608C55.2592 39.7756 55.9382 40.358 56.4382 41.108C56.9382 41.858 57.2138 42.7386 57.2649 43.75H53.8388C53.7422 43.0966 53.4865 42.571 53.0717 42.1733C52.6626 41.7699 52.1257 41.5682 51.4609 41.5682C50.8984 41.5682 50.407 41.7216 49.9865 42.0284C49.5717 42.3295 49.2479 42.7699 49.0149 43.3494C48.782 43.929 48.6655 44.6307 48.6655 45.4545C48.6655 46.2898 48.7791 47 49.0064 47.5852C49.2393 48.1705 49.5661 48.6165 49.9865 48.9233C50.407 49.2301 50.8984 49.3835 51.4609 49.3835C51.8757 49.3835 52.2479 49.2983 52.5774 49.1278C52.9126 48.9574 53.1882 48.7102 53.4041 48.3864C53.6257 48.0568 53.7706 47.6619 53.8388 47.2017H57.2649C57.2081 48.2017 56.9354 49.0824 56.4467 49.8438C55.9638 50.5994 55.2962 51.1903 54.4439 51.6165C53.5916 52.0426 52.5831 52.2557 51.4183 52.2557ZM65.5043 52.2557C64.1804 52.2557 63.0355 51.9744 62.0696 51.4119C61.1094 50.8437 60.3679 50.054 59.8452 49.0426C59.3224 48.0256 59.0611 46.8466 59.0611 45.5057C59.0611 44.1534 59.3224 42.9716 59.8452 41.9602C60.3679 40.9432 61.1094 40.1534 62.0696 39.5909C63.0355 39.0227 64.1804 38.7386 65.5043 38.7386C66.8281 38.7386 67.9702 39.0227 68.9304 39.5909C69.8963 40.1534 70.6406 40.9432 71.1634 41.9602C71.6861 42.9716 71.9474 44.1534 71.9474 45.5057C71.9474 46.8466 71.6861 48.0256 71.1634 49.0426C70.6406 50.054 69.8963 50.8437 68.9304 51.4119C67.9702 51.9744 66.8281 52.2557 65.5043 52.2557ZM65.5213 49.4432C66.1236 49.4432 66.6264 49.2727 67.0298 48.9318C67.4332 48.5852 67.7372 48.1136 67.9418 47.517C68.152 46.9205 68.2571 46.2415 68.2571 45.4801C68.2571 44.7188 68.152 44.0398 67.9418 43.4432C67.7372 42.8466 67.4332 42.375 67.0298 42.0284C66.6264 41.6818 66.1236 41.5085 65.5213 41.5085C64.9134 41.5085 64.402 41.6818 63.9872 42.0284C63.5781 42.375 63.2685 42.8466 63.0582 43.4432C62.8537 44.0398 62.7514 44.7188 62.7514 45.4801C62.7514 46.2415 62.8537 46.9205 63.0582 47.517C63.2685 48.1136 63.5781 48.5852 63.9872 48.9318C64.402 49.2727 64.9134 49.4432 65.5213 49.4432ZM77.9389 44.4318V52H74.3082V38.9091H77.7685V41.2188H77.9219C78.2116 40.4574 78.6974 39.8551 79.3793 39.4119C80.0611 38.9631 80.8878 38.7386 81.8594 38.7386C82.7685 38.7386 83.5611 38.9375 84.2372 39.3352C84.9134 39.733 85.4389 40.3011 85.8139 41.0398C86.1889 41.7727 86.3764 42.6477 86.3764 43.6648V52H82.7457V44.3125C82.7514 43.5114 82.5469 42.8864 82.1321 42.4375C81.7173 41.983 81.1463 41.7557 80.419 41.7557C79.9304 41.7557 79.4986 41.8608 79.1236 42.071C78.7543 42.2812 78.4645 42.5881 78.2543 42.9915C78.0497 43.3892 77.9446 43.8693 77.9389 44.4318ZM96.201 38.9091V41.6364H88.3175V38.9091H96.201ZM90.1072 35.7727H93.7379V47.9773C93.7379 48.3125 93.7891 48.5739 93.8913 48.7614C93.9936 48.9432 94.1357 49.071 94.3175 49.1449C94.505 49.2187 94.7209 49.2557 94.9652 49.2557C95.1357 49.2557 95.3061 49.2415 95.4766 49.2131C95.647 49.179 95.7777 49.1534 95.8686 49.1364L96.4396 51.8381C96.2578 51.8949 96.0021 51.9602 95.6726 52.0341C95.343 52.1136 94.9425 52.1619 94.4709 52.179C93.5959 52.2131 92.8288 52.0966 92.1697 51.8295C91.5163 51.5625 91.0078 51.1477 90.6442 50.5852C90.2805 50.0227 90.1016 49.3125 90.1072 48.4545V35.7727ZM102.299 52.2472C101.464 52.2472 100.719 52.1023 100.066 51.8125C99.4126 51.517 98.8956 51.0824 98.5149 50.5085C98.1399 49.929 97.9524 49.2074 97.9524 48.3438C97.9524 47.6165 98.0859 47.0057 98.353 46.5114C98.62 46.017 98.9837 45.6193 99.4439 45.3182C99.9041 45.017 100.427 44.7898 101.012 44.6364C101.603 44.483 102.222 44.375 102.87 44.3125C103.631 44.233 104.245 44.1591 104.711 44.0909C105.177 44.017 105.515 43.9091 105.725 43.767C105.935 43.625 106.04 43.4148 106.04 43.1364V43.0852C106.04 42.5455 105.87 42.1278 105.529 41.8324C105.194 41.5369 104.717 41.3892 104.097 41.3892C103.444 41.3892 102.924 41.5341 102.538 41.8239C102.151 42.108 101.896 42.4659 101.771 42.8977L98.4126 42.625C98.5831 41.8295 98.9183 41.142 99.4183 40.5625C99.9183 39.9773 100.563 39.5284 101.353 39.2159C102.148 38.8977 103.069 38.7386 104.114 38.7386C104.842 38.7386 105.538 38.8239 106.202 38.9943C106.873 39.1648 107.467 39.429 107.984 39.7869C108.506 40.1449 108.918 40.6051 109.219 41.1676C109.521 41.7244 109.671 42.392 109.671 43.1705V52H106.228V50.1847H106.126C105.915 50.5938 105.634 50.9545 105.282 51.267C104.93 51.5739 104.506 51.8153 104.012 51.9915C103.518 52.1619 102.947 52.2472 102.299 52.2472ZM103.339 49.7415C103.873 49.7415 104.344 49.6364 104.754 49.4261C105.163 49.2102 105.484 48.9205 105.717 48.5568C105.95 48.1932 106.066 47.7812 106.066 47.321V45.9318C105.952 46.0057 105.796 46.0739 105.597 46.1364C105.404 46.1932 105.185 46.2472 104.941 46.2983C104.697 46.3437 104.452 46.3864 104.208 46.4261C103.964 46.4602 103.742 46.4915 103.543 46.5199C103.117 46.5824 102.745 46.6818 102.427 46.8182C102.109 46.9545 101.862 47.1392 101.685 47.3722C101.509 47.5994 101.421 47.8835 101.421 48.2244C101.421 48.7188 101.6 49.0966 101.958 49.358C102.322 49.6136 102.782 49.7415 103.339 49.7415ZM119.451 38.9091V41.6364H111.567V38.9091H119.451ZM113.357 35.7727H116.988V47.9773C116.988 48.3125 117.039 48.5739 117.141 48.7614C117.244 48.9432 117.386 49.071 117.567 49.1449C117.755 49.2187 117.971 49.2557 118.215 49.2557C118.386 49.2557 118.556 49.2415 118.727 49.2131C118.897 49.179 119.028 49.1534 119.119 49.1364L119.69 51.8381C119.508 51.8949 119.252 51.9602 118.923 52.0341C118.593 52.1136 118.192 52.1619 117.721 52.179C116.846 52.2131 116.079 52.0966 115.42 51.8295C114.766 51.5625 114.258 51.1477 113.894 50.5852C113.531 50.0227 113.352 49.3125 113.357 48.4545V35.7727ZM127.59 52.2557C126.266 52.2557 125.121 51.9744 124.156 51.4119C123.195 50.8437 122.454 50.054 121.931 49.0426C121.408 48.0256 121.147 46.8466 121.147 45.5057C121.147 44.1534 121.408 42.9716 121.931 41.9602C122.454 40.9432 123.195 40.1534 124.156 39.5909C125.121 39.0227 126.266 38.7386 127.59 38.7386C128.914 38.7386 130.056 39.0227 131.016 39.5909C131.982 40.1534 132.727 40.9432 133.249 41.9602C133.772 42.9716 134.033 44.1534 134.033 45.5057C134.033 46.8466 133.772 48.0256 133.249 49.0426C132.727 50.054 131.982 50.8437 131.016 51.4119C130.056 51.9744 128.914 52.2557 127.59 52.2557ZM127.607 49.4432C128.21 49.4432 128.712 49.2727 129.116 48.9318C129.519 48.5852 129.823 48.1136 130.028 47.517C130.238 46.9205 130.343 46.2415 130.343 45.4801C130.343 44.7188 130.238 44.0398 130.028 43.4432C129.823 42.8466 129.519 42.375 129.116 42.0284C128.712 41.6818 128.21 41.5085 127.607 41.5085C126.999 41.5085 126.488 41.6818 126.073 42.0284C125.664 42.375 125.354 42.8466 125.144 43.4432C124.94 44.0398 124.837 44.7188 124.837 45.4801C124.837 46.2415 124.94 46.9205 125.144 47.517C125.354 48.1136 125.664 48.5852 126.073 48.9318C126.488 49.2727 126.999 49.4432 127.607 49.4432Z" fill="white"/>
<path d="M202.931 24V6.54545H214.692V9.58807H206.621V13.7472H214.087V16.7898H206.621V20.9574H214.727V24H202.931ZM221.189 16.4318V24H217.558V10.9091H221.018V13.2188H221.172C221.462 12.4574 221.947 11.8551 222.629 11.4119C223.311 10.9631 224.138 10.7386 225.109 10.7386C226.018 10.7386 226.811 10.9375 227.487 11.3352C228.163 11.733 228.689 12.3011 229.064 13.0398C229.439 13.7727 229.626 14.6477 229.626 15.6648V24H225.996V16.3125C226.001 15.5114 225.797 14.8864 225.382 14.4375C224.967 13.983 224.396 13.7557 223.669 13.7557C223.18 13.7557 222.749 13.8608 222.374 14.071C222.004 14.2812 221.714 14.5881 221.504 14.9915C221.3 15.3892 221.195 15.8693 221.189 16.4318ZM239.451 10.9091V13.6364H231.567V10.9091H239.451ZM233.357 7.77273H236.988V19.9773C236.988 20.3125 237.039 20.5739 237.141 20.7614C237.244 20.9432 237.386 21.071 237.567 21.1449C237.755 21.2187 237.971 21.2557 238.215 21.2557C238.386 21.2557 238.556 21.2415 238.727 21.2131C238.897 21.179 239.028 21.1534 239.119 21.1364L239.69 23.8381C239.508 23.8949 239.252 23.9602 238.923 24.0341C238.593 24.1136 238.192 24.1619 237.721 24.179C236.846 24.2131 236.079 24.0966 235.42 23.8295C234.766 23.5625 234.258 23.1477 233.894 22.5852C233.531 22.0227 233.352 21.3125 233.357 20.4545V7.77273ZM247.641 24.2557C246.295 24.2557 245.136 23.983 244.164 23.4375C243.198 22.8864 242.454 22.108 241.931 21.1023C241.408 20.0909 241.147 18.8949 241.147 17.5142C241.147 16.1676 241.408 14.9858 241.931 13.9688C242.454 12.9517 243.19 12.1591 244.138 11.5909C245.093 11.0227 246.212 10.7386 247.496 10.7386C248.36 10.7386 249.164 10.8778 249.908 11.1562C250.658 11.429 251.312 11.8409 251.869 12.392C252.431 12.9432 252.869 13.6364 253.181 14.4716C253.494 15.3011 253.65 16.2727 253.65 17.3864V18.3835H242.596V16.1335H250.232C250.232 15.6108 250.119 15.1477 249.891 14.7443C249.664 14.3409 249.349 14.0256 248.945 13.7983C248.548 13.5653 248.085 13.4489 247.556 13.4489C247.005 13.4489 246.516 13.5767 246.09 13.8324C245.67 14.0824 245.34 14.4205 245.102 14.8466C244.863 15.267 244.741 15.7358 244.735 16.2528V18.392C244.735 19.0398 244.854 19.5994 245.093 20.071C245.337 20.5426 245.681 20.9062 246.124 21.1619C246.567 21.4176 247.093 21.5455 247.701 21.5455C248.104 21.5455 248.474 21.4886 248.809 21.375C249.144 21.2614 249.431 21.0909 249.67 20.8636C249.908 20.6364 250.09 20.358 250.215 20.0284L253.573 20.25C253.403 21.0568 253.053 21.7614 252.525 22.3636C252.002 22.9602 251.326 23.4261 250.496 23.7614C249.673 24.0909 248.721 24.2557 247.641 24.2557ZM259.65 16.4318V24H256.019V10.9091H259.479V13.2188H259.633C259.923 12.4574 260.408 11.8551 261.09 11.4119C261.772 10.9631 262.599 10.7386 263.57 10.7386C264.479 10.7386 265.272 10.9375 265.948 11.3352C266.624 11.733 267.15 12.3011 267.525 13.0398C267.9 13.7727 268.087 14.6477 268.087 15.6648V24H264.457V16.3125C264.462 15.5114 264.258 14.8864 263.843 14.4375C263.428 13.983 262.857 13.7557 262.13 13.7557C261.641 13.7557 261.21 13.8608 260.835 14.071C260.465 14.2812 260.175 14.5881 259.965 14.9915C259.761 15.3892 259.656 15.8693 259.65 16.4318ZM275.773 24.2131C274.778 24.2131 273.878 23.9574 273.071 23.446C272.27 22.929 271.634 22.1705 271.162 21.1705C270.696 20.1648 270.463 18.9318 270.463 17.4716C270.463 15.9716 270.705 14.7244 271.188 13.7301C271.67 12.7301 272.313 11.983 273.114 11.4886C273.92 10.9886 274.804 10.7386 275.764 10.7386C276.497 10.7386 277.108 10.8636 277.597 11.1136C278.091 11.358 278.489 11.6648 278.79 12.0341C279.097 12.3977 279.33 12.7557 279.489 13.108H279.599V6.54545H283.222V24H279.642V21.9034H279.489C279.318 22.267 279.077 22.6278 278.764 22.9858C278.457 23.3381 278.057 23.6307 277.562 23.8636C277.074 24.0966 276.477 24.2131 275.773 24.2131ZM276.923 21.3239C277.509 21.3239 278.003 21.1648 278.406 20.8466C278.815 20.5227 279.128 20.071 279.344 19.4915C279.565 18.9119 279.676 18.233 279.676 17.4545C279.676 16.6761 279.568 16 279.352 15.4261C279.136 14.8523 278.824 14.4091 278.415 14.0966C278.006 13.7841 277.509 13.6278 276.923 13.6278C276.327 13.6278 275.824 13.7898 275.415 14.1136C275.006 14.4375 274.696 14.8864 274.486 15.4602C274.276 16.0341 274.17 16.6989 274.17 17.4545C274.17 18.2159 274.276 18.8892 274.486 19.4744C274.702 20.054 275.011 20.5085 275.415 20.8381C275.824 21.1619 276.327 21.3239 276.923 21.3239ZM292.173 24.2557C290.826 24.2557 289.667 23.983 288.695 23.4375C287.729 22.8864 286.985 22.108 286.462 21.1023C285.94 20.0909 285.678 18.8949 285.678 17.5142C285.678 16.1676 285.94 14.9858 286.462 13.9688C286.985 12.9517 287.721 12.1591 288.67 11.5909C289.624 11.0227 290.744 10.7386 292.028 10.7386C292.891 10.7386 293.695 10.8778 294.44 11.1562C295.19 11.429 295.843 11.8409 296.4 12.392C296.962 12.9432 297.4 13.6364 297.712 14.4716C298.025 15.3011 298.181 16.2727 298.181 17.3864V18.3835H287.127V16.1335H294.763C294.763 15.6108 294.65 15.1477 294.423 14.7443C294.195 14.3409 293.88 14.0256 293.477 13.7983C293.079 13.5653 292.616 13.4489 292.087 13.4489C291.536 13.4489 291.048 13.5767 290.621 13.8324C290.201 14.0824 289.871 14.4205 289.633 14.8466C289.394 15.267 289.272 15.7358 289.266 16.2528V18.392C289.266 19.0398 289.386 19.5994 289.624 20.071C289.869 20.5426 290.212 20.9062 290.656 21.1619C291.099 21.4176 291.624 21.5455 292.232 21.5455C292.636 21.5455 293.005 21.4886 293.34 21.375C293.675 21.2614 293.962 21.0909 294.201 20.8636C294.44 20.6364 294.621 20.358 294.746 20.0284L298.104 20.25C297.934 21.0568 297.585 21.7614 297.056 22.3636C296.533 22.9602 295.857 23.4261 295.028 23.7614C294.204 24.0909 293.252 24.2557 292.173 24.2557ZM300.55 24V10.9091H304.07V13.1932H304.207C304.445 12.3807 304.846 11.767 305.408 11.3523C305.971 10.9318 306.619 10.7216 307.352 10.7216C307.533 10.7216 307.729 10.733 307.94 10.7557C308.15 10.7784 308.335 10.8097 308.494 10.8494V14.071C308.323 14.0199 308.087 13.9744 307.786 13.9347C307.485 13.8949 307.21 13.875 306.96 13.875C306.425 13.875 305.948 13.9915 305.528 14.2244C305.113 14.4517 304.783 14.7699 304.539 15.179C304.3 15.5881 304.181 16.0597 304.181 16.5938V24H300.55ZM315.727 24.2557C314.381 24.2557 313.222 23.983 312.25 23.4375C311.284 22.8864 310.54 22.108 310.017 21.1023C309.494 20.0909 309.233 18.8949 309.233 17.5142C309.233 16.1676 309.494 14.9858 310.017 13.9688C310.54 12.9517 311.276 12.1591 312.224 11.5909C313.179 11.0227 314.298 10.7386 315.582 10.7386C316.446 10.7386 317.25 10.8778 317.994 11.1562C318.744 11.429 319.398 11.8409 319.955 12.392C320.517 12.9432 320.955 13.6364 321.267 14.4716C321.58 15.3011 321.736 16.2727 321.736 17.3864V18.3835H310.682V16.1335H318.318C318.318 15.6108 318.205 15.1477 317.977 14.7443C317.75 14.3409 317.435 14.0256 317.031 13.7983C316.634 13.5653 316.17 13.4489 315.642 13.4489C315.091 13.4489 314.602 13.5767 314.176 13.8324C313.756 14.0824 313.426 14.4205 313.188 14.8466C312.949 15.267 312.827 15.7358 312.821 16.2528V18.392C312.821 19.0398 312.94 19.5994 313.179 20.071C313.423 20.5426 313.767 20.9062 314.21 21.1619C314.653 21.4176 315.179 21.5455 315.787 21.5455C316.19 21.5455 316.56 21.4886 316.895 21.375C317.23 21.2614 317.517 21.0909 317.756 20.8636C317.994 20.6364 318.176 20.358 318.301 20.0284L321.659 20.25C321.489 21.0568 321.139 21.7614 320.611 22.3636C320.088 22.9602 319.412 23.4261 318.582 23.7614C317.759 24.0909 316.807 24.2557 315.727 24.2557ZM324.105 24V10.9091H327.565V13.2188H327.719C327.991 12.4517 328.446 11.8466 329.082 11.4034C329.719 10.9602 330.48 10.7386 331.366 10.7386C332.264 10.7386 333.028 10.9631 333.659 11.4119C334.29 11.8551 334.71 12.4574 334.92 13.2188H335.057C335.324 12.4688 335.807 11.8693 336.506 11.4205C337.21 10.9659 338.043 10.7386 339.003 10.7386C340.224 10.7386 341.216 11.1278 341.977 11.9062C342.744 12.679 343.128 13.7756 343.128 15.196V24H339.506V15.9119C339.506 15.1847 339.313 14.6392 338.926 14.2756C338.54 13.9119 338.057 13.7301 337.477 13.7301C336.818 13.7301 336.304 13.9403 335.935 14.3608C335.565 14.7756 335.381 15.3239 335.381 16.0057V24H331.861V15.8352C331.861 15.1932 331.676 14.6818 331.307 14.3011C330.943 13.9205 330.463 13.7301 329.866 13.7301C329.463 13.7301 329.099 13.8324 328.776 14.0369C328.457 14.2358 328.205 14.517 328.017 14.8807C327.83 15.2386 327.736 15.6591 327.736 16.142V24H324.105ZM351.911 24.2557C350.587 24.2557 349.442 23.9744 348.476 23.4119C347.516 22.8437 346.774 22.054 346.251 21.0426C345.729 20.0256 345.467 18.8466 345.467 17.5057C345.467 16.1534 345.729 14.9716 346.251 13.9602C346.774 12.9432 347.516 12.1534 348.476 11.5909C349.442 11.0227 350.587 10.7386 351.911 10.7386C353.234 10.7386 354.376 11.0227 355.337 11.5909C356.303 12.1534 357.047 12.9432 357.57 13.9602C358.092 14.9716 358.354 16.1534 358.354 17.5057C358.354 18.8466 358.092 20.0256 357.57 21.0426C357.047 22.054 356.303 22.8437 355.337 23.4119C354.376 23.9744 353.234 24.2557 351.911 24.2557ZM351.928 21.4432C352.53 21.4432 353.033 21.2727 353.436 20.9318C353.839 20.5852 354.143 20.1136 354.348 19.517C354.558 18.9205 354.663 18.2415 354.663 17.4801C354.663 16.7188 354.558 16.0398 354.348 15.4432C354.143 14.8466 353.839 14.375 353.436 14.0284C353.033 13.6818 352.53 13.5085 351.928 13.5085C351.32 13.5085 350.808 13.6818 350.393 14.0284C349.984 14.375 349.675 14.8466 349.464 15.4432C349.26 16.0398 349.158 16.7188 349.158 17.4801C349.158 18.2415 349.26 18.9205 349.464 19.517C349.675 20.1136 349.984 20.5852 350.393 20.9318C350.808 21.2727 351.32 21.4432 351.928 21.4432ZM371.607 14.642L368.283 14.8466C368.226 14.5625 368.104 14.3068 367.916 14.0795C367.729 13.8466 367.482 13.6619 367.175 13.5256C366.874 13.3835 366.513 13.3125 366.092 13.3125C365.53 13.3125 365.055 13.4318 364.669 13.6705C364.283 13.9034 364.089 14.2159 364.089 14.608C364.089 14.9205 364.214 15.1847 364.464 15.4006C364.714 15.6165 365.143 15.7898 365.751 15.9205L368.121 16.3977C369.393 16.6591 370.342 17.0795 370.967 17.6591C371.592 18.2386 371.905 19 371.905 19.9432C371.905 20.8011 371.652 21.554 371.146 22.2017C370.646 22.8494 369.959 23.3551 369.084 23.7188C368.214 24.0767 367.212 24.2557 366.075 24.2557C364.342 24.2557 362.962 23.8949 361.933 23.1733C360.911 22.446 360.311 21.4574 360.135 20.2074L363.706 20.0199C363.814 20.5483 364.075 20.9517 364.49 21.2301C364.905 21.5028 365.436 21.6392 366.084 21.6392C366.72 21.6392 367.232 21.517 367.618 21.2727C368.01 21.0227 368.209 20.7017 368.214 20.3097C368.209 19.9801 368.07 19.7102 367.797 19.5C367.524 19.2841 367.104 19.1193 366.536 19.0057L364.268 18.554C362.99 18.2983 362.038 17.8551 361.413 17.2244C360.794 16.5937 360.484 15.7898 360.484 14.8125C360.484 13.9716 360.712 13.2472 361.166 12.6392C361.626 12.0312 362.271 11.5625 363.101 11.233C363.936 10.9034 364.913 10.7386 366.033 10.7386C367.686 10.7386 368.987 11.0881 369.936 11.7869C370.891 12.4858 371.447 13.4375 371.607 14.642ZM379.746 24V10.9091H383.206V13.2188H383.359C383.632 12.4517 384.087 11.8466 384.723 11.4034C385.359 10.9602 386.121 10.7386 387.007 10.7386C387.905 10.7386 388.669 10.9631 389.3 11.4119C389.93 11.8551 390.351 12.4574 390.561 13.2188H390.697C390.964 12.4688 391.447 11.8693 392.146 11.4205C392.851 10.9659 393.683 10.7386 394.643 10.7386C395.865 10.7386 396.857 11.1278 397.618 11.9062C398.385 12.679 398.768 13.7756 398.768 15.196V24H395.146V15.9119C395.146 15.1847 394.953 14.6392 394.567 14.2756C394.18 13.9119 393.697 13.7301 393.118 13.7301C392.459 13.7301 391.945 13.9403 391.575 14.3608C391.206 14.7756 391.021 15.3239 391.021 16.0057V24H387.501V15.8352C387.501 15.1932 387.317 14.6818 386.947 14.3011C386.584 13.9205 386.104 13.7301 385.507 13.7301C385.104 13.7301 384.74 13.8324 384.416 14.0369C384.098 14.2358 383.845 14.517 383.658 14.8807C383.47 15.2386 383.376 15.6591 383.376 16.142V24H379.746ZM407.602 24.2557C406.256 24.2557 405.097 23.983 404.125 23.4375C403.159 22.8864 402.415 22.108 401.892 21.1023C401.369 20.0909 401.108 18.8949 401.108 17.5142C401.108 16.1676 401.369 14.9858 401.892 13.9688C402.415 12.9517 403.151 12.1591 404.099 11.5909C405.054 11.0227 406.173 10.7386 407.457 10.7386C408.321 10.7386 409.125 10.8778 409.869 11.1562C410.619 11.429 411.273 11.8409 411.83 12.392C412.392 12.9432 412.83 13.6364 413.142 14.4716C413.455 15.3011 413.611 16.2727 413.611 17.3864V18.3835H402.557V16.1335H410.193C410.193 15.6108 410.08 15.1477 409.852 14.7443C409.625 14.3409 409.31 14.0256 408.906 13.7983C408.509 13.5653 408.045 13.4489 407.517 13.4489C406.966 13.4489 406.477 13.5767 406.051 13.8324C405.631 14.0824 405.301 14.4205 405.062 14.8466C404.824 15.267 404.702 15.7358 404.696 16.2528V18.392C404.696 19.0398 404.815 19.5994 405.054 20.071C405.298 20.5426 405.642 20.9062 406.085 21.1619C406.528 21.4176 407.054 21.5455 407.662 21.5455C408.065 21.5455 408.435 21.4886 408.77 21.375C409.105 21.2614 409.392 21.0909 409.631 20.8636C409.869 20.6364 410.051 20.358 410.176 20.0284L413.534 20.25C413.364 21.0568 413.014 21.7614 412.486 22.3636C411.963 22.9602 411.287 23.4261 410.457 23.7614C409.634 24.0909 408.682 24.2557 407.602 24.2557ZM419.611 6.54545V24H415.98V6.54545H419.611ZM426.15 16.4318V24H422.519V6.54545H426.048V13.2188H426.201C426.496 12.446 426.974 11.8409 427.633 11.4034C428.292 10.9602 429.119 10.7386 430.113 10.7386C431.022 10.7386 431.815 10.9375 432.491 11.3352C433.173 11.7273 433.701 12.2926 434.076 13.0312C434.457 13.7642 434.644 14.642 434.638 15.6648V24H431.008V16.3125C431.013 15.5057 430.809 14.8778 430.394 14.429C429.985 13.9801 429.411 13.7557 428.673 13.7557C428.178 13.7557 427.741 13.8608 427.36 14.071C426.985 14.2812 426.69 14.5881 426.474 14.9915C426.263 15.3892 426.156 15.8693 426.15 16.4318ZM443.411 24.2557C442.087 24.2557 440.942 23.9744 439.976 23.4119C439.016 22.8437 438.274 22.054 437.751 21.0426C437.229 20.0256 436.967 18.8466 436.967 17.5057C436.967 16.1534 437.229 14.9716 437.751 13.9602C438.274 12.9432 439.016 12.1534 439.976 11.5909C440.942 11.0227 442.087 10.7386 443.411 10.7386C444.734 10.7386 445.876 11.0227 446.837 11.5909C447.803 12.1534 448.547 12.9432 449.07 13.9602C449.592 14.9716 449.854 16.1534 449.854 17.5057C449.854 18.8466 449.592 20.0256 449.07 21.0426C448.547 22.054 447.803 22.8437 446.837 23.4119C445.876 23.9744 444.734 24.2557 443.411 24.2557ZM443.428 21.4432C444.03 21.4432 444.533 21.2727 444.936 20.9318C445.339 20.5852 445.643 20.1136 445.848 19.517C446.058 18.9205 446.163 18.2415 446.163 17.4801C446.163 16.7188 446.058 16.0398 445.848 15.4432C445.643 14.8466 445.339 14.375 444.936 14.0284C444.533 13.6818 444.03 13.5085 443.428 13.5085C442.82 13.5085 442.308 13.6818 441.893 14.0284C441.484 14.375 441.175 14.8466 440.964 15.4432C440.76 16.0398 440.658 16.7188 440.658 17.4801C440.658 18.2415 440.76 18.9205 440.964 19.517C441.175 20.1136 441.484 20.5852 441.893 20.9318C442.308 21.2727 442.82 21.4432 443.428 21.4432ZM452.214 24V10.9091H455.734V13.1932H455.871C456.109 12.3807 456.51 11.767 457.072 11.3523C457.635 10.9318 458.283 10.7216 459.016 10.7216C459.197 10.7216 459.393 10.733 459.604 10.7557C459.814 10.7784 459.999 10.8097 460.158 10.8494V14.071C459.987 14.0199 459.751 13.9744 459.45 13.9347C459.149 13.8949 458.874 13.875 458.624 13.875C458.089 13.875 457.612 13.9915 457.192 14.2244C456.777 14.4517 456.447 14.7699 456.203 15.179C455.964 15.5881 455.845 16.0597 455.845 16.5938V24H452.214ZM227.514 53.2472C226.679 53.2472 225.934 53.1023 225.281 52.8125C224.627 52.517 224.11 52.0824 223.73 51.5085C223.355 50.929 223.167 50.2074 223.167 49.3438C223.167 48.6165 223.301 48.0057 223.568 47.5114C223.835 47.017 224.199 46.6193 224.659 46.3182C225.119 46.017 225.642 45.7898 226.227 45.6364C226.818 45.483 227.437 45.375 228.085 45.3125C228.846 45.233 229.46 45.1591 229.926 45.0909C230.392 45.017 230.73 44.9091 230.94 44.767C231.15 44.625 231.255 44.4148 231.255 44.1364V44.0852C231.255 43.5455 231.085 43.1278 230.744 42.8324C230.409 42.5369 229.931 42.3892 229.312 42.3892C228.659 42.3892 228.139 42.5341 227.752 42.8239C227.366 43.108 227.11 43.4659 226.985 43.8977L223.627 43.625C223.798 42.8295 224.133 42.142 224.633 41.5625C225.133 40.9773 225.778 40.5284 226.568 40.2159C227.363 39.8977 228.284 39.7386 229.329 39.7386C230.056 39.7386 230.752 39.8239 231.417 39.9943C232.088 40.1648 232.681 40.429 233.199 40.7869C233.721 41.1449 234.133 41.6051 234.434 42.1676C234.735 42.7244 234.886 43.392 234.886 44.1705V53H231.443V51.1847H231.341C231.13 51.5938 230.849 51.9545 230.497 52.267C230.145 52.5739 229.721 52.8153 229.227 52.9915C228.733 53.1619 228.162 53.2472 227.514 53.2472ZM228.554 50.7415C229.088 50.7415 229.559 50.6364 229.968 50.4261C230.377 50.2102 230.699 49.9205 230.931 49.5568C231.164 49.1932 231.281 48.7812 231.281 48.321V46.9318C231.167 47.0057 231.011 47.0739 230.812 47.1364C230.619 47.1932 230.4 47.2472 230.156 47.2983C229.912 47.3437 229.667 47.3864 229.423 47.4261C229.179 47.4602 228.957 47.4915 228.758 47.5199C228.332 47.5824 227.96 47.6818 227.642 47.8182C227.324 47.9545 227.076 48.1392 226.9 48.3722C226.724 48.5994 226.636 48.8835 226.636 49.2244C226.636 49.7188 226.815 50.0966 227.173 50.358C227.537 50.6136 227.997 50.7415 228.554 50.7415ZM254.15 43.642L250.826 43.8466C250.769 43.5625 250.647 43.3068 250.459 43.0795C250.272 42.8466 250.025 42.6619 249.718 42.5256C249.417 42.3835 249.056 42.3125 248.635 42.3125C248.073 42.3125 247.598 42.4318 247.212 42.6705C246.826 42.9034 246.632 43.2159 246.632 43.608C246.632 43.9205 246.757 44.1847 247.007 44.4006C247.257 44.6165 247.686 44.7898 248.294 44.9205L250.664 45.3977C251.936 45.6591 252.885 46.0795 253.51 46.6591C254.135 47.2386 254.448 48 254.448 48.9432C254.448 49.8011 254.195 50.554 253.689 51.2017C253.189 51.8494 252.502 52.3551 251.627 52.7188C250.757 53.0767 249.755 53.2557 248.618 53.2557C246.885 53.2557 245.505 52.8949 244.476 52.1733C243.453 51.446 242.854 50.4574 242.678 49.2074L246.249 49.0199C246.357 49.5483 246.618 49.9517 247.033 50.2301C247.448 50.5028 247.979 50.6392 248.627 50.6392C249.263 50.6392 249.775 50.517 250.161 50.2727C250.553 50.0227 250.752 49.7017 250.757 49.3097C250.752 48.9801 250.613 48.7102 250.34 48.5C250.067 48.2841 249.647 48.1193 249.078 48.0057L246.811 47.554C245.533 47.2983 244.581 46.8551 243.956 46.2244C243.337 45.5937 243.027 44.7898 243.027 43.8125C243.027 42.9716 243.255 42.2472 243.709 41.6392C244.169 41.0312 244.814 40.5625 245.644 40.233C246.479 39.9034 247.456 39.7386 248.576 39.7386C250.229 39.7386 251.53 40.0881 252.479 40.7869C253.434 41.4858 253.99 42.4375 254.15 43.642ZM265.129 47.4261V39.9091H268.76V53H265.274V50.6222H265.137C264.842 51.3892 264.35 52.0057 263.663 52.4716C262.981 52.9375 262.149 53.1705 261.166 53.1705C260.291 53.1705 259.521 52.9716 258.856 52.5739C258.191 52.1761 257.672 51.6108 257.297 50.8778C256.927 50.1449 256.74 49.267 256.734 48.2443V39.9091H260.365V47.5966C260.37 48.3693 260.578 48.9801 260.987 49.429C261.396 49.8778 261.944 50.1023 262.632 50.1023C263.069 50.1023 263.478 50.0028 263.859 49.804C264.24 49.5994 264.547 49.2983 264.779 48.9006C265.018 48.5028 265.135 48.0114 265.129 47.4261ZM275.397 53.2472C274.561 53.2472 273.817 53.1023 273.164 52.8125C272.51 52.517 271.993 52.0824 271.613 51.5085C271.238 50.929 271.05 50.2074 271.05 49.3438C271.05 48.6165 271.184 48.0057 271.451 47.5114C271.718 47.017 272.081 46.6193 272.542 46.3182C273.002 46.017 273.525 45.7898 274.11 45.6364C274.701 45.483 275.32 45.375 275.968 45.3125C276.729 45.233 277.343 45.1591 277.809 45.0909C278.275 45.017 278.613 44.9091 278.823 44.767C279.033 44.625 279.138 44.4148 279.138 44.1364V44.0852C279.138 43.5455 278.968 43.1278 278.627 42.8324C278.292 42.5369 277.814 42.3892 277.195 42.3892C276.542 42.3892 276.022 42.5341 275.635 42.8239C275.249 43.108 274.993 43.4659 274.868 43.8977L271.51 43.625C271.681 42.8295 272.016 42.142 272.516 41.5625C273.016 40.9773 273.661 40.5284 274.451 40.2159C275.246 39.8977 276.167 39.7386 277.212 39.7386C277.939 39.7386 278.635 39.8239 279.3 39.9943C279.971 40.1648 280.564 40.429 281.081 40.7869C281.604 41.1449 282.016 41.6051 282.317 42.1676C282.618 42.7244 282.769 43.392 282.769 44.1705V53H279.326V51.1847H279.223C279.013 51.5938 278.732 51.9545 278.38 52.267C278.027 52.5739 277.604 52.8153 277.11 52.9915C276.615 53.1619 276.044 53.2472 275.397 53.2472ZM276.436 50.7415C276.971 50.7415 277.442 50.6364 277.851 50.4261C278.26 50.2102 278.581 49.9205 278.814 49.5568C279.047 49.1932 279.164 48.7812 279.164 48.321V46.9318C279.05 47.0057 278.894 47.0739 278.695 47.1364C278.502 47.1932 278.283 47.2472 278.039 47.2983C277.794 47.3437 277.55 47.3864 277.306 47.4261C277.061 47.4602 276.84 47.4915 276.641 47.5199C276.215 47.5824 275.843 47.6818 275.525 47.8182C275.206 47.9545 274.959 48.1392 274.783 48.3722C274.607 48.5994 274.519 48.8835 274.519 49.2244C274.519 49.7188 274.698 50.0966 275.056 50.358C275.419 50.6136 275.88 50.7415 276.436 50.7415ZM294.771 45.4318V53H291.14V39.9091H294.6V42.2188H294.754C295.044 41.4574 295.529 40.8551 296.211 40.4119C296.893 39.9631 297.72 39.7386 298.691 39.7386C299.6 39.7386 300.393 39.9375 301.069 40.3352C301.745 40.733 302.271 41.3011 302.646 42.0398C303.021 42.7727 303.208 43.6477 303.208 44.6648V53H299.578V45.3125C299.583 44.5114 299.379 43.8864 298.964 43.4375C298.549 42.983 297.978 42.7557 297.251 42.7557C296.762 42.7557 296.331 42.8608 295.956 43.071C295.586 43.2812 295.297 43.5881 295.086 43.9915C294.882 44.3892 294.777 44.8693 294.771 45.4318ZM312.036 53.2557C310.689 53.2557 309.53 52.983 308.559 52.4375C307.593 51.8864 306.848 51.108 306.326 50.1023C305.803 49.0909 305.542 47.8949 305.542 46.5142C305.542 45.1676 305.803 43.9858 306.326 42.9688C306.848 41.9517 307.584 41.1591 308.533 40.5909C309.488 40.0227 310.607 39.7386 311.891 39.7386C312.755 39.7386 313.559 39.8778 314.303 40.1562C315.053 40.429 315.706 40.8409 316.263 41.392C316.826 41.9432 317.263 42.6364 317.576 43.4716C317.888 44.3011 318.044 45.2727 318.044 46.3864V47.3835H306.99V45.1335H314.627C314.627 44.6108 314.513 44.1477 314.286 43.7443C314.059 43.3409 313.743 43.0256 313.34 42.7983C312.942 42.5653 312.479 42.4489 311.951 42.4489C311.4 42.4489 310.911 42.5767 310.485 42.8324C310.064 43.0824 309.735 43.4205 309.496 43.8466C309.257 44.267 309.135 44.7358 309.13 45.2528V47.392C309.13 48.0398 309.249 48.5994 309.488 49.071C309.732 49.5426 310.076 49.9062 310.519 50.1619C310.962 50.4176 311.488 50.5455 312.096 50.5455C312.499 50.5455 312.868 50.4886 313.203 50.375C313.539 50.2614 313.826 50.0909 314.064 49.8636C314.303 49.6364 314.485 49.358 314.61 49.0284L317.968 49.25C317.797 50.0568 317.448 50.7614 316.919 51.3636C316.397 51.9602 315.721 52.4261 314.891 52.7614C314.067 53.0909 313.115 53.2557 312.036 53.2557ZM326.328 53.2557C324.988 53.2557 323.834 52.9716 322.868 52.4034C321.908 51.8295 321.169 51.0341 320.652 50.017C320.141 49 319.885 47.8295 319.885 46.5057C319.885 45.1648 320.144 43.9886 320.661 42.9773C321.184 41.9602 321.925 41.1676 322.885 40.5994C323.846 40.0256 324.988 39.7386 326.311 39.7386C327.453 39.7386 328.453 39.946 329.311 40.3608C330.169 40.7756 330.848 41.358 331.348 42.108C331.848 42.858 332.124 43.7386 332.175 44.75H328.749C328.652 44.0966 328.397 43.571 327.982 43.1733C327.573 42.7699 327.036 42.5682 326.371 42.5682C325.809 42.5682 325.317 42.7216 324.897 43.0284C324.482 43.3295 324.158 43.7699 323.925 44.3494C323.692 44.929 323.576 45.6307 323.576 46.4545C323.576 47.2898 323.689 48 323.917 48.5852C324.15 49.1705 324.476 49.6165 324.897 49.9233C325.317 50.2301 325.809 50.3835 326.371 50.3835C326.786 50.3835 327.158 50.2983 327.488 50.1278C327.823 49.9574 328.098 49.7102 328.314 49.3864C328.536 49.0568 328.681 48.6619 328.749 48.2017H332.175C332.118 49.2017 331.846 50.0824 331.357 50.8438C330.874 51.5994 330.206 52.1903 329.354 52.6165C328.502 53.0426 327.493 53.2557 326.328 53.2557ZM340.466 53.2557C339.119 53.2557 337.96 52.983 336.988 52.4375C336.022 51.8864 335.278 51.108 334.755 50.1023C334.233 49.0909 333.971 47.8949 333.971 46.5142C333.971 45.1676 334.233 43.9858 334.755 42.9688C335.278 41.9517 336.014 41.1591 336.963 40.5909C337.917 40.0227 339.037 39.7386 340.321 39.7386C341.184 39.7386 341.988 39.8778 342.733 40.1562C343.483 40.429 344.136 40.8409 344.693 41.392C345.255 41.9432 345.693 42.6364 346.005 43.4716C346.318 44.3011 346.474 45.2727 346.474 46.3864V47.3835H335.42V45.1335H343.056C343.056 44.6108 342.943 44.1477 342.716 43.7443C342.488 43.3409 342.173 43.0256 341.77 42.7983C341.372 42.5653 340.909 42.4489 340.38 42.4489C339.829 42.4489 339.341 42.5767 338.914 42.8324C338.494 43.0824 338.164 43.4205 337.926 43.8466C337.687 44.267 337.565 44.7358 337.559 45.2528V47.392C337.559 48.0398 337.679 48.5994 337.917 49.071C338.162 49.5426 338.505 49.9062 338.949 50.1619C339.392 50.4176 339.917 50.5455 340.525 50.5455C340.929 50.5455 341.298 50.4886 341.633 50.375C341.968 50.2614 342.255 50.0909 342.494 49.8636C342.733 49.6364 342.914 49.358 343.039 49.0284L346.397 49.25C346.227 50.0568 345.877 50.7614 345.349 51.3636C344.826 51.9602 344.15 52.4261 343.321 52.7614C342.497 53.0909 341.545 53.2557 340.466 53.2557ZM359.735 43.642L356.412 43.8466C356.355 43.5625 356.233 43.3068 356.045 43.0795C355.858 42.8466 355.61 42.6619 355.304 42.5256C355.002 42.3835 354.642 42.3125 354.221 42.3125C353.659 42.3125 353.184 42.4318 352.798 42.6705C352.412 42.9034 352.218 43.2159 352.218 43.608C352.218 43.9205 352.343 44.1847 352.593 44.4006C352.843 44.6165 353.272 44.7898 353.88 44.9205L356.25 45.3977C357.522 45.6591 358.471 46.0795 359.096 46.6591C359.721 47.2386 360.034 48 360.034 48.9432C360.034 49.8011 359.781 50.554 359.275 51.2017C358.775 51.8494 358.088 52.3551 357.213 52.7188C356.343 53.0767 355.341 53.2557 354.204 53.2557C352.471 53.2557 351.091 52.8949 350.062 52.1733C349.039 51.446 348.44 50.4574 348.264 49.2074L351.835 49.0199C351.943 49.5483 352.204 49.9517 352.619 50.2301C353.034 50.5028 353.565 50.6392 354.213 50.6392C354.849 50.6392 355.36 50.517 355.747 50.2727C356.139 50.0227 356.338 49.7017 356.343 49.3097C356.338 48.9801 356.199 48.7102 355.926 48.5C355.653 48.2841 355.233 48.1193 354.664 48.0057L352.397 47.554C351.119 47.2983 350.167 46.8551 349.542 46.2244C348.923 45.5937 348.613 44.7898 348.613 43.8125C348.613 42.9716 348.841 42.2472 349.295 41.6392C349.755 41.0312 350.4 40.5625 351.23 40.233C352.065 39.9034 353.042 39.7386 354.162 39.7386C355.815 39.7386 357.116 40.0881 358.065 40.7869C359.02 41.4858 359.576 42.4375 359.735 43.642ZM373.212 43.642L369.888 43.8466C369.831 43.5625 369.709 43.3068 369.522 43.0795C369.334 42.8466 369.087 42.6619 368.78 42.5256C368.479 42.3835 368.118 42.3125 367.698 42.3125C367.135 42.3125 366.661 42.4318 366.275 42.6705C365.888 42.9034 365.695 43.2159 365.695 43.608C365.695 43.9205 365.82 44.1847 366.07 44.4006C366.32 44.6165 366.749 44.7898 367.357 44.9205L369.726 45.3977C370.999 45.6591 371.948 46.0795 372.573 46.6591C373.198 47.2386 373.51 48 373.51 48.9432C373.51 49.8011 373.257 50.554 372.752 51.2017C372.252 51.8494 371.564 52.3551 370.689 52.7188C369.82 53.0767 368.817 53.2557 367.681 53.2557C365.948 53.2557 364.567 52.8949 363.539 52.1733C362.516 51.446 361.917 50.4574 361.74 49.2074L365.311 49.0199C365.419 49.5483 365.681 49.9517 366.096 50.2301C366.51 50.5028 367.042 50.6392 367.689 50.6392C368.326 50.6392 368.837 50.517 369.223 50.2727C369.615 50.0227 369.814 49.7017 369.82 49.3097C369.814 48.9801 369.675 48.7102 369.402 48.5C369.13 48.2841 368.709 48.1193 368.141 48.0057L365.874 47.554C364.596 47.2983 363.644 46.8551 363.019 46.2244C362.4 45.5937 362.09 44.7898 362.09 43.8125C362.09 42.9716 362.317 42.2472 362.772 41.6392C363.232 41.0312 363.877 40.5625 364.706 40.233C365.542 39.9034 366.519 39.7386 367.638 39.7386C369.292 39.7386 370.593 40.0881 371.542 40.7869C372.496 41.4858 373.053 42.4375 373.212 43.642ZM375.797 53V39.9091H379.427V53H375.797ZM377.62 38.2216C377.081 38.2216 376.618 38.0426 376.231 37.6847C375.85 37.321 375.66 36.8864 375.66 36.3807C375.66 35.8807 375.85 35.4517 376.231 35.0938C376.618 34.7301 377.081 34.5483 377.62 34.5483C378.16 34.5483 378.62 34.7301 379.001 35.0938C379.387 35.4517 379.581 35.8807 379.581 36.3807C379.581 36.8864 379.387 37.321 379.001 37.6847C378.62 38.0426 378.16 38.2216 377.62 38.2216ZM387.159 53.2131C386.165 53.2131 385.265 52.9574 384.458 52.446C383.657 51.929 383.02 51.1705 382.549 50.1705C382.083 49.1648 381.85 47.9318 381.85 46.4716C381.85 44.9716 382.091 43.7244 382.574 42.7301C383.057 41.7301 383.699 40.983 384.5 40.4886C385.307 39.9886 386.191 39.7386 387.151 39.7386C387.884 39.7386 388.495 39.8636 388.983 40.1136C389.478 40.358 389.875 40.6648 390.176 41.0341C390.483 41.3977 390.716 41.7557 390.875 42.108H390.986V35.5455H394.608V53H391.029V50.9034H390.875C390.705 51.267 390.463 51.6278 390.151 51.9858C389.844 52.3381 389.444 52.6307 388.949 52.8636C388.461 53.0966 387.864 53.2131 387.159 53.2131ZM388.31 50.3239C388.895 50.3239 389.39 50.1648 389.793 49.8466C390.202 49.5227 390.515 49.071 390.73 48.4915C390.952 47.9119 391.063 47.233 391.063 46.4545C391.063 45.6761 390.955 45 390.739 44.4261C390.523 43.8523 390.211 43.4091 389.801 43.0966C389.392 42.7841 388.895 42.6278 388.31 42.6278C387.713 42.6278 387.211 42.7898 386.801 43.1136C386.392 43.4375 386.083 43.8864 385.873 44.4602C385.662 45.0341 385.557 45.6989 385.557 46.4545C385.557 47.2159 385.662 47.8892 385.873 48.4744C386.088 49.054 386.398 49.5085 386.801 49.8381C387.211 50.1619 387.713 50.3239 388.31 50.3239ZM401.326 53.2472C400.491 53.2472 399.747 53.1023 399.093 52.8125C398.44 52.517 397.923 52.0824 397.542 51.5085C397.167 50.929 396.98 50.2074 396.98 49.3438C396.98 48.6165 397.113 48.0057 397.38 47.5114C397.647 47.017 398.011 46.6193 398.471 46.3182C398.931 46.017 399.454 45.7898 400.039 45.6364C400.63 45.483 401.25 45.375 401.897 45.3125C402.659 45.233 403.272 45.1591 403.738 45.0909C404.204 45.017 404.542 44.9091 404.752 44.767C404.963 44.625 405.068 44.4148 405.068 44.1364V44.0852C405.068 43.5455 404.897 43.1278 404.556 42.8324C404.221 42.5369 403.744 42.3892 403.125 42.3892C402.471 42.3892 401.951 42.5341 401.565 42.8239C401.179 43.108 400.923 43.4659 400.798 43.8977L397.44 43.625C397.61 42.8295 397.946 42.142 398.446 41.5625C398.946 40.9773 399.591 40.5284 400.38 40.2159C401.176 39.8977 402.096 39.7386 403.142 39.7386C403.869 39.7386 404.565 39.8239 405.23 39.9943C405.9 40.1648 406.494 40.429 407.011 40.7869C407.534 41.1449 407.946 41.6051 408.247 42.1676C408.548 42.7244 408.699 43.392 408.699 44.1705V53H405.255V51.1847H405.153C404.943 51.5938 404.662 51.9545 404.309 52.267C403.957 52.5739 403.534 52.8153 403.039 52.9915C402.545 53.1619 401.974 53.2472 401.326 53.2472ZM402.366 50.7415C402.9 50.7415 403.372 50.6364 403.781 50.4261C404.19 50.2102 404.511 49.9205 404.744 49.5568C404.977 49.1932 405.093 48.7812 405.093 48.321V46.9318C404.98 47.0057 404.824 47.0739 404.625 47.1364C404.431 47.1932 404.213 47.2472 403.968 47.2983C403.724 47.3437 403.48 47.3864 403.235 47.4261C402.991 47.4602 402.77 47.4915 402.571 47.5199C402.145 47.5824 401.772 47.6818 401.454 47.8182C401.136 47.9545 400.889 48.1392 400.713 48.3722C400.537 48.5994 400.449 48.8835 400.449 49.2244C400.449 49.7188 400.627 50.0966 400.985 50.358C401.349 50.6136 401.809 50.7415 402.366 50.7415ZM416.339 53.2131C415.345 53.2131 414.444 52.9574 413.637 52.446C412.836 51.929 412.2 51.1705 411.728 50.1705C411.262 49.1648 411.029 47.9318 411.029 46.4716C411.029 44.9716 411.271 43.7244 411.754 42.7301C412.237 41.7301 412.879 40.983 413.68 40.4886C414.487 39.9886 415.37 39.7386 416.331 39.7386C417.064 39.7386 417.674 39.8636 418.163 40.1136C418.657 40.358 419.055 40.6648 419.356 41.0341C419.663 41.3977 419.896 41.7557 420.055 42.108H420.166V35.5455H423.788V53H420.208V50.9034H420.055C419.885 51.267 419.643 51.6278 419.331 51.9858C419.024 52.3381 418.623 52.6307 418.129 52.8636C417.64 53.0966 417.044 53.2131 416.339 53.2131ZM417.49 50.3239C418.075 50.3239 418.569 50.1648 418.973 49.8466C419.382 49.5227 419.694 49.071 419.91 48.4915C420.132 47.9119 420.243 47.233 420.243 46.4545C420.243 45.6761 420.135 45 419.919 44.4261C419.703 43.8523 419.39 43.4091 418.981 43.0966C418.572 42.7841 418.075 42.6278 417.49 42.6278C416.893 42.6278 416.39 42.7898 415.981 43.1136C415.572 43.4375 415.262 43.8864 415.052 44.4602C414.842 45.0341 414.737 45.6989 414.737 46.4545C414.737 47.2159 414.842 47.8892 415.052 48.4744C415.268 49.054 415.578 49.5085 415.981 49.8381C416.39 50.1619 416.893 50.3239 417.49 50.3239ZM432.739 53.2557C431.392 53.2557 430.233 52.983 429.262 52.4375C428.296 51.8864 427.551 51.108 427.029 50.1023C426.506 49.0909 426.245 47.8949 426.245 46.5142C426.245 45.1676 426.506 43.9858 427.029 42.9688C427.551 41.9517 428.287 41.1591 429.236 40.5909C430.191 40.0227 431.31 39.7386 432.594 39.7386C433.458 39.7386 434.262 39.8778 435.006 40.1562C435.756 40.429 436.409 40.8409 436.966 41.392C437.529 41.9432 437.966 42.6364 438.279 43.4716C438.591 44.3011 438.748 45.2727 438.748 46.3864V47.3835H427.694V45.1335H435.33C435.33 44.6108 435.216 44.1477 434.989 43.7443C434.762 43.3409 434.446 43.0256 434.043 42.7983C433.645 42.5653 433.182 42.4489 432.654 42.4489C432.103 42.4489 431.614 42.5767 431.188 42.8324C430.767 43.0824 430.438 43.4205 430.199 43.8466C429.961 44.267 429.838 44.7358 429.833 45.2528V47.392C429.833 48.0398 429.952 48.5994 430.191 49.071C430.435 49.5426 430.779 49.9062 431.222 50.1619C431.665 50.4176 432.191 50.5455 432.799 50.5455C433.202 50.5455 433.571 50.4886 433.907 50.375C434.242 50.2614 434.529 50.0909 434.767 49.8636C435.006 49.6364 435.188 49.358 435.313 49.0284L438.671 49.25C438.5 50.0568 438.151 50.7614 437.623 51.3636C437.1 51.9602 436.424 52.4261 435.594 52.7614C434.77 53.0909 433.819 53.2557 432.739 53.2557Z" fill="white"/>
<path d="M504.357 23V5.54545H516.118V8.58807H508.047V12.7472H515.513V15.7898H508.047V19.9574H516.152V23H504.357ZM522.615 15.4318V23H518.984V9.90909H522.444V12.2188H522.598C522.887 11.4574 523.373 10.8551 524.055 10.4119C524.737 9.96307 525.564 9.73864 526.535 9.73864C527.444 9.73864 528.237 9.9375 528.913 10.3352C529.589 10.733 530.115 11.3011 530.49 12.0398C530.865 12.7727 531.052 13.6477 531.052 14.6648V23H527.422V15.3125C527.427 14.5114 527.223 13.8864 526.808 13.4375C526.393 12.983 525.822 12.7557 525.095 12.7557C524.606 12.7557 524.174 12.8608 523.799 13.071C523.43 13.2812 523.14 13.5881 522.93 13.9915C522.725 14.3892 522.62 14.8693 522.615 15.4318ZM545.65 9.90909L541.073 23H536.982L532.405 9.90909H536.24L538.959 19.2756H539.096L541.806 9.90909H545.65ZM547.507 23V9.90909H551.138V23H547.507ZM549.331 8.22159C548.792 8.22159 548.328 8.04261 547.942 7.68466C547.561 7.32102 547.371 6.88636 547.371 6.38068C547.371 5.88068 547.561 5.4517 547.942 5.09375C548.328 4.73011 548.792 4.54829 549.331 4.54829C549.871 4.54829 550.331 4.73011 550.712 5.09375C551.098 5.4517 551.292 5.88068 551.292 6.38068C551.292 6.88636 551.098 7.32102 550.712 7.68466C550.331 8.04261 549.871 8.22159 549.331 8.22159ZM557.779 23.2472C556.944 23.2472 556.2 23.1023 555.547 22.8125C554.893 22.517 554.376 22.0824 553.995 21.5085C553.62 20.929 553.433 20.2074 553.433 19.3438C553.433 18.6165 553.566 18.0057 553.833 17.5114C554.1 17.017 554.464 16.6193 554.924 16.3182C555.385 16.017 555.907 15.7898 556.493 15.6364C557.083 15.483 557.703 15.375 558.35 15.3125C559.112 15.233 559.725 15.1591 560.191 15.0909C560.657 15.017 560.995 14.9091 561.206 14.767C561.416 14.625 561.521 14.4148 561.521 14.1364V14.0852C561.521 13.5455 561.35 13.1278 561.01 12.8324C560.674 12.5369 560.197 12.3892 559.578 12.3892C558.924 12.3892 558.404 12.5341 558.018 12.8239C557.632 13.108 557.376 13.4659 557.251 13.8977L553.893 13.625C554.064 12.8295 554.399 12.142 554.899 11.5625C555.399 10.9773 556.044 10.5284 556.833 10.2159C557.629 9.89773 558.549 9.73864 559.595 9.73864C560.322 9.73864 561.018 9.82386 561.683 9.99432C562.353 10.1648 562.947 10.429 563.464 10.7869C563.987 11.1449 564.399 11.6051 564.7 12.1676C565.001 12.7244 565.152 13.392 565.152 14.1705V23H561.708V21.1847H561.606C561.396 21.5938 561.115 21.9545 560.762 22.267C560.41 22.5739 559.987 22.8153 559.493 22.9915C558.998 23.1619 558.427 23.2472 557.779 23.2472ZM558.819 20.7415C559.353 20.7415 559.825 20.6364 560.234 20.4261C560.643 20.2102 560.964 19.9205 561.197 19.5568C561.43 19.1932 561.547 18.7812 561.547 18.321V16.9318C561.433 17.0057 561.277 17.0739 561.078 17.1364C560.885 17.1932 560.666 17.2472 560.422 17.2983C560.177 17.3437 559.933 17.3864 559.689 17.4261C559.444 17.4602 559.223 17.4915 559.024 17.5199C558.598 17.5824 558.225 17.6818 557.907 17.8182C557.589 17.9545 557.342 18.1392 557.166 18.3722C556.99 18.5994 556.902 18.8835 556.902 19.2244C556.902 19.7188 557.081 20.0966 557.439 20.358C557.802 20.6136 558.262 20.7415 558.819 20.7415ZM567.968 23V9.90909H571.488V12.1932H571.625C571.863 11.3807 572.264 10.767 572.826 10.3523C573.389 9.93182 574.037 9.72159 574.77 9.72159C574.951 9.72159 575.147 9.73295 575.358 9.75568C575.568 9.77841 575.752 9.80966 575.912 9.84943V13.071C575.741 13.0199 575.505 12.9744 575.204 12.9347C574.903 12.8949 574.627 12.875 574.377 12.875C573.843 12.875 573.366 12.9915 572.946 13.2244C572.531 13.4517 572.201 13.7699 571.957 14.179C571.718 14.5881 571.599 15.0597 571.599 15.5938V23H567.968ZM583.145 23.2557C581.799 23.2557 580.64 22.983 579.668 22.4375C578.702 21.8864 577.958 21.108 577.435 20.1023C576.912 19.0909 576.651 17.8949 576.651 16.5142C576.651 15.1676 576.912 13.9858 577.435 12.9688C577.958 11.9517 578.694 11.1591 579.642 10.5909C580.597 10.0227 581.716 9.73864 583 9.73864C583.864 9.73864 584.668 9.87784 585.412 10.1562C586.162 10.429 586.816 10.8409 587.373 11.392C587.935 11.9432 588.373 12.6364 588.685 13.4716C588.998 14.3011 589.154 15.2727 589.154 16.3864V17.3835H578.1V15.1335H585.736C585.736 14.6108 585.623 14.1477 585.395 13.7443C585.168 13.3409 584.853 13.0256 584.449 12.7983C584.051 12.5653 583.588 12.4489 583.06 12.4489C582.509 12.4489 582.02 12.5767 581.594 12.8324C581.174 13.0824 580.844 13.4205 580.605 13.8466C580.367 14.267 580.245 14.7358 580.239 15.2528V17.392C580.239 18.0398 580.358 18.5994 580.597 19.071C580.841 19.5426 581.185 19.9062 581.628 20.1619C582.071 20.4176 582.597 20.5455 583.205 20.5455C583.608 20.5455 583.978 20.4886 584.313 20.375C584.648 20.2614 584.935 20.0909 585.174 19.8636C585.412 19.6364 585.594 19.358 585.719 19.0284L589.077 19.25C588.907 20.0568 588.557 20.7614 588.029 21.3636C587.506 21.9602 586.83 22.4261 586 22.7614C585.176 23.0909 584.225 23.2557 583.145 23.2557ZM591.523 23V9.90909H594.983V12.2188H595.137C595.409 11.4517 595.864 10.8466 596.5 10.4034C597.137 9.96023 597.898 9.73864 598.784 9.73864C599.682 9.73864 600.446 9.96307 601.077 10.4119C601.708 10.8551 602.128 11.4574 602.338 12.2188H602.475C602.742 11.4688 603.225 10.8693 603.924 10.4205C604.628 9.96591 605.461 9.73864 606.421 9.73864C607.642 9.73864 608.634 10.1278 609.395 10.9062C610.162 11.679 610.546 12.7756 610.546 14.196V23H606.924V14.9119C606.924 14.1847 606.73 13.6392 606.344 13.2756C605.958 12.9119 605.475 12.7301 604.895 12.7301C604.236 12.7301 603.722 12.9403 603.353 13.3608C602.983 13.7756 602.799 14.3239 602.799 15.0057V23H599.279V14.8352C599.279 14.1932 599.094 13.6818 598.725 13.3011C598.361 12.9205 597.881 12.7301 597.284 12.7301C596.881 12.7301 596.517 12.8324 596.194 13.0369C595.875 13.2358 595.623 13.517 595.435 13.8807C595.248 14.2386 595.154 14.6591 595.154 15.142V23H591.523ZM619.328 23.2557C618.005 23.2557 616.86 22.9744 615.894 22.4119C614.934 21.8437 614.192 21.054 613.669 20.0426C613.147 19.0256 612.885 17.8466 612.885 16.5057C612.885 15.1534 613.147 13.9716 613.669 12.9602C614.192 11.9432 614.934 11.1534 615.894 10.5909C616.86 10.0227 618.005 9.73864 619.328 9.73864C620.652 9.73864 621.794 10.0227 622.755 10.5909C623.721 11.1534 624.465 11.9432 624.988 12.9602C625.51 13.9716 625.772 15.1534 625.772 16.5057C625.772 17.8466 625.51 19.0256 624.988 20.0426C624.465 21.054 623.721 21.8437 622.755 22.4119C621.794 22.9744 620.652 23.2557 619.328 23.2557ZM619.346 20.4432C619.948 20.4432 620.451 20.2727 620.854 19.9318C621.257 19.5852 621.561 19.1136 621.766 18.517C621.976 17.9205 622.081 17.2415 622.081 16.4801C622.081 15.7188 621.976 15.0398 621.766 14.4432C621.561 13.8466 621.257 13.375 620.854 13.0284C620.451 12.6818 619.948 12.5085 619.346 12.5085C618.738 12.5085 618.226 12.6818 617.811 13.0284C617.402 13.375 617.093 13.8466 616.882 14.4432C616.678 15.0398 616.576 15.7188 616.576 16.4801C616.576 17.2415 616.678 17.9205 616.882 18.517C617.093 19.1136 617.402 19.5852 617.811 19.9318C618.226 20.2727 618.738 20.4432 619.346 20.4432ZM639.025 13.642L635.701 13.8466C635.644 13.5625 635.522 13.3068 635.334 13.0795C635.147 12.8466 634.9 12.6619 634.593 12.5256C634.292 12.3835 633.931 12.3125 633.51 12.3125C632.948 12.3125 632.473 12.4318 632.087 12.6705C631.701 12.9034 631.507 13.2159 631.507 13.608C631.507 13.9205 631.632 14.1847 631.882 14.4006C632.132 14.6165 632.561 14.7898 633.169 14.9205L635.539 15.3977C636.811 15.6591 637.76 16.0795 638.385 16.6591C639.01 17.2386 639.323 18 639.323 18.9432C639.323 19.8011 639.07 20.554 638.564 21.2017C638.064 21.8494 637.377 22.3551 636.502 22.7188C635.632 23.0767 634.63 23.2557 633.493 23.2557C631.76 23.2557 630.38 22.8949 629.351 22.1733C628.328 21.446 627.729 20.4574 627.553 19.2074L631.124 19.0199C631.232 19.5483 631.493 19.9517 631.908 20.2301C632.323 20.5028 632.854 20.6392 633.502 20.6392C634.138 20.6392 634.65 20.517 635.036 20.2727C635.428 20.0227 635.627 19.7017 635.632 19.3097C635.627 18.9801 635.488 18.7102 635.215 18.5C634.942 18.2841 634.522 18.1193 633.953 18.0057L631.686 17.554C630.408 17.2983 629.456 16.8551 628.831 16.2244C628.212 15.5937 627.902 14.7898 627.902 13.8125C627.902 12.9716 628.13 12.2472 628.584 11.6392C629.044 11.0312 629.689 10.5625 630.519 10.233C631.354 9.90341 632.331 9.73864 633.451 9.73864C635.104 9.73864 636.405 10.0881 637.354 10.7869C638.309 11.4858 638.865 12.4375 639.025 13.642ZM507.025 42.642L503.701 42.8466C503.644 42.5625 503.522 42.3068 503.334 42.0795C503.147 41.8466 502.9 41.6619 502.593 41.5256C502.292 41.3835 501.931 41.3125 501.51 41.3125C500.948 41.3125 500.473 41.4318 500.087 41.6705C499.701 41.9034 499.507 42.2159 499.507 42.608C499.507 42.9205 499.632 43.1847 499.882 43.4006C500.132 43.6165 500.561 43.7898 501.169 43.9205L503.539 44.3977C504.811 44.6591 505.76 45.0795 506.385 45.6591C507.01 46.2386 507.323 47 507.323 47.9432C507.323 48.8011 507.07 49.554 506.564 50.2017C506.064 50.8494 505.377 51.3551 504.502 51.7188C503.632 52.0767 502.63 52.2557 501.493 52.2557C499.76 52.2557 498.38 51.8949 497.351 51.1733C496.328 50.446 495.729 49.4574 495.553 48.2074L499.124 48.0199C499.232 48.5483 499.493 48.9517 499.908 49.2301C500.323 49.5028 500.854 49.6392 501.502 49.6392C502.138 49.6392 502.65 49.517 503.036 49.2727C503.428 49.0227 503.627 48.7017 503.632 48.3097C503.627 47.9801 503.488 47.7102 503.215 47.5C502.942 47.2841 502.522 47.1193 501.953 47.0057L499.686 46.554C498.408 46.2983 497.456 45.8551 496.831 45.2244C496.212 44.5937 495.902 43.7898 495.902 42.8125C495.902 41.9716 496.13 41.2472 496.584 40.6392C497.044 40.0312 497.689 39.5625 498.519 39.233C499.354 38.9034 500.331 38.7386 501.451 38.7386C503.104 38.7386 504.405 39.0881 505.354 39.7869C506.309 40.4858 506.865 41.4375 507.025 42.642ZM518.004 46.4261V38.9091H521.635V52H518.149V49.6222H518.012C517.717 50.3892 517.225 51.0057 516.538 51.4716C515.856 51.9375 515.024 52.1705 514.041 52.1705C513.166 52.1705 512.396 51.9716 511.731 51.5739C511.066 51.1761 510.547 50.6108 510.172 49.8778C509.802 49.1449 509.615 48.267 509.609 47.2443V38.9091H513.24V46.5966C513.245 47.3693 513.453 47.9801 513.862 48.429C514.271 48.8778 514.819 49.1023 515.507 49.1023C515.944 49.1023 516.353 49.0028 516.734 48.804C517.115 48.5994 517.422 48.2983 517.654 47.9006C517.893 47.5028 518.01 47.0114 518.004 46.4261ZM528.272 52.2472C527.436 52.2472 526.692 52.1023 526.039 51.8125C525.385 51.517 524.868 51.0824 524.488 50.5085C524.113 49.929 523.925 49.2074 523.925 48.3438C523.925 47.6165 524.059 47.0057 524.326 46.5114C524.593 46.017 524.956 45.6193 525.417 45.3182C525.877 45.017 526.4 44.7898 526.985 44.6364C527.576 44.483 528.195 44.375 528.843 44.3125C529.604 44.233 530.218 44.1591 530.684 44.0909C531.15 44.017 531.488 43.9091 531.698 43.767C531.908 43.625 532.013 43.4148 532.013 43.1364V43.0852C532.013 42.5455 531.843 42.1278 531.502 41.8324C531.167 41.5369 530.689 41.3892 530.07 41.3892C529.417 41.3892 528.897 41.5341 528.51 41.8239C528.124 42.108 527.868 42.4659 527.743 42.8977L524.385 42.625C524.556 41.8295 524.891 41.142 525.391 40.5625C525.891 39.9773 526.536 39.5284 527.326 39.2159C528.121 38.8977 529.042 38.7386 530.087 38.7386C530.814 38.7386 531.51 38.8239 532.175 38.9943C532.846 39.1648 533.439 39.429 533.956 39.7869C534.479 40.1449 534.891 40.6051 535.192 41.1676C535.493 41.7244 535.644 42.392 535.644 43.1705V52H532.201V50.1847H532.098C531.888 50.5938 531.607 50.9545 531.255 51.267C530.902 51.5739 530.479 51.8153 529.985 51.9915C529.49 52.1619 528.919 52.2472 528.272 52.2472ZM529.311 49.7415C529.846 49.7415 530.317 49.6364 530.726 49.4261C531.135 49.2102 531.456 48.9205 531.689 48.5568C531.922 48.1932 532.039 47.7812 532.039 47.321V45.9318C531.925 46.0057 531.769 46.0739 531.57 46.1364C531.377 46.1932 531.158 46.2472 530.914 46.2983C530.669 46.3437 530.425 46.3864 530.181 46.4261C529.936 46.4602 529.715 46.4915 529.516 46.5199C529.09 46.5824 528.718 46.6818 528.4 46.8182C528.081 46.9545 527.834 47.1392 527.658 47.3722C527.482 47.5994 527.394 47.8835 527.394 48.2244C527.394 48.7188 527.573 49.0966 527.931 49.358C528.294 49.6136 528.755 49.7415 529.311 49.7415ZM544.015 56.9091V38.9091H547.595V41.108H547.757C547.916 40.7557 548.146 40.3977 548.447 40.0341C548.754 39.6648 549.152 39.358 549.64 39.1136C550.135 38.8636 550.748 38.7386 551.481 38.7386C552.436 38.7386 553.316 38.9886 554.123 39.4886C554.93 39.983 555.575 40.7301 556.058 41.7301C556.541 42.7244 556.782 43.9716 556.782 45.4716C556.782 46.9318 556.547 48.1648 556.075 49.1705C555.609 50.1705 554.973 50.929 554.166 51.446C553.365 51.9574 552.467 52.2131 551.473 52.2131C550.768 52.2131 550.169 52.0966 549.674 51.8636C549.186 51.6307 548.785 51.3381 548.473 50.9858C548.16 50.6278 547.922 50.267 547.757 49.9034H547.646V56.9091H544.015ZM547.569 45.4545C547.569 46.233 547.677 46.9119 547.893 47.4915C548.109 48.071 548.422 48.5227 548.831 48.8466C549.24 49.1648 549.737 49.3239 550.322 49.3239C550.913 49.3239 551.413 49.1619 551.822 48.8381C552.231 48.5085 552.541 48.054 552.751 47.4744C552.967 46.8892 553.075 46.2159 553.075 45.4545C553.075 44.6989 552.97 44.0341 552.76 43.4602C552.549 42.8864 552.24 42.4375 551.831 42.1136C551.422 41.7898 550.919 41.6278 550.322 41.6278C549.731 41.6278 549.231 41.7841 548.822 42.0966C548.419 42.4091 548.109 42.8523 547.893 43.4261C547.677 44 547.569 44.6761 547.569 45.4545ZM559.203 52V38.9091H562.723V41.1932H562.859C563.098 40.3807 563.498 39.767 564.061 39.3523C564.623 38.9318 565.271 38.7216 566.004 38.7216C566.186 38.7216 566.382 38.733 566.592 38.7557C566.802 38.7784 566.987 38.8097 567.146 38.8494V42.071C566.975 42.0199 566.74 41.9744 566.439 41.9347C566.137 41.8949 565.862 41.875 565.612 41.875C565.078 41.875 564.6 41.9915 564.18 42.2244C563.765 42.4517 563.436 42.7699 563.191 43.179C562.953 43.5881 562.833 44.0597 562.833 44.5938V52H559.203ZM574.328 52.2557C573.005 52.2557 571.86 51.9744 570.894 51.4119C569.934 50.8437 569.192 50.054 568.669 49.0426C568.147 48.0256 567.885 46.8466 567.885 45.5057C567.885 44.1534 568.147 42.9716 568.669 41.9602C569.192 40.9432 569.934 40.1534 570.894 39.5909C571.86 39.0227 573.005 38.7386 574.328 38.7386C575.652 38.7386 576.794 39.0227 577.755 39.5909C578.721 40.1534 579.465 40.9432 579.988 41.9602C580.51 42.9716 580.772 44.1534 580.772 45.5057C580.772 46.8466 580.51 48.0256 579.988 49.0426C579.465 50.054 578.721 50.8437 577.755 51.4119C576.794 51.9744 575.652 52.2557 574.328 52.2557ZM574.346 49.4432C574.948 49.4432 575.451 49.2727 575.854 48.9318C576.257 48.5852 576.561 48.1136 576.766 47.517C576.976 46.9205 577.081 46.2415 577.081 45.4801C577.081 44.7188 576.976 44.0398 576.766 43.4432C576.561 42.8466 576.257 42.375 575.854 42.0284C575.451 41.6818 574.948 41.5085 574.346 41.5085C573.738 41.5085 573.226 41.6818 572.811 42.0284C572.402 42.375 572.093 42.8466 571.882 43.4432C571.678 44.0398 571.576 44.7188 571.576 45.4801C571.576 46.2415 571.678 46.9205 571.882 47.517C572.093 48.1136 572.402 48.5852 572.811 48.9318C573.226 49.2727 573.738 49.4432 574.346 49.4432ZM583.132 56.9091V38.9091H586.712V41.108H586.874C587.033 40.7557 587.263 40.3977 587.564 40.0341C587.871 39.6648 588.269 39.358 588.757 39.1136C589.252 38.8636 589.865 38.7386 590.598 38.7386C591.553 38.7386 592.434 38.9886 593.24 39.4886C594.047 39.983 594.692 40.7301 595.175 41.7301C595.658 42.7244 595.9 43.9716 595.9 45.4716C595.9 46.9318 595.664 48.1648 595.192 49.1705C594.726 50.1705 594.09 50.929 593.283 51.446C592.482 51.9574 591.584 52.2131 590.59 52.2131C589.885 52.2131 589.286 52.0966 588.792 51.8636C588.303 51.6307 587.902 51.3381 587.59 50.9858C587.277 50.6278 587.039 50.267 586.874 49.9034H586.763V56.9091H583.132ZM586.686 45.4545C586.686 46.233 586.794 46.9119 587.01 47.4915C587.226 48.071 587.539 48.5227 587.948 48.8466C588.357 49.1648 588.854 49.3239 589.439 49.3239C590.03 49.3239 590.53 49.1619 590.939 48.8381C591.348 48.5085 591.658 48.054 591.868 47.4744C592.084 46.8892 592.192 46.2159 592.192 45.4545C592.192 44.6989 592.087 44.0341 591.877 43.4602C591.667 42.8864 591.357 42.4375 590.948 42.1136C590.539 41.7898 590.036 41.6278 589.439 41.6278C588.848 41.6278 588.348 41.7841 587.939 42.0966C587.536 42.4091 587.226 42.8523 587.01 43.4261C586.794 44 586.686 44.6761 586.686 45.4545ZM604.235 52.2557C602.911 52.2557 601.766 51.9744 600.8 51.4119C599.84 50.8437 599.098 50.054 598.576 49.0426C598.053 48.0256 597.792 46.8466 597.792 45.5057C597.792 44.1534 598.053 42.9716 598.576 41.9602C599.098 40.9432 599.84 40.1534 600.8 39.5909C601.766 39.0227 602.911 38.7386 604.235 38.7386C605.559 38.7386 606.701 39.0227 607.661 39.5909C608.627 40.1534 609.371 40.9432 609.894 41.9602C610.417 42.9716 610.678 44.1534 610.678 45.5057C610.678 46.8466 610.417 48.0256 609.894 49.0426C609.371 50.054 608.627 50.8437 607.661 51.4119C606.701 51.9744 605.559 52.2557 604.235 52.2557ZM604.252 49.4432C604.854 49.4432 605.357 49.2727 605.76 48.9318C606.164 48.5852 606.468 48.1136 606.672 47.517C606.882 46.9205 606.988 46.2415 606.988 45.4801C606.988 44.7188 606.882 44.0398 606.672 43.4432C606.468 42.8466 606.164 42.375 605.76 42.0284C605.357 41.6818 604.854 41.5085 604.252 41.5085C603.644 41.5085 603.132 41.6818 602.718 42.0284C602.309 42.375 601.999 42.8466 601.789 43.4432C601.584 44.0398 601.482 44.7188 601.482 45.4801C601.482 46.2415 601.584 46.9205 601.789 47.517C601.999 48.1136 602.309 48.5852 602.718 48.9318C603.132 49.2727 603.644 49.4432 604.252 49.4432ZM623.931 42.642L620.607 42.8466C620.55 42.5625 620.428 42.3068 620.24 42.0795C620.053 41.8466 619.806 41.6619 619.499 41.5256C619.198 41.3835 618.837 41.3125 618.417 41.3125C617.854 41.3125 617.38 41.4318 616.993 41.6705C616.607 41.9034 616.414 42.2159 616.414 42.608C616.414 42.9205 616.539 43.1847 616.789 43.4006C617.039 43.6165 617.468 43.7898 618.076 43.9205L620.445 44.3977C621.718 44.6591 622.667 45.0795 623.292 45.6591C623.917 46.2386 624.229 47 624.229 47.9432C624.229 48.8011 623.976 49.554 623.471 50.2017C622.971 50.8494 622.283 51.3551 621.408 51.7188C620.539 52.0767 619.536 52.2557 618.4 52.2557C616.667 52.2557 615.286 51.8949 614.257 51.1733C613.235 50.446 612.635 49.4574 612.459 48.2074L616.03 48.0199C616.138 48.5483 616.4 48.9517 616.814 49.2301C617.229 49.5028 617.76 49.6392 618.408 49.6392C619.044 49.6392 619.556 49.517 619.942 49.2727C620.334 49.0227 620.533 48.7017 620.539 48.3097C620.533 47.9801 620.394 47.7102 620.121 47.5C619.848 47.2841 619.428 47.1193 618.86 47.0057L616.593 46.554C615.314 46.2983 614.363 45.8551 613.738 45.2244C613.118 44.5937 612.809 43.7898 612.809 42.8125C612.809 41.9716 613.036 41.2472 613.49 40.6392C613.951 40.0312 614.596 39.5625 615.425 39.233C616.26 38.9034 617.238 38.7386 618.357 38.7386C620.01 38.7386 621.311 39.0881 622.26 39.7869C623.215 40.4858 623.772 41.4375 623.931 42.642ZM633.478 38.9091V41.6364H625.595V38.9091H633.478ZM627.385 35.7727H631.015V47.9773C631.015 48.3125 631.066 48.5739 631.169 48.7614C631.271 48.9432 631.413 49.071 631.595 49.1449C631.782 49.2187 631.998 49.2557 632.243 49.2557C632.413 49.2557 632.583 49.2415 632.754 49.2131C632.924 49.179 633.055 49.1534 633.146 49.1364L633.717 51.8381C633.535 51.8949 633.279 51.9602 632.95 52.0341C632.62 52.1136 632.22 52.1619 631.748 52.179C630.873 52.2131 630.106 52.0966 629.447 51.8295C628.794 51.5625 628.285 51.1477 627.922 50.5852C627.558 50.0227 627.379 49.3125 627.385 48.4545V35.7727ZM639.576 52.2472C638.741 52.2472 637.997 52.1023 637.343 51.8125C636.69 51.517 636.173 51.0824 635.792 50.5085C635.417 49.929 635.23 49.2074 635.23 48.3438C635.23 47.6165 635.363 47.0057 635.63 46.5114C635.897 46.017 636.261 45.6193 636.721 45.3182C637.181 45.017 637.704 44.7898 638.289 44.6364C638.88 44.483 639.5 44.375 640.147 44.3125C640.909 44.233 641.522 44.1591 641.988 44.0909C642.454 44.017 642.792 43.9091 643.002 43.767C643.213 43.625 643.318 43.4148 643.318 43.1364V43.0852C643.318 42.5455 643.147 42.1278 642.806 41.8324C642.471 41.5369 641.994 41.3892 641.375 41.3892C640.721 41.3892 640.201 41.5341 639.815 41.8239C639.429 42.108 639.173 42.4659 639.048 42.8977L635.69 42.625C635.86 41.8295 636.196 41.142 636.696 40.5625C637.196 39.9773 637.841 39.5284 638.63 39.2159C639.426 38.8977 640.346 38.7386 641.392 38.7386C642.119 38.7386 642.815 38.8239 643.48 38.9943C644.15 39.1648 644.744 39.429 645.261 39.7869C645.784 40.1449 646.196 40.6051 646.497 41.1676C646.798 41.7244 646.949 42.392 646.949 43.1705V52H643.505V50.1847H643.403C643.193 50.5938 642.912 50.9545 642.559 51.267C642.207 51.5739 641.784 51.8153 641.289 51.9915C640.795 52.1619 640.224 52.2472 639.576 52.2472ZM640.616 49.7415C641.15 49.7415 641.622 49.6364 642.031 49.4261C642.44 49.2102 642.761 48.9205 642.994 48.5568C643.227 48.1932 643.343 47.7812 643.343 47.321V45.9318C643.23 46.0057 643.074 46.0739 642.875 46.1364C642.681 46.1932 642.463 46.2472 642.218 46.2983C641.974 46.3437 641.73 46.3864 641.485 46.4261C641.241 46.4602 641.02 46.4915 640.821 46.5199C640.395 46.5824 640.022 46.6818 639.704 46.8182C639.386 46.9545 639.139 47.1392 638.963 47.3722C638.787 47.5994 638.699 47.8835 638.699 48.2244C638.699 48.7188 638.877 49.0966 639.235 49.358C639.599 49.6136 640.059 49.7415 640.616 49.7415Z" fill="white"/>
</svg>
