<svg width="619" height="112" viewBox="0 0 619 112" fill="none" xmlns="http://www.w3.org/2000/svg">
<circle cx="60.5995" cy="80.3055" r="31.5995" fill="white"/>
<circle cx="303.6" cy="80.3055" r="31.5995" fill="white"/>
<circle cx="545.878" cy="80.3055" r="31.5995" fill="white"/>
<path d="M89.5 78.0484H188.98L284.318 78.0484" stroke="white" stroke-width="9.02844"/>
<path d="M321.5 78.0484H420.98L516.318 78.0484" stroke="white" stroke-width="9.02844"/>
<path d="M63.995 70.8074V90.5058H59.8302V74.7605H59.7148L55.2038 77.5883V73.8949L60.0803 70.8074H63.995Z" fill="#1D4E89"/>
<path d="M296.65 90.5058V87.5048L303.662 81.0124C304.258 80.4353 304.758 79.916 305.162 79.4543C305.573 78.9926 305.884 78.5405 306.095 78.0981C306.307 77.6492 306.413 77.1651 306.413 76.6457C306.413 76.0686 306.281 75.5717 306.018 75.1549C305.756 74.7317 305.396 74.4078 304.941 74.1834C304.486 73.9526 303.97 73.8371 303.393 73.8371C302.79 73.8371 302.264 73.959 301.815 74.2026C301.366 74.4463 301.02 74.7958 300.776 75.251C300.533 75.7063 300.411 76.2481 300.411 76.8765H296.458C296.458 75.5877 296.75 74.4688 297.333 73.5197C297.917 72.5707 298.734 71.8365 299.786 71.3171C300.837 70.7977 302.049 70.538 303.421 70.538C304.832 70.538 306.06 70.7881 307.105 71.2883C308.157 71.782 308.974 72.4681 309.558 73.3466C310.141 74.2251 310.433 75.2318 310.433 76.3668C310.433 77.1106 310.286 77.8448 309.991 78.5694C309.702 79.294 309.186 80.0987 308.442 80.9836C307.698 81.8621 306.65 82.9169 305.297 84.148L302.421 86.9662V87.1009H310.693V90.5058H296.65Z" fill="#1D4E89"/>
<path d="M545.728 90.518C544.291 90.518 543.012 90.2711 541.89 89.7774C540.774 89.2772 539.892 88.5911 539.245 87.719C538.604 86.8405 538.273 85.8274 538.254 84.6796H542.448C542.473 85.1605 542.63 85.5837 542.919 85.9492C543.214 86.3083 543.605 86.5873 544.092 86.786C544.58 86.9848 545.128 87.0842 545.737 87.0842C546.372 87.0842 546.933 86.972 547.42 86.7476C547.908 86.5231 548.289 86.2121 548.565 85.8146C548.841 85.417 548.979 84.9586 548.979 84.4392C548.979 83.9134 548.831 83.4485 548.536 83.0445C548.248 82.6341 547.831 82.3135 547.286 82.0827C546.747 81.8518 546.106 81.7364 545.362 81.7364H543.525V78.6778H545.362C545.991 78.6778 546.545 78.5688 547.026 78.3507C547.513 78.1327 547.892 77.8313 548.161 77.4466C548.43 77.0555 548.565 76.6002 548.565 76.0808C548.565 75.5871 548.446 75.1542 548.209 74.7823C547.978 74.404 547.651 74.109 547.228 73.8974C546.811 73.6858 546.324 73.58 545.766 73.58C545.202 73.58 544.686 73.6826 544.218 73.8878C543.749 74.0866 543.374 74.3719 543.092 74.7438C542.81 75.1158 542.659 75.5518 542.64 76.0519H538.648C538.668 74.917 538.992 73.9167 539.62 73.051C540.248 72.1854 541.095 71.5089 542.159 71.0215C543.23 70.5278 544.439 70.2809 545.785 70.2809C547.145 70.2809 548.334 70.5278 549.354 71.0215C550.373 71.5153 551.165 72.1822 551.729 73.0222C552.3 73.8558 552.582 74.7919 552.576 75.8307C552.582 76.9336 552.239 77.8538 551.547 78.5912C550.861 79.3286 549.966 79.7967 548.863 79.9955V80.1494C550.312 80.3353 551.415 80.8387 552.172 81.6595C552.935 82.4738 553.313 83.4934 553.307 84.7181C553.313 85.8402 552.989 86.8373 552.335 87.7094C551.688 88.5815 550.793 89.2676 549.652 89.7677C548.511 90.2679 547.202 90.518 545.728 90.518Z" fill="#1D4E89"/>
<path d="M4.76136 15V3.36364H12.6023V5.39205H7.22159V8.16477H12.1989V10.1932H7.22159V12.9716H12.625V15H4.76136ZM16.9332 9.95455V15H14.5128V6.27273H16.8196V7.8125H16.9219C17.1151 7.30492 17.4389 6.90341 17.8935 6.60795C18.348 6.30871 18.8991 6.15909 19.5469 6.15909C20.1529 6.15909 20.6813 6.29167 21.1321 6.55682C21.5829 6.82197 21.9332 7.20076 22.1832 7.69318C22.4332 8.18182 22.5582 8.76515 22.5582 9.44318V15H20.1378V9.875C20.1416 9.34091 20.0052 8.92424 19.7287 8.625C19.4522 8.32197 19.0715 8.17045 18.5866 8.17045C18.2609 8.17045 17.973 8.24053 17.723 8.38068C17.4768 8.52083 17.2836 8.72538 17.1435 8.99432C17.0071 9.25947 16.937 9.57955 16.9332 9.95455ZM29.108 6.27273V8.09091H23.8523V6.27273H29.108ZM25.0455 4.18182H27.4659V12.3182C27.4659 12.5417 27.5 12.7159 27.5682 12.8409C27.6364 12.9621 27.7311 13.0473 27.8523 13.0966C27.9773 13.1458 28.1212 13.1705 28.2841 13.1705C28.3977 13.1705 28.5114 13.161 28.625 13.142C28.7386 13.1193 28.8258 13.1023 28.8864 13.0909L29.267 14.892C29.1458 14.9299 28.9754 14.9735 28.7557 15.0227C28.536 15.0758 28.2689 15.108 27.9545 15.1193C27.3712 15.142 26.8598 15.0644 26.4205 14.8864C25.9848 14.7083 25.6458 14.4318 25.4034 14.0568C25.161 13.6818 25.0417 13.2083 25.0455 12.6364V4.18182ZM30.6847 15V6.27273H33.0312V7.79545H33.1222C33.2813 7.25379 33.5483 6.8447 33.9233 6.56818C34.2983 6.28788 34.7301 6.14773 35.2188 6.14773C35.34 6.14773 35.4706 6.1553 35.6108 6.17045C35.7509 6.18561 35.8741 6.20644 35.9801 6.23295V8.38068C35.8665 8.34659 35.7093 8.31629 35.5085 8.28977C35.3078 8.26326 35.1241 8.25 34.9574 8.25C34.6013 8.25 34.2831 8.32765 34.0028 8.48295C33.7263 8.63447 33.5066 8.84659 33.3438 9.11932C33.1847 9.39205 33.1051 9.70644 33.1051 10.0625V15H30.6847ZM39.4702 15.1648C38.9134 15.1648 38.4171 15.0682 37.9815 14.875C37.5459 14.678 37.2012 14.3883 36.9474 14.0057C36.6974 13.6193 36.5724 13.1383 36.5724 12.5625C36.5724 12.0777 36.6615 11.6705 36.8395 11.3409C37.0175 11.0114 37.2599 10.7462 37.5668 10.5455C37.8736 10.3447 38.2221 10.1932 38.6122 10.0909C39.0062 9.98864 39.419 9.91667 39.8509 9.875C40.3584 9.82197 40.7675 9.77273 41.0781 9.72727C41.3887 9.67803 41.6141 9.60606 41.7543 9.51136C41.8944 9.41667 41.9645 9.27652 41.9645 9.09091V9.05682C41.9645 8.69697 41.8509 8.41856 41.6236 8.22159C41.4001 8.02462 41.0819 7.92614 40.669 7.92614C40.2334 7.92614 39.8868 8.02273 39.6293 8.21591C39.3717 8.4053 39.2012 8.64394 39.1179 8.93182L36.8793 8.75C36.9929 8.2197 37.2164 7.76136 37.5497 7.375C37.883 6.98485 38.313 6.68561 38.8395 6.47727C39.3698 6.26515 39.9834 6.15909 40.6804 6.15909C41.1652 6.15909 41.6293 6.21591 42.0724 6.32955C42.5194 6.44318 42.9152 6.61932 43.2599 6.85795C43.6084 7.09659 43.883 7.40341 44.0838 7.77841C44.2846 8.14962 44.3849 8.5947 44.3849 9.11364V15H42.0895V13.7898H42.0213C41.8812 14.0625 41.6937 14.303 41.4588 14.5114C41.224 14.7159 40.9418 14.8769 40.6122 14.9943C40.2827 15.108 39.902 15.1648 39.4702 15.1648ZM40.1634 13.4943C40.5194 13.4943 40.8338 13.4242 41.1065 13.2841C41.3793 13.1402 41.5933 12.947 41.7486 12.7045C41.9039 12.4621 41.9815 12.1875 41.9815 11.8807V10.9545C41.9058 11.0038 41.8016 11.0492 41.669 11.0909C41.5402 11.1288 41.3944 11.1648 41.2315 11.1989C41.0687 11.2292 40.9058 11.2576 40.7429 11.2841C40.58 11.3068 40.4323 11.3277 40.2997 11.3466C40.0156 11.3883 39.7675 11.4545 39.5554 11.5455C39.3433 11.6364 39.1785 11.7595 39.0611 11.9148C38.9437 12.0663 38.8849 12.2557 38.8849 12.483C38.8849 12.8125 39.0043 13.0644 39.2429 13.2386C39.4853 13.4091 39.7921 13.4943 40.1634 13.4943ZM46.2628 15V6.27273H48.6094V7.79545H48.7003C48.8594 7.25379 49.1264 6.8447 49.5014 6.56818C49.8764 6.28788 50.3082 6.14773 50.7969 6.14773C50.9181 6.14773 51.0488 6.1553 51.1889 6.17045C51.3291 6.18561 51.4522 6.20644 51.5582 6.23295V8.38068C51.4446 8.34659 51.2874 8.31629 51.0866 8.28977C50.8859 8.26326 50.7022 8.25 50.5355 8.25C50.1795 8.25 49.8613 8.32765 49.581 8.48295C49.3045 8.63447 49.0848 8.84659 48.9219 9.11932C48.7628 9.39205 48.6832 9.70644 48.6832 10.0625V15H46.2628ZM56.3807 15.1705C55.483 15.1705 54.7102 14.9886 54.0625 14.625C53.4186 14.2576 52.9223 13.7386 52.5739 13.0682C52.2254 12.3939 52.0511 11.5966 52.0511 10.6761C52.0511 9.77841 52.2254 8.99053 52.5739 8.3125C52.9223 7.63447 53.4129 7.10606 54.0455 6.72727C54.6818 6.34848 55.428 6.15909 56.2841 6.15909C56.8598 6.15909 57.3958 6.25189 57.892 6.4375C58.392 6.61932 58.8277 6.89394 59.1989 7.26136C59.5739 7.62879 59.8655 8.09091 60.0739 8.64773C60.2822 9.20076 60.3864 9.84848 60.3864 10.5909V11.2557H53.017V9.75568H58.108C58.108 9.4072 58.0322 9.09848 57.8807 8.82955C57.7292 8.56061 57.5189 8.35038 57.25 8.19886C56.9848 8.04356 56.6761 7.96591 56.3239 7.96591C55.9564 7.96591 55.6307 8.05114 55.3466 8.22159C55.0663 8.38826 54.8466 8.61364 54.6875 8.89773C54.5284 9.17803 54.447 9.49053 54.4432 9.83523V11.2614C54.4432 11.6932 54.5227 12.0663 54.6818 12.3807C54.8447 12.6951 55.0739 12.9375 55.3693 13.108C55.6648 13.2784 56.0152 13.3636 56.4205 13.3636C56.6894 13.3636 56.9356 13.3258 57.1591 13.25C57.3826 13.1742 57.5739 13.0606 57.733 12.9091C57.892 12.7576 58.0133 12.572 58.0966 12.3523L60.3352 12.5C60.2216 13.0379 59.9886 13.5076 59.6364 13.9091C59.2879 14.3068 58.8371 14.6174 58.2841 14.8409C57.7348 15.0606 57.1004 15.1705 56.3807 15.1705ZM61.9659 15V6.27273H64.2727V7.8125H64.375C64.5568 7.30114 64.8598 6.89773 65.2841 6.60227C65.7083 6.30682 66.2159 6.15909 66.8068 6.15909C67.4053 6.15909 67.9148 6.30871 68.3352 6.60795C68.7557 6.90341 69.036 7.30492 69.1761 7.8125H69.267C69.4451 7.3125 69.767 6.91288 70.233 6.61364C70.7027 6.31061 71.2576 6.15909 71.8977 6.15909C72.7121 6.15909 73.3731 6.41856 73.8807 6.9375C74.392 7.45265 74.6477 8.18371 74.6477 9.13068V15H72.233V9.60795C72.233 9.12311 72.1042 8.75947 71.8466 8.51705C71.589 8.27462 71.267 8.15341 70.8807 8.15341C70.4413 8.15341 70.0985 8.29356 69.8523 8.57386C69.6061 8.85038 69.483 9.21591 69.483 9.67045V15H67.1364V9.55682C67.1364 9.12879 67.0133 8.78788 66.767 8.53409C66.5246 8.2803 66.2045 8.15341 65.8068 8.15341C65.5379 8.15341 65.2955 8.22159 65.0795 8.35795C64.8674 8.49053 64.6989 8.67803 64.5739 8.92045C64.4489 9.15909 64.3864 9.43939 64.3864 9.76136V15H61.9659ZM80.5028 15.1705C79.6203 15.1705 78.857 14.983 78.2131 14.608C77.5729 14.2292 77.0786 13.7027 76.7301 13.0284C76.3816 12.3504 76.2074 11.5644 76.2074 10.6705C76.2074 9.76894 76.3816 8.98106 76.7301 8.30682C77.0786 7.62879 77.5729 7.10227 78.2131 6.72727C78.857 6.34848 79.6203 6.15909 80.5028 6.15909C81.3854 6.15909 82.1468 6.34848 82.7869 6.72727C83.4309 7.10227 83.9271 7.62879 84.2756 8.30682C84.6241 8.98106 84.7983 9.76894 84.7983 10.6705C84.7983 11.5644 84.6241 12.3504 84.2756 13.0284C83.9271 13.7027 83.4309 14.2292 82.7869 14.608C82.1468 14.983 81.3854 15.1705 80.5028 15.1705ZM80.5142 13.2955C80.9157 13.2955 81.2509 13.1818 81.5199 12.9545C81.7888 12.7235 81.9915 12.4091 82.1278 12.0114C82.268 11.6136 82.3381 11.161 82.3381 10.6534C82.3381 10.1458 82.268 9.69318 82.1278 9.29545C81.9915 8.89773 81.7888 8.58333 81.5199 8.35227C81.2509 8.12121 80.9157 8.00568 80.5142 8.00568C80.1089 8.00568 79.768 8.12121 79.4915 8.35227C79.2188 8.58333 79.0123 8.89773 78.8722 9.29545C78.7358 9.69318 78.6676 10.1458 78.6676 10.6534C78.6676 11.161 78.7358 11.6136 78.8722 12.0114C79.0123 12.4091 79.2188 12.7235 79.4915 12.9545C79.768 13.1818 80.1089 13.2955 80.5142 13.2955ZM93.6335 8.76136L91.4176 8.89773C91.3797 8.70833 91.2983 8.53788 91.1733 8.38636C91.0483 8.23106 90.8835 8.10795 90.679 8.01705C90.4782 7.92235 90.2377 7.875 89.9574 7.875C89.5824 7.875 89.2661 7.95455 89.0085 8.11364C88.7509 8.26894 88.6222 8.47727 88.6222 8.73864C88.6222 8.94697 88.7055 9.12311 88.8722 9.26705C89.0388 9.41098 89.3248 9.52652 89.7301 9.61364L91.3097 9.93182C92.1581 10.1061 92.7907 10.3864 93.2074 10.7727C93.6241 11.1591 93.8324 11.6667 93.8324 12.2955C93.8324 12.8674 93.6638 13.3693 93.3267 13.8011C92.9934 14.233 92.535 14.5701 91.9517 14.8125C91.3722 15.0511 90.7036 15.1705 89.946 15.1705C88.7907 15.1705 87.8703 14.9299 87.1847 14.4489C86.5028 13.964 86.1032 13.3049 85.9858 12.4716L88.3665 12.3466C88.4384 12.6989 88.6127 12.9678 88.8892 13.1534C89.1657 13.3352 89.5199 13.4261 89.9517 13.4261C90.3759 13.4261 90.7169 13.3447 90.9744 13.1818C91.2358 13.0152 91.3684 12.8011 91.3722 12.5398C91.3684 12.3201 91.2756 12.1402 91.0938 12C90.9119 11.8561 90.6316 11.7462 90.2528 11.6705L88.7415 11.3693C87.8892 11.1989 87.2547 10.9034 86.8381 10.483C86.4252 10.0625 86.2188 9.52652 86.2188 8.875C86.2188 8.31439 86.3703 7.83144 86.6733 7.42614C86.9801 7.02083 87.41 6.70833 87.9631 6.48864C88.5199 6.26894 89.1714 6.15909 89.9176 6.15909C91.0199 6.15909 91.8873 6.39205 92.5199 6.85795C93.1563 7.32386 93.5275 7.95833 93.6335 8.76136ZM103.037 15.1705C102.139 15.1705 101.366 14.9886 100.719 14.625C100.075 14.2576 99.5786 13.7386 99.2301 13.0682C98.8816 12.3939 98.7074 11.5966 98.7074 10.6761C98.7074 9.77841 98.8816 8.99053 99.2301 8.3125C99.5786 7.63447 100.069 7.10606 100.702 6.72727C101.338 6.34848 102.084 6.15909 102.94 6.15909C103.516 6.15909 104.052 6.25189 104.548 6.4375C105.048 6.61932 105.484 6.89394 105.855 7.26136C106.23 7.62879 106.522 8.09091 106.73 8.64773C106.938 9.20076 107.043 9.84848 107.043 10.5909V11.2557H99.6733V9.75568H104.764C104.764 9.4072 104.688 9.09848 104.537 8.82955C104.385 8.56061 104.175 8.35038 103.906 8.19886C103.641 8.04356 103.332 7.96591 102.98 7.96591C102.613 7.96591 102.287 8.05114 102.003 8.22159C101.723 8.38826 101.503 8.61364 101.344 8.89773C101.185 9.17803 101.103 9.49053 101.099 9.83523V11.2614C101.099 11.6932 101.179 12.0663 101.338 12.3807C101.501 12.6951 101.73 12.9375 102.026 13.108C102.321 13.2784 102.671 13.3636 103.077 13.3636C103.346 13.3636 103.592 13.3258 103.815 13.25C104.039 13.1742 104.23 13.0606 104.389 12.9091C104.548 12.7576 104.67 12.572 104.753 12.3523L106.991 12.5C106.878 13.0379 106.645 13.5076 106.293 13.9091C105.944 14.3068 105.493 14.6174 104.94 14.8409C104.391 15.0606 103.757 15.1705 103.037 15.1705ZM108.622 15V6.27273H110.929V7.8125H111.031C111.213 7.30114 111.516 6.89773 111.94 6.60227C112.365 6.30682 112.872 6.15909 113.463 6.15909C114.062 6.15909 114.571 6.30871 114.991 6.60795C115.412 6.90341 115.692 7.30492 115.832 7.8125H115.923C116.101 7.3125 116.423 6.91288 116.889 6.61364C117.359 6.31061 117.914 6.15909 118.554 6.15909C119.368 6.15909 120.029 6.41856 120.537 6.9375C121.048 7.45265 121.304 8.18371 121.304 9.13068V15H118.889V9.60795C118.889 9.12311 118.76 8.75947 118.503 8.51705C118.245 8.27462 117.923 8.15341 117.537 8.15341C117.098 8.15341 116.755 8.29356 116.509 8.57386C116.262 8.85038 116.139 9.21591 116.139 9.67045V15H113.793V9.55682C113.793 9.12879 113.67 8.78788 113.423 8.53409C113.181 8.2803 112.861 8.15341 112.463 8.15341C112.194 8.15341 111.952 8.22159 111.736 8.35795C111.524 8.49053 111.355 8.67803 111.23 8.92045C111.105 9.15909 111.043 9.43939 111.043 9.76136V15H108.622ZM37.6122 34.1705C36.7183 34.1705 35.9493 33.9811 35.3054 33.6023C34.6652 33.2197 34.1728 32.6894 33.8281 32.0114C33.4872 31.3333 33.3168 30.553 33.3168 29.6705C33.3168 28.7765 33.4891 27.9924 33.8338 27.3182C34.1823 26.6402 34.6766 26.1117 35.3168 25.733C35.9569 25.3504 36.7183 25.1591 37.6009 25.1591C38.3622 25.1591 39.0289 25.2973 39.6009 25.5739C40.1728 25.8504 40.6255 26.2386 40.9588 26.7386C41.2921 27.2386 41.4759 27.8258 41.5099 28.5H39.2259C39.1615 28.0644 38.991 27.714 38.7145 27.4489C38.4418 27.1799 38.0838 27.0455 37.6406 27.0455C37.2656 27.0455 36.938 27.1477 36.6577 27.3523C36.3812 27.553 36.1652 27.8466 36.0099 28.233C35.8546 28.6193 35.777 29.0871 35.777 29.6364C35.777 30.1932 35.8527 30.6667 36.0043 31.0568C36.1596 31.447 36.3774 31.7443 36.6577 31.9489C36.938 32.1534 37.2656 32.2557 37.6406 32.2557C37.9171 32.2557 38.1652 32.1989 38.3849 32.0852C38.6084 31.9716 38.7921 31.8068 38.9361 31.5909C39.0838 31.3712 39.1804 31.108 39.2259 30.8011H41.5099C41.4721 31.4678 41.2902 32.0549 40.9645 32.5625C40.6425 33.0663 40.1974 33.4602 39.6293 33.7443C39.0611 34.0284 38.3887 34.1705 37.6122 34.1705ZM47.0028 34.1705C46.1203 34.1705 45.357 33.983 44.7131 33.608C44.0729 33.2292 43.5786 32.7027 43.2301 32.0284C42.8816 31.3504 42.7074 30.5644 42.7074 29.6705C42.7074 28.7689 42.8816 27.9811 43.2301 27.3068C43.5786 26.6288 44.0729 26.1023 44.7131 25.7273C45.357 25.3485 46.1203 25.1591 47.0028 25.1591C47.8854 25.1591 48.6468 25.3485 49.2869 25.7273C49.9309 26.1023 50.4271 26.6288 50.7756 27.3068C51.1241 27.9811 51.2983 28.7689 51.2983 29.6705C51.2983 30.5644 51.1241 31.3504 50.7756 32.0284C50.4271 32.7027 49.9309 33.2292 49.2869 33.608C48.6468 33.983 47.8854 34.1705 47.0028 34.1705ZM47.0142 32.2955C47.4157 32.2955 47.7509 32.1818 48.0199 31.9545C48.2888 31.7235 48.4915 31.4091 48.6278 31.0114C48.768 30.6136 48.8381 30.161 48.8381 29.6534C48.8381 29.1458 48.768 28.6932 48.6278 28.2955C48.4915 27.8977 48.2888 27.5833 48.0199 27.3523C47.7509 27.1212 47.4157 27.0057 47.0142 27.0057C46.6089 27.0057 46.268 27.1212 45.9915 27.3523C45.7188 27.5833 45.5123 27.8977 45.3722 28.2955C45.2358 28.6932 45.1676 29.1458 45.1676 29.6534C45.1676 30.161 45.2358 30.6136 45.3722 31.0114C45.5123 31.4091 45.7188 31.7235 45.9915 31.9545C46.268 32.1818 46.6089 32.2955 47.0142 32.2955ZM55.2926 28.9545V34H52.8722V25.2727H55.179V26.8125H55.2812C55.4744 26.3049 55.7983 25.9034 56.2528 25.608C56.7074 25.3087 57.2585 25.1591 57.9062 25.1591C58.5123 25.1591 59.0407 25.2917 59.4915 25.5568C59.9422 25.822 60.2926 26.2008 60.5426 26.6932C60.7926 27.1818 60.9176 27.7652 60.9176 28.4432V34H58.4972V28.875C58.5009 28.3409 58.3646 27.9242 58.0881 27.625C57.8116 27.322 57.4309 27.1705 56.946 27.1705C56.6203 27.1705 56.3324 27.2405 56.0824 27.3807C55.8362 27.5208 55.643 27.7254 55.5028 27.9943C55.3665 28.2595 55.2964 28.5795 55.2926 28.9545ZM67.4673 25.2727V27.0909H62.2116V25.2727H67.4673ZM63.4048 23.1818H65.8253V31.3182C65.8253 31.5417 65.8594 31.7159 65.9276 31.8409C65.9957 31.9621 66.0904 32.0473 66.2116 32.0966C66.3366 32.1458 66.4806 32.1705 66.6435 32.1705C66.7571 32.1705 66.8707 32.161 66.9844 32.142C67.098 32.1193 67.1851 32.1023 67.2457 32.0909L67.6264 33.892C67.5052 33.9299 67.3348 33.9735 67.1151 34.0227C66.8954 34.0758 66.6283 34.108 66.3139 34.1193C65.7306 34.142 65.2192 34.0644 64.7798 33.8864C64.3442 33.7083 64.0052 33.4318 63.7628 33.0568C63.5204 32.6818 63.401 32.2083 63.4048 31.6364V23.1818ZM71.5327 34.1648C70.9759 34.1648 70.4796 34.0682 70.044 33.875C69.6084 33.678 69.2637 33.3883 69.0099 33.0057C68.7599 32.6193 68.6349 32.1383 68.6349 31.5625C68.6349 31.0777 68.724 30.6705 68.902 30.3409C69.08 30.0114 69.3224 29.7462 69.6293 29.5455C69.9361 29.3447 70.2846 29.1932 70.6747 29.0909C71.0687 28.9886 71.4815 28.9167 71.9134 28.875C72.4209 28.822 72.83 28.7727 73.1406 28.7273C73.4512 28.678 73.6766 28.6061 73.8168 28.5114C73.9569 28.4167 74.027 28.2765 74.027 28.0909V28.0568C74.027 27.697 73.9134 27.4186 73.6861 27.2216C73.4626 27.0246 73.1444 26.9261 72.7315 26.9261C72.2959 26.9261 71.9493 27.0227 71.6918 27.2159C71.4342 27.4053 71.2637 27.6439 71.1804 27.9318L68.9418 27.75C69.0554 27.2197 69.2789 26.7614 69.6122 26.375C69.9455 25.9848 70.3755 25.6856 70.902 25.4773C71.4323 25.2652 72.0459 25.1591 72.7429 25.1591C73.2277 25.1591 73.6918 25.2159 74.1349 25.3295C74.5819 25.4432 74.9777 25.6193 75.3224 25.858C75.6709 26.0966 75.9455 26.4034 76.1463 26.7784C76.3471 27.1496 76.4474 27.5947 76.4474 28.1136V34H74.152V32.7898H74.0838C73.9437 33.0625 73.7562 33.303 73.5213 33.5114C73.2865 33.7159 73.0043 33.8769 72.6747 33.9943C72.3452 34.108 71.9645 34.1648 71.5327 34.1648ZM72.2259 32.4943C72.5819 32.4943 72.8963 32.4242 73.169 32.2841C73.4418 32.1402 73.6558 31.947 73.8111 31.7045C73.9664 31.4621 74.044 31.1875 74.044 30.8807V29.9545C73.9683 30.0038 73.8641 30.0492 73.7315 30.0909C73.6027 30.1288 73.4569 30.1648 73.294 30.1989C73.1312 30.2292 72.9683 30.2576 72.8054 30.2841C72.6425 30.3068 72.4948 30.3277 72.3622 30.3466C72.0781 30.3883 71.83 30.4545 71.6179 30.5455C71.4058 30.6364 71.241 30.7595 71.1236 30.9148C71.0062 31.0663 70.9474 31.2557 70.9474 31.483C70.9474 31.8125 71.0668 32.0644 71.3054 32.2386C71.5478 32.4091 71.8546 32.4943 72.2259 32.4943ZM82.9673 25.2727V27.0909H77.7116V25.2727H82.9673ZM78.9048 23.1818H81.3253V31.3182C81.3253 31.5417 81.3594 31.7159 81.4276 31.8409C81.4957 31.9621 81.5904 32.0473 81.7116 32.0966C81.8366 32.1458 81.9806 32.1705 82.1435 32.1705C82.2571 32.1705 82.3707 32.161 82.4844 32.142C82.598 32.1193 82.6851 32.1023 82.7457 32.0909L83.1264 33.892C83.0052 33.9299 82.8348 33.9735 82.6151 34.0227C82.3954 34.0758 82.1283 34.108 81.8139 34.1193C81.2306 34.142 80.7192 34.0644 80.2798 33.8864C79.8442 33.7083 79.5052 33.4318 79.2628 33.0568C79.0204 32.6818 78.901 32.2083 78.9048 31.6364V23.1818ZM88.3935 34.1705C87.5109 34.1705 86.7476 33.983 86.1037 33.608C85.4635 33.2292 84.9692 32.7027 84.6207 32.0284C84.2723 31.3504 84.098 30.5644 84.098 29.6705C84.098 28.7689 84.2723 27.9811 84.6207 27.3068C84.9692 26.6288 85.4635 26.1023 86.1037 25.7273C86.7476 25.3485 87.5109 25.1591 88.3935 25.1591C89.276 25.1591 90.0374 25.3485 90.6776 25.7273C91.3215 26.1023 91.8177 26.6288 92.1662 27.3068C92.5147 27.9811 92.6889 28.7689 92.6889 29.6705C92.6889 30.5644 92.5147 31.3504 92.1662 32.0284C91.8177 32.7027 91.3215 33.2292 90.6776 33.608C90.0374 33.983 89.276 34.1705 88.3935 34.1705ZM88.4048 32.2955C88.8063 32.2955 89.1416 32.1818 89.4105 31.9545C89.6795 31.7235 89.8821 31.4091 90.0185 31.0114C90.1586 30.6136 90.2287 30.161 90.2287 29.6534C90.2287 29.1458 90.1586 28.6932 90.0185 28.2955C89.8821 27.8977 89.6795 27.5833 89.4105 27.3523C89.1416 27.1212 88.8063 27.0057 88.4048 27.0057C87.9995 27.0057 87.6586 27.1212 87.3821 27.3523C87.1094 27.5833 86.9029 27.8977 86.7628 28.2955C86.6264 28.6932 86.5582 29.1458 86.5582 29.6534C86.5582 30.161 86.6264 30.6136 86.7628 31.0114C86.9029 31.4091 87.1094 31.7235 87.3821 31.9545C87.6586 32.1818 87.9995 32.2955 88.4048 32.2955Z" fill="white"/>
<path d="M212.129 15V3.36364H219.969V5.39205H214.589V8.16477H219.566V10.1932H214.589V12.9716H219.992V15H212.129ZM224.3 9.95455V15H221.88V6.27273H224.187V7.8125H224.289C224.482 7.30492 224.806 6.90341 225.261 6.60795C225.715 6.30871 226.266 6.15909 226.914 6.15909C227.52 6.15909 228.049 6.29167 228.499 6.55682C228.95 6.82197 229.3 7.20076 229.55 7.69318C229.8 8.18182 229.925 8.76515 229.925 9.44318V15H227.505V9.875C227.509 9.34091 227.372 8.92424 227.096 8.625C226.819 8.32197 226.439 8.17045 225.954 8.17045C225.628 8.17045 225.34 8.24053 225.09 8.38068C224.844 8.52083 224.651 8.72538 224.511 8.99432C224.374 9.25947 224.304 9.57955 224.3 9.95455ZM236.475 6.27273V8.09091H231.219V6.27273H236.475ZM232.413 4.18182H234.833V12.3182C234.833 12.5417 234.867 12.7159 234.935 12.8409C235.004 12.9621 235.098 13.0473 235.219 13.0966C235.344 13.1458 235.488 13.1705 235.651 13.1705C235.765 13.1705 235.879 13.161 235.992 13.142C236.106 13.1193 236.193 13.1023 236.254 13.0909L236.634 14.892C236.513 14.9299 236.343 14.9735 236.123 15.0227C235.903 15.0758 235.636 15.108 235.322 15.1193C234.738 15.142 234.227 15.0644 233.788 14.8864C233.352 14.7083 233.013 14.4318 232.771 14.0568C232.528 13.6818 232.409 13.2083 232.413 12.6364V4.18182ZM241.935 15.1705C241.038 15.1705 240.265 14.9886 239.617 14.625C238.973 14.2576 238.477 13.7386 238.129 13.0682C237.78 12.3939 237.606 11.5966 237.606 10.6761C237.606 9.77841 237.78 8.99053 238.129 8.3125C238.477 7.63447 238.968 7.10606 239.6 6.72727C240.237 6.34848 240.983 6.15909 241.839 6.15909C242.415 6.15909 242.951 6.25189 243.447 6.4375C243.947 6.61932 244.382 6.89394 244.754 7.26136C245.129 7.62879 245.42 8.09091 245.629 8.64773C245.837 9.20076 245.941 9.84848 245.941 10.5909V11.2557H238.572V9.75568H243.663C243.663 9.4072 243.587 9.09848 243.435 8.82955C243.284 8.56061 243.074 8.35038 242.805 8.19886C242.54 8.04356 242.231 7.96591 241.879 7.96591C241.511 7.96591 241.185 8.05114 240.901 8.22159C240.621 8.38826 240.401 8.61364 240.242 8.89773C240.083 9.17803 240.002 9.49053 239.998 9.83523V11.2614C239.998 11.6932 240.077 12.0663 240.237 12.3807C240.399 12.6951 240.629 12.9375 240.924 13.108C241.219 13.2784 241.57 13.3636 241.975 13.3636C242.244 13.3636 242.49 13.3258 242.714 13.25C242.937 13.1742 243.129 13.0606 243.288 12.9091C243.447 12.7576 243.568 12.572 243.651 12.3523L245.89 12.5C245.776 13.0379 245.543 13.5076 245.191 13.9091C244.843 14.3068 244.392 14.6174 243.839 14.8409C243.29 15.0606 242.655 15.1705 241.935 15.1705ZM249.941 9.95455V15H247.521V6.27273H249.827V7.8125H249.93C250.123 7.30492 250.447 6.90341 250.901 6.60795C251.356 6.30871 251.907 6.15909 252.555 6.15909C253.161 6.15909 253.689 6.29167 254.14 6.55682C254.591 6.82197 254.941 7.20076 255.191 7.69318C255.441 8.18182 255.566 8.76515 255.566 9.44318V15H253.146V9.875C253.149 9.34091 253.013 8.92424 252.737 8.625C252.46 8.32197 252.079 8.17045 251.594 8.17045C251.269 8.17045 250.981 8.24053 250.731 8.38068C250.485 8.52083 250.291 8.72538 250.151 8.99432C250.015 9.25947 249.945 9.57955 249.941 9.95455ZM260.69 15.142C260.027 15.142 259.426 14.9716 258.888 14.6307C258.354 14.286 257.93 13.7803 257.616 13.1136C257.305 12.4432 257.15 11.6212 257.15 10.6477C257.15 9.64773 257.311 8.81629 257.633 8.15341C257.955 7.48674 258.383 6.98864 258.917 6.65909C259.455 6.32576 260.044 6.15909 260.684 6.15909C261.173 6.15909 261.58 6.24242 261.906 6.40909C262.235 6.57197 262.5 6.77652 262.701 7.02273C262.906 7.26515 263.061 7.50379 263.167 7.73864H263.241V3.36364H265.656V15H263.269V13.6023H263.167C263.053 13.8447 262.892 14.0852 262.684 14.3239C262.479 14.5587 262.212 14.7538 261.883 14.9091C261.557 15.0644 261.159 15.142 260.69 15.142ZM261.457 13.2159C261.847 13.2159 262.176 13.1098 262.445 12.8977C262.718 12.6818 262.926 12.3807 263.07 11.9943C263.218 11.608 263.292 11.1553 263.292 10.6364C263.292 10.1174 263.22 9.66667 263.076 9.28409C262.932 8.90151 262.724 8.60606 262.451 8.39773C262.178 8.18939 261.847 8.08523 261.457 8.08523C261.059 8.08523 260.724 8.19318 260.451 8.40909C260.178 8.625 259.972 8.92424 259.832 9.30682C259.692 9.68939 259.621 10.1326 259.621 10.6364C259.621 11.1439 259.692 11.5928 259.832 11.983C259.976 12.3693 260.182 12.6723 260.451 12.892C260.724 13.108 261.059 13.2159 261.457 13.2159ZM271.623 15.1705C270.725 15.1705 269.952 14.9886 269.305 14.625C268.661 14.2576 268.165 13.7386 267.816 13.0682C267.468 12.3939 267.293 11.5966 267.293 10.6761C267.293 9.77841 267.468 8.99053 267.816 8.3125C268.165 7.63447 268.655 7.10606 269.288 6.72727C269.924 6.34848 270.67 6.15909 271.526 6.15909C272.102 6.15909 272.638 6.25189 273.134 6.4375C273.634 6.61932 274.07 6.89394 274.441 7.26136C274.816 7.62879 275.108 8.09091 275.316 8.64773C275.524 9.20076 275.629 9.84848 275.629 10.5909V11.2557H268.259V9.75568H273.35C273.35 9.4072 273.274 9.09848 273.123 8.82955C272.971 8.56061 272.761 8.35038 272.492 8.19886C272.227 8.04356 271.918 7.96591 271.566 7.96591C271.199 7.96591 270.873 8.05114 270.589 8.22159C270.308 8.38826 270.089 8.61364 269.93 8.89773C269.771 9.17803 269.689 9.49053 269.685 9.83523V11.2614C269.685 11.6932 269.765 12.0663 269.924 12.3807C270.087 12.6951 270.316 12.9375 270.612 13.108C270.907 13.2784 271.257 13.3636 271.663 13.3636C271.932 13.3636 272.178 13.3258 272.401 13.25C272.625 13.1742 272.816 13.0606 272.975 12.9091C273.134 12.7576 273.255 12.572 273.339 12.3523L275.577 12.5C275.464 13.0379 275.231 13.5076 274.879 13.9091C274.53 14.3068 274.079 14.6174 273.526 14.8409C272.977 15.0606 272.343 15.1705 271.623 15.1705ZM277.208 15V6.27273H279.555V7.79545H279.646C279.805 7.25379 280.072 6.8447 280.447 6.56818C280.822 6.28788 281.254 6.14773 281.742 6.14773C281.863 6.14773 281.994 6.1553 282.134 6.17045C282.274 6.18561 282.397 6.20644 282.504 6.23295V8.38068C282.39 8.34659 282.233 8.31629 282.032 8.28977C281.831 8.26326 281.647 8.25 281.481 8.25C281.125 8.25 280.807 8.32765 280.526 8.48295C280.25 8.63447 280.03 8.84659 279.867 9.11932C279.708 9.39205 279.629 9.70644 279.629 10.0625V15H277.208ZM287.326 15.1705C286.428 15.1705 285.656 14.9886 285.008 14.625C284.364 14.2576 283.868 13.7386 283.519 13.0682C283.171 12.3939 282.996 11.5966 282.996 10.6761C282.996 9.77841 283.171 8.99053 283.519 8.3125C283.868 7.63447 284.358 7.10606 284.991 6.72727C285.627 6.34848 286.373 6.15909 287.229 6.15909C287.805 6.15909 288.341 6.25189 288.837 6.4375C289.337 6.61932 289.773 6.89394 290.144 7.26136C290.519 7.62879 290.811 8.09091 291.019 8.64773C291.228 9.20076 291.332 9.84848 291.332 10.5909V11.2557H283.962V9.75568H289.053C289.053 9.4072 288.978 9.09848 288.826 8.82955C288.674 8.56061 288.464 8.35038 288.195 8.19886C287.93 8.04356 287.621 7.96591 287.269 7.96591C286.902 7.96591 286.576 8.05114 286.292 8.22159C286.012 8.38826 285.792 8.61364 285.633 8.89773C285.474 9.17803 285.392 9.49053 285.388 9.83523V11.2614C285.388 11.6932 285.468 12.0663 285.627 12.3807C285.79 12.6951 286.019 12.9375 286.315 13.108C286.61 13.2784 286.96 13.3636 287.366 13.3636C287.635 13.3636 287.881 13.3258 288.104 13.25C288.328 13.1742 288.519 13.0606 288.678 12.9091C288.837 12.7576 288.959 12.572 289.042 12.3523L291.281 12.5C291.167 13.0379 290.934 13.5076 290.582 13.9091C290.233 14.3068 289.782 14.6174 289.229 14.8409C288.68 15.0606 288.046 15.1705 287.326 15.1705ZM292.911 15V6.27273H295.218V7.8125H295.32C295.502 7.30114 295.805 6.89773 296.229 6.60227C296.654 6.30682 297.161 6.15909 297.752 6.15909C298.351 6.15909 298.86 6.30871 299.281 6.60795C299.701 6.90341 299.981 7.30492 300.121 7.8125H300.212C300.39 7.3125 300.712 6.91288 301.178 6.61364C301.648 6.31061 302.203 6.15909 302.843 6.15909C303.657 6.15909 304.318 6.41856 304.826 6.9375C305.337 7.45265 305.593 8.18371 305.593 9.13068V15H303.178V9.60795C303.178 9.12311 303.049 8.75947 302.792 8.51705C302.534 8.27462 302.212 8.15341 301.826 8.15341C301.387 8.15341 301.044 8.29356 300.798 8.57386C300.551 8.85038 300.428 9.21591 300.428 9.67045V15H298.082V9.55682C298.082 9.12879 297.959 8.78788 297.712 8.53409C297.47 8.2803 297.15 8.15341 296.752 8.15341C296.483 8.15341 296.241 8.22159 296.025 8.35795C295.813 8.49053 295.644 8.67803 295.519 8.92045C295.394 9.15909 295.332 9.43939 295.332 9.76136V15H292.911ZM311.448 15.1705C310.566 15.1705 309.802 14.983 309.158 14.608C308.518 14.2292 308.024 13.7027 307.675 13.0284C307.327 12.3504 307.153 11.5644 307.153 10.6705C307.153 9.76894 307.327 8.98106 307.675 8.30682C308.024 7.62879 308.518 7.10227 309.158 6.72727C309.802 6.34848 310.566 6.15909 311.448 6.15909C312.331 6.15909 313.092 6.34848 313.732 6.72727C314.376 7.10227 314.872 7.62879 315.221 8.30682C315.569 8.98106 315.744 9.76894 315.744 10.6705C315.744 11.5644 315.569 12.3504 315.221 13.0284C314.872 13.7027 314.376 14.2292 313.732 14.608C313.092 14.983 312.331 15.1705 311.448 15.1705ZM311.46 13.2955C311.861 13.2955 312.196 13.1818 312.465 12.9545C312.734 12.7235 312.937 12.4091 313.073 12.0114C313.213 11.6136 313.283 11.161 313.283 10.6534C313.283 10.1458 313.213 9.69318 313.073 9.29545C312.937 8.89773 312.734 8.58333 312.465 8.35227C312.196 8.12121 311.861 8.00568 311.46 8.00568C311.054 8.00568 310.713 8.12121 310.437 8.35227C310.164 8.58333 309.958 8.89773 309.817 9.29545C309.681 9.69318 309.613 10.1458 309.613 10.6534C309.613 11.161 309.681 11.6136 309.817 12.0114C309.958 12.4091 310.164 12.7235 310.437 12.9545C310.713 13.1818 311.054 13.2955 311.46 13.2955ZM324.579 8.76136L322.363 8.89773C322.325 8.70833 322.244 8.53788 322.119 8.38636C321.994 8.23106 321.829 8.10795 321.624 8.01705C321.424 7.92235 321.183 7.875 320.903 7.875C320.528 7.875 320.211 7.95455 319.954 8.11364C319.696 8.26894 319.567 8.47727 319.567 8.73864C319.567 8.94697 319.651 9.12311 319.817 9.26705C319.984 9.41098 320.27 9.52652 320.675 9.61364L322.255 9.93182C323.103 10.1061 323.736 10.3864 324.153 10.7727C324.569 11.1591 324.778 11.6667 324.778 12.2955C324.778 12.8674 324.609 13.3693 324.272 13.8011C323.939 14.233 323.48 14.5701 322.897 14.8125C322.317 15.0511 321.649 15.1705 320.891 15.1705C319.736 15.1705 318.816 14.9299 318.13 14.4489C317.448 13.964 317.049 13.3049 316.931 12.4716L319.312 12.3466C319.384 12.6989 319.558 12.9678 319.835 13.1534C320.111 13.3352 320.465 13.4261 320.897 13.4261C321.321 13.4261 321.662 13.3447 321.92 13.1818C322.181 13.0152 322.314 12.8011 322.317 12.5398C322.314 12.3201 322.221 12.1402 322.039 12C321.857 11.8561 321.577 11.7462 321.198 11.6705L319.687 11.3693C318.835 11.1989 318.2 10.9034 317.783 10.483C317.371 10.0625 317.164 9.52652 317.164 8.875C317.164 8.31439 317.316 7.83144 317.619 7.42614C317.925 7.02083 318.355 6.70833 318.908 6.48864C319.465 6.26894 320.117 6.15909 320.863 6.15909C321.965 6.15909 322.833 6.39205 323.465 6.85795C324.102 7.32386 324.473 7.95833 324.579 8.76136ZM330.005 15V6.27273H332.312V7.8125H332.414C332.596 7.30114 332.899 6.89773 333.323 6.60227C333.747 6.30682 334.255 6.15909 334.846 6.15909C335.444 6.15909 335.954 6.30871 336.374 6.60795C336.795 6.90341 337.075 7.30492 337.215 7.8125H337.306C337.484 7.3125 337.806 6.91288 338.272 6.61364C338.742 6.31061 339.297 6.15909 339.937 6.15909C340.751 6.15909 341.412 6.41856 341.92 6.9375C342.431 7.45265 342.687 8.18371 342.687 9.13068V15H340.272V9.60795C340.272 9.12311 340.143 8.75947 339.886 8.51705C339.628 8.27462 339.306 8.15341 338.92 8.15341C338.48 8.15341 338.138 8.29356 337.891 8.57386C337.645 8.85038 337.522 9.21591 337.522 9.67045V15H335.175V9.55682C335.175 9.12879 335.052 8.78788 334.806 8.53409C334.564 8.2803 334.244 8.15341 333.846 8.15341C333.577 8.15341 333.335 8.22159 333.119 8.35795C332.906 8.49053 332.738 8.67803 332.613 8.92045C332.488 9.15909 332.425 9.43939 332.425 9.76136V15H330.005ZM348.576 15.1705C347.678 15.1705 346.906 14.9886 346.258 14.625C345.614 14.2576 345.118 13.7386 344.769 13.0682C344.421 12.3939 344.246 11.5966 344.246 10.6761C344.246 9.77841 344.421 8.99053 344.769 8.3125C345.118 7.63447 345.608 7.10606 346.241 6.72727C346.877 6.34848 347.623 6.15909 348.479 6.15909C349.055 6.15909 349.591 6.25189 350.087 6.4375C350.587 6.61932 351.023 6.89394 351.394 7.26136C351.769 7.62879 352.061 8.09091 352.269 8.64773C352.478 9.20076 352.582 9.84848 352.582 10.5909V11.2557H345.212V9.75568H350.303C350.303 9.4072 350.228 9.09848 350.076 8.82955C349.924 8.56061 349.714 8.35038 349.445 8.19886C349.18 8.04356 348.871 7.96591 348.519 7.96591C348.152 7.96591 347.826 8.05114 347.542 8.22159C347.262 8.38826 347.042 8.61364 346.883 8.89773C346.724 9.17803 346.642 9.49053 346.638 9.83523V11.2614C346.638 11.6932 346.718 12.0663 346.877 12.3807C347.04 12.6951 347.269 12.9375 347.565 13.108C347.86 13.2784 348.21 13.3636 348.616 13.3636C348.885 13.3636 349.131 13.3258 349.354 13.25C349.578 13.1742 349.769 13.0606 349.928 12.9091C350.087 12.7576 350.209 12.572 350.292 12.3523L352.531 12.5C352.417 13.0379 352.184 13.5076 351.832 13.9091C351.483 14.3068 351.032 14.6174 350.479 14.8409C349.93 15.0606 349.296 15.1705 348.576 15.1705ZM356.582 3.36364V15H354.161V3.36364H356.582ZM360.941 9.95455V15H358.521V3.36364H360.873V7.8125H360.975C361.172 7.29735 361.49 6.89394 361.93 6.60227C362.369 6.30682 362.92 6.15909 363.583 6.15909C364.189 6.15909 364.718 6.29167 365.168 6.55682C365.623 6.81818 365.975 7.19508 366.225 7.6875C366.479 8.17614 366.604 8.76136 366.6 9.44318V15H364.18V9.875C364.183 9.33712 364.047 8.91856 363.771 8.61932C363.498 8.32008 363.115 8.17045 362.623 8.17045C362.293 8.17045 362.002 8.24053 361.748 8.38068C361.498 8.52083 361.301 8.72538 361.157 8.99432C361.017 9.25947 360.945 9.57955 360.941 9.95455ZM372.448 15.1705C371.566 15.1705 370.802 14.983 370.158 14.608C369.518 14.2292 369.024 13.7027 368.675 13.0284C368.327 12.3504 368.153 11.5644 368.153 10.6705C368.153 9.76894 368.327 8.98106 368.675 8.30682C369.024 7.62879 369.518 7.10227 370.158 6.72727C370.802 6.34848 371.566 6.15909 372.448 6.15909C373.331 6.15909 374.092 6.34848 374.732 6.72727C375.376 7.10227 375.872 7.62879 376.221 8.30682C376.569 8.98106 376.744 9.76894 376.744 10.6705C376.744 11.5644 376.569 12.3504 376.221 13.0284C375.872 13.7027 375.376 14.2292 374.732 14.608C374.092 14.983 373.331 15.1705 372.448 15.1705ZM372.46 13.2955C372.861 13.2955 373.196 13.1818 373.465 12.9545C373.734 12.7235 373.937 12.4091 374.073 12.0114C374.213 11.6136 374.283 11.161 374.283 10.6534C374.283 10.1458 374.213 9.69318 374.073 9.29545C373.937 8.89773 373.734 8.58333 373.465 8.35227C373.196 8.12121 372.861 8.00568 372.46 8.00568C372.054 8.00568 371.713 8.12121 371.437 8.35227C371.164 8.58333 370.958 8.89773 370.817 9.29545C370.681 9.69318 370.613 10.1458 370.613 10.6534C370.613 11.161 370.681 11.6136 370.817 12.0114C370.958 12.4091 371.164 12.7235 371.437 12.9545C371.713 13.1818 372.054 13.2955 372.46 13.2955ZM378.317 15V6.27273H380.664V7.79545H380.755C380.914 7.25379 381.181 6.8447 381.556 6.56818C381.931 6.28788 382.363 6.14773 382.852 6.14773C382.973 6.14773 383.103 6.1553 383.244 6.17045C383.384 6.18561 383.507 6.20644 383.613 6.23295V8.38068C383.499 8.34659 383.342 8.31629 383.141 8.28977C382.941 8.26326 382.757 8.25 382.59 8.25C382.234 8.25 381.916 8.32765 381.636 8.48295C381.359 8.63447 381.139 8.84659 380.977 9.11932C380.817 9.39205 380.738 9.70644 380.738 10.0625V15H378.317ZM391.056 15.1648C390.499 15.1648 390.003 15.0682 389.567 14.875C389.132 14.678 388.787 14.3883 388.533 14.0057C388.283 13.6193 388.158 13.1383 388.158 12.5625C388.158 12.0777 388.247 11.6705 388.425 11.3409C388.603 11.0114 388.846 10.7462 389.153 10.5455C389.46 10.3447 389.808 10.1932 390.198 10.0909C390.592 9.98864 391.005 9.91667 391.437 9.875C391.944 9.82197 392.353 9.77273 392.664 9.72727C392.975 9.67803 393.2 9.60606 393.34 9.51136C393.48 9.41667 393.55 9.27652 393.55 9.09091V9.05682C393.55 8.69697 393.437 8.41856 393.21 8.22159C392.986 8.02462 392.668 7.92614 392.255 7.92614C391.819 7.92614 391.473 8.02273 391.215 8.21591C390.958 8.4053 390.787 8.64394 390.704 8.93182L388.465 8.75C388.579 8.2197 388.802 7.76136 389.136 7.375C389.469 6.98485 389.899 6.68561 390.425 6.47727C390.956 6.26515 391.569 6.15909 392.266 6.15909C392.751 6.15909 393.215 6.21591 393.658 6.32955C394.105 6.44318 394.501 6.61932 394.846 6.85795C395.194 7.09659 395.469 7.40341 395.67 7.77841C395.871 8.14962 395.971 8.5947 395.971 9.11364V15H393.675V13.7898H393.607C393.467 14.0625 393.28 14.303 393.045 14.5114C392.81 14.7159 392.528 14.8769 392.198 14.9943C391.869 15.108 391.488 15.1648 391.056 15.1648ZM391.749 13.4943C392.105 13.4943 392.42 13.4242 392.692 13.2841C392.965 13.1402 393.179 12.947 393.335 12.7045C393.49 12.4621 393.567 12.1875 393.567 11.8807V10.9545C393.492 11.0038 393.388 11.0492 393.255 11.0909C393.126 11.1288 392.98 11.1648 392.817 11.1989C392.655 11.2292 392.492 11.2576 392.329 11.2841C392.166 11.3068 392.018 11.3277 391.886 11.3466C391.602 11.3883 391.353 11.4545 391.141 11.5455C390.929 11.6364 390.764 11.7595 390.647 11.9148C390.53 12.0663 390.471 12.2557 390.471 12.483C390.471 12.8125 390.59 13.0644 390.829 13.2386C391.071 13.4091 391.378 13.4943 391.749 13.4943ZM246.274 27.7614L244.058 27.8977C244.02 27.7083 243.939 27.5379 243.814 27.3864C243.689 27.2311 243.524 27.108 243.32 27.017C243.119 26.9223 242.878 26.875 242.598 26.875C242.223 26.875 241.907 26.9545 241.649 27.1136C241.392 27.2689 241.263 27.4773 241.263 27.7386C241.263 27.947 241.346 28.1231 241.513 28.267C241.679 28.411 241.965 28.5265 242.371 28.6136L243.95 28.9318C244.799 29.1061 245.431 29.3864 245.848 29.7727C246.265 30.1591 246.473 30.6667 246.473 31.2955C246.473 31.8674 246.304 32.3693 245.967 32.8011C245.634 33.233 245.176 33.5701 244.592 33.8125C244.013 34.0511 243.344 34.1705 242.587 34.1705C241.431 34.1705 240.511 33.9299 239.825 33.4489C239.143 32.964 238.744 32.3049 238.626 31.4716L241.007 31.3466C241.079 31.6989 241.253 31.9678 241.53 32.1534C241.806 32.3352 242.161 32.4261 242.592 32.4261C243.017 32.4261 243.357 32.3447 243.615 32.1818C243.876 32.0152 244.009 31.8011 244.013 31.5398C244.009 31.3201 243.916 31.1402 243.734 31C243.553 30.8561 243.272 30.7462 242.893 30.6705L241.382 30.3693C240.53 30.1989 239.895 29.9034 239.479 29.483C239.066 29.0625 238.859 28.5265 238.859 27.875C238.859 27.3144 239.011 26.8314 239.314 26.4261C239.621 26.0208 240.051 25.7083 240.604 25.4886C241.161 25.2689 241.812 25.1591 242.558 25.1591C243.661 25.1591 244.528 25.392 245.161 25.858C245.797 26.3239 246.168 26.9583 246.274 27.7614ZM253.594 30.2841V25.2727H256.014V34H253.69V32.4148H253.599C253.402 32.9261 253.075 33.3371 252.616 33.6477C252.162 33.9583 251.607 34.1136 250.952 34.1136C250.368 34.1136 249.855 33.9811 249.412 33.7159C248.969 33.4508 248.622 33.0739 248.372 32.5852C248.126 32.0966 248.001 31.5114 247.997 30.8295V25.2727H250.418V30.3977C250.421 30.9129 250.56 31.3201 250.832 31.6193C251.105 31.9186 251.471 32.0682 251.929 32.0682C252.221 32.0682 252.493 32.0019 252.747 31.8693C253.001 31.733 253.205 31.5322 253.361 31.267C253.52 31.0019 253.598 30.6742 253.594 30.2841ZM260.439 34.1648C259.882 34.1648 259.386 34.0682 258.95 33.875C258.515 33.678 258.17 33.3883 257.916 33.0057C257.666 32.6193 257.541 32.1383 257.541 31.5625C257.541 31.0777 257.63 30.6705 257.808 30.3409C257.986 30.0114 258.229 29.7462 258.536 29.5455C258.842 29.3447 259.191 29.1932 259.581 29.0909C259.975 28.9886 260.388 28.9167 260.82 28.875C261.327 28.822 261.736 28.7727 262.047 28.7273C262.357 28.678 262.583 28.6061 262.723 28.5114C262.863 28.4167 262.933 28.2765 262.933 28.0909V28.0568C262.933 27.697 262.82 27.4186 262.592 27.2216C262.369 27.0246 262.051 26.9261 261.638 26.9261C261.202 26.9261 260.856 27.0227 260.598 27.2159C260.34 27.4053 260.17 27.6439 260.087 27.9318L257.848 27.75C257.962 27.2197 258.185 26.7614 258.518 26.375C258.852 25.9848 259.282 25.6856 259.808 25.4773C260.339 25.2652 260.952 25.1591 261.649 25.1591C262.134 25.1591 262.598 25.2159 263.041 25.3295C263.488 25.4432 263.884 25.6193 264.229 25.858C264.577 26.0966 264.852 26.4034 265.053 26.7784C265.253 27.1496 265.354 27.5947 265.354 28.1136V34H263.058V32.7898H262.99C262.85 33.0625 262.662 33.303 262.428 33.5114C262.193 33.7159 261.911 33.8769 261.581 33.9943C261.251 34.108 260.871 34.1648 260.439 34.1648ZM261.132 32.4943C261.488 32.4943 261.803 32.4242 262.075 32.2841C262.348 32.1402 262.562 31.947 262.717 31.7045C262.873 31.4621 262.95 31.1875 262.95 30.8807V29.9545C262.875 30.0038 262.77 30.0492 262.638 30.0909C262.509 30.1288 262.363 30.1648 262.2 30.1989C262.037 30.2292 261.875 30.2576 261.712 30.2841C261.549 30.3068 261.401 30.3277 261.268 30.3466C260.984 30.3883 260.736 30.4545 260.524 30.5455C260.312 30.6364 260.147 30.7595 260.03 30.9148C259.912 31.0663 259.854 31.2557 259.854 31.483C259.854 31.8125 259.973 32.0644 260.212 32.2386C260.454 32.4091 260.761 32.4943 261.132 32.4943ZM273.355 28.9545V34H270.935V25.2727H273.241V26.8125H273.344C273.537 26.3049 273.861 25.9034 274.315 25.608C274.77 25.3087 275.321 25.1591 275.969 25.1591C276.575 25.1591 277.103 25.2917 277.554 25.5568C278.005 25.822 278.355 26.2008 278.605 26.6932C278.855 27.1818 278.98 27.7652 278.98 28.4432V34H276.56V28.875C276.563 28.3409 276.427 27.9242 276.151 27.625C275.874 27.322 275.493 27.1705 275.009 27.1705C274.683 27.1705 274.395 27.2405 274.145 27.3807C273.899 27.5208 273.705 27.7254 273.565 27.9943C273.429 28.2595 273.359 28.5795 273.355 28.9545ZM284.865 34.1705C283.967 34.1705 283.195 33.9886 282.547 33.625C281.903 33.2576 281.407 32.7386 281.058 32.0682C280.71 31.3939 280.536 30.5966 280.536 29.6761C280.536 28.7784 280.71 27.9905 281.058 27.3125C281.407 26.6345 281.897 26.1061 282.53 25.7273C283.166 25.3485 283.912 25.1591 284.768 25.1591C285.344 25.1591 285.88 25.2519 286.376 25.4375C286.876 25.6193 287.312 25.8939 287.683 26.2614C288.058 26.6288 288.35 27.0909 288.558 27.6477C288.767 28.2008 288.871 28.8485 288.871 29.5909V30.2557H281.501V28.7557H286.592C286.592 28.4072 286.517 28.0985 286.365 27.8295C286.214 27.5606 286.003 27.3504 285.734 27.1989C285.469 27.0436 285.161 26.9659 284.808 26.9659C284.441 26.9659 284.115 27.0511 283.831 27.2216C283.551 27.3883 283.331 27.6136 283.172 27.8977C283.013 28.178 282.931 28.4905 282.928 28.8352V30.2614C282.928 30.6932 283.007 31.0663 283.166 31.3807C283.329 31.6951 283.558 31.9375 283.854 32.108C284.149 32.2784 284.5 32.3636 284.905 32.3636C285.174 32.3636 285.42 32.3258 285.643 32.25C285.867 32.1742 286.058 32.0606 286.217 31.9091C286.376 31.7576 286.498 31.572 286.581 31.3523L288.82 31.5C288.706 32.0379 288.473 32.5076 288.121 32.9091C287.772 33.3068 287.321 33.6174 286.768 33.8409C286.219 34.0606 285.585 34.1705 284.865 34.1705ZM294.393 34.1705C293.5 34.1705 292.731 33.9811 292.087 33.6023C291.446 33.2197 290.954 32.6894 290.609 32.0114C290.268 31.3333 290.098 30.553 290.098 29.6705C290.098 28.7765 290.27 27.9924 290.615 27.3182C290.964 26.6402 291.458 26.1117 292.098 25.733C292.738 25.3504 293.5 25.1591 294.382 25.1591C295.143 25.1591 295.81 25.2973 296.382 25.5739C296.954 25.8504 297.407 26.2386 297.74 26.7386C298.073 27.2386 298.257 27.8258 298.291 28.5H296.007C295.943 28.0644 295.772 27.714 295.496 27.4489C295.223 27.1799 294.865 27.0455 294.422 27.0455C294.047 27.0455 293.719 27.1477 293.439 27.3523C293.162 27.553 292.946 27.8466 292.791 28.233C292.636 28.6193 292.558 29.0871 292.558 29.6364C292.558 30.1932 292.634 30.6667 292.786 31.0568C292.941 31.447 293.159 31.7443 293.439 31.9489C293.719 32.1534 294.047 32.2557 294.422 32.2557C294.698 32.2557 294.946 32.1989 295.166 32.0852C295.39 31.9716 295.573 31.8068 295.717 31.5909C295.865 31.3712 295.962 31.108 296.007 30.8011H298.291C298.253 31.4678 298.071 32.0549 297.746 32.5625C297.424 33.0663 296.979 33.4602 296.411 33.7443C295.842 34.0284 295.17 34.1705 294.393 34.1705ZM303.818 34.1705C302.92 34.1705 302.148 33.9886 301.5 33.625C300.856 33.2576 300.36 32.7386 300.011 32.0682C299.663 31.3939 299.489 30.5966 299.489 29.6761C299.489 28.7784 299.663 27.9905 300.011 27.3125C300.36 26.6345 300.85 26.1061 301.483 25.7273C302.119 25.3485 302.866 25.1591 303.722 25.1591C304.297 25.1591 304.833 25.2519 305.33 25.4375C305.83 25.6193 306.265 25.8939 306.636 26.2614C307.011 26.6288 307.303 27.0909 307.511 27.6477C307.72 28.2008 307.824 28.8485 307.824 29.5909V30.2557H300.455V28.7557H305.545C305.545 28.4072 305.47 28.0985 305.318 27.8295C305.167 27.5606 304.956 27.3504 304.688 27.1989C304.422 27.0436 304.114 26.9659 303.761 26.9659C303.394 26.9659 303.068 27.0511 302.784 27.2216C302.504 27.3883 302.284 27.6136 302.125 27.8977C301.966 28.178 301.884 28.4905 301.881 28.8352V30.2614C301.881 30.6932 301.96 31.0663 302.119 31.3807C302.282 31.6951 302.511 31.9375 302.807 32.108C303.102 32.2784 303.453 32.3636 303.858 32.3636C304.127 32.3636 304.373 32.3258 304.597 32.25C304.82 32.1742 305.011 32.0606 305.17 31.9091C305.33 31.7576 305.451 31.572 305.534 31.3523L307.773 31.5C307.659 32.0379 307.426 32.5076 307.074 32.9091C306.725 33.3068 306.275 33.6174 305.722 33.8409C305.172 34.0606 304.538 34.1705 303.818 34.1705ZM316.665 27.7614L314.449 27.8977C314.411 27.7083 314.33 27.5379 314.205 27.3864C314.08 27.2311 313.915 27.108 313.71 27.017C313.509 26.9223 313.269 26.875 312.989 26.875C312.614 26.875 312.297 26.9545 312.04 27.1136C311.782 27.2689 311.653 27.4773 311.653 27.7386C311.653 27.947 311.737 28.1231 311.903 28.267C312.07 28.411 312.356 28.5265 312.761 28.6136L314.341 28.9318C315.189 29.1061 315.822 29.3864 316.239 29.7727C316.655 30.1591 316.864 30.6667 316.864 31.2955C316.864 31.8674 316.695 32.3693 316.358 32.8011C316.025 33.233 315.566 33.5701 314.983 33.8125C314.403 34.0511 313.735 34.1705 312.977 34.1705C311.822 34.1705 310.902 33.9299 310.216 33.4489C309.534 32.964 309.134 32.3049 309.017 31.4716L311.398 31.3466C311.47 31.6989 311.644 31.9678 311.92 32.1534C312.197 32.3352 312.551 32.4261 312.983 32.4261C313.407 32.4261 313.748 32.3447 314.006 32.1818C314.267 32.0152 314.4 31.8011 314.403 31.5398C314.4 31.3201 314.307 31.1402 314.125 31C313.943 30.8561 313.663 30.7462 313.284 30.6705L311.773 30.3693C310.92 30.1989 310.286 29.9034 309.869 29.483C309.456 29.0625 309.25 28.5265 309.25 27.875C309.25 27.3144 309.402 26.8314 309.705 26.4261C310.011 26.0208 310.441 25.7083 310.994 25.4886C311.551 25.2689 312.203 25.1591 312.949 25.1591C314.051 25.1591 314.919 25.392 315.551 25.858C316.188 26.3239 316.559 26.9583 316.665 27.7614ZM325.649 27.7614L323.433 27.8977C323.395 27.7083 323.314 27.5379 323.189 27.3864C323.064 27.2311 322.899 27.108 322.695 27.017C322.494 26.9223 322.253 26.875 321.973 26.875C321.598 26.875 321.282 26.9545 321.024 27.1136C320.767 27.2689 320.638 27.4773 320.638 27.7386C320.638 27.947 320.721 28.1231 320.888 28.267C321.054 28.411 321.34 28.5265 321.746 28.6136L323.325 28.9318C324.174 29.1061 324.806 29.3864 325.223 29.7727C325.64 30.1591 325.848 30.6667 325.848 31.2955C325.848 31.8674 325.679 32.3693 325.342 32.8011C325.009 33.233 324.551 33.5701 323.967 33.8125C323.388 34.0511 322.719 34.1705 321.962 34.1705C320.806 34.1705 319.886 33.9299 319.2 33.4489C318.518 32.964 318.119 32.3049 318.001 31.4716L320.382 31.3466C320.454 31.6989 320.628 31.9678 320.905 32.1534C321.181 32.3352 321.536 32.4261 321.967 32.4261C322.392 32.4261 322.732 32.3447 322.99 32.1818C323.251 32.0152 323.384 31.8011 323.388 31.5398C323.384 31.3201 323.291 31.1402 323.109 31C322.928 30.8561 322.647 30.7462 322.268 30.6705L320.757 30.3693C319.905 30.1989 319.27 29.9034 318.854 29.483C318.441 29.0625 318.234 28.5265 318.234 27.875C318.234 27.3144 318.386 26.8314 318.689 26.4261C318.996 26.0208 319.426 25.7083 319.979 25.4886C320.536 25.2689 321.187 25.1591 321.933 25.1591C323.036 25.1591 323.903 25.392 324.536 25.858C325.172 26.3239 325.543 26.9583 325.649 27.7614ZM327.372 34V25.2727H329.793V34H327.372ZM328.588 24.1477C328.228 24.1477 327.92 24.0284 327.662 23.7898C327.408 23.5473 327.281 23.2576 327.281 22.9205C327.281 22.5871 327.408 22.3011 327.662 22.0625C327.92 21.8201 328.228 21.6989 328.588 21.6989C328.948 21.6989 329.255 21.8201 329.509 22.0625C329.766 22.3011 329.895 22.5871 329.895 22.9205C329.895 23.2576 329.766 23.5473 329.509 23.7898C329.255 24.0284 328.948 24.1477 328.588 24.1477ZM334.947 34.142C334.285 34.142 333.684 33.9716 333.146 33.6307C332.612 33.286 332.188 32.7803 331.874 32.1136C331.563 31.4432 331.408 30.6212 331.408 29.6477C331.408 28.6477 331.569 27.8163 331.891 27.1534C332.213 26.4867 332.641 25.9886 333.175 25.6591C333.713 25.3258 334.302 25.1591 334.942 25.1591C335.43 25.1591 335.838 25.2424 336.163 25.4091C336.493 25.572 336.758 25.7765 336.959 26.0227C337.163 26.2652 337.319 26.5038 337.425 26.7386H337.499V22.3636H339.913V34H337.527V32.6023H337.425C337.311 32.8447 337.15 33.0852 336.942 33.3239C336.737 33.5587 336.47 33.7538 336.141 33.9091C335.815 34.0644 335.417 34.142 334.947 34.142ZM335.714 32.2159C336.105 32.2159 336.434 32.1098 336.703 31.8977C336.976 31.6818 337.184 31.3807 337.328 30.9943C337.476 30.608 337.55 30.1553 337.55 29.6364C337.55 29.1174 337.478 28.6667 337.334 28.2841C337.19 27.9015 336.982 27.6061 336.709 27.3977C336.436 27.1894 336.105 27.0852 335.714 27.0852C335.317 27.0852 334.982 27.1932 334.709 27.4091C334.436 27.625 334.23 27.9242 334.089 28.3068C333.949 28.6894 333.879 29.1326 333.879 29.6364C333.879 30.1439 333.949 30.5928 334.089 30.983C334.233 31.3693 334.44 31.6723 334.709 31.892C334.982 32.108 335.317 32.2159 335.714 32.2159ZM344.392 34.1648C343.835 34.1648 343.339 34.0682 342.903 33.875C342.468 33.678 342.123 33.3883 341.869 33.0057C341.619 32.6193 341.494 32.1383 341.494 31.5625C341.494 31.0777 341.583 30.6705 341.761 30.3409C341.939 30.0114 342.182 29.7462 342.489 29.5455C342.795 29.3447 343.144 29.1932 343.534 29.0909C343.928 28.9886 344.341 28.9167 344.773 28.875C345.28 28.822 345.689 28.7727 346 28.7273C346.311 28.678 346.536 28.6061 346.676 28.5114C346.816 28.4167 346.886 28.2765 346.886 28.0909V28.0568C346.886 27.697 346.773 27.4186 346.545 27.2216C346.322 27.0246 346.004 26.9261 345.591 26.9261C345.155 26.9261 344.809 27.0227 344.551 27.2159C344.294 27.4053 344.123 27.6439 344.04 27.9318L341.801 27.75C341.915 27.2197 342.138 26.7614 342.472 26.375C342.805 25.9848 343.235 25.6856 343.761 25.4773C344.292 25.2652 344.905 25.1591 345.602 25.1591C346.087 25.1591 346.551 25.2159 346.994 25.3295C347.441 25.4432 347.837 25.6193 348.182 25.858C348.53 26.0966 348.805 26.4034 349.006 26.7784C349.206 27.1496 349.307 27.5947 349.307 28.1136V34H347.011V32.7898H346.943C346.803 33.0625 346.616 33.303 346.381 33.5114C346.146 33.7159 345.864 33.8769 345.534 33.9943C345.205 34.108 344.824 34.1648 344.392 34.1648ZM345.085 32.4943C345.441 32.4943 345.756 32.4242 346.028 32.2841C346.301 32.1402 346.515 31.947 346.67 31.7045C346.826 31.4621 346.903 31.1875 346.903 30.8807V29.9545C346.828 30.0038 346.723 30.0492 346.591 30.0909C346.462 30.1288 346.316 30.1648 346.153 30.1989C345.991 30.2292 345.828 30.2576 345.665 30.2841C345.502 30.3068 345.354 30.3277 345.222 30.3466C344.938 30.3883 344.689 30.4545 344.477 30.5455C344.265 30.6364 344.1 30.7595 343.983 30.9148C343.866 31.0663 343.807 31.2557 343.807 31.483C343.807 31.8125 343.926 32.0644 344.165 32.2386C344.407 32.4091 344.714 32.4943 345.085 32.4943ZM354.401 34.142C353.738 34.142 353.137 33.9716 352.599 33.6307C352.065 33.286 351.641 32.7803 351.327 32.1136C351.016 31.4432 350.861 30.6212 350.861 29.6477C350.861 28.6477 351.022 27.8163 351.344 27.1534C351.666 26.4867 352.094 25.9886 352.628 25.6591C353.166 25.3258 353.755 25.1591 354.395 25.1591C354.884 25.1591 355.291 25.2424 355.616 25.4091C355.946 25.572 356.211 25.7765 356.412 26.0227C356.616 26.2652 356.772 26.5038 356.878 26.7386H356.952V22.3636H359.366V34H356.98V32.6023H356.878C356.764 32.8447 356.603 33.0852 356.395 33.3239C356.19 33.5587 355.923 33.7538 355.594 33.9091C355.268 34.0644 354.87 34.142 354.401 34.142ZM355.168 32.2159C355.558 32.2159 355.887 32.1098 356.156 31.8977C356.429 31.6818 356.637 31.3807 356.781 30.9943C356.929 30.608 357.003 30.1553 357.003 29.6364C357.003 29.1174 356.931 28.6667 356.787 28.2841C356.643 27.9015 356.435 27.6061 356.162 27.3977C355.889 27.1894 355.558 27.0852 355.168 27.0852C354.77 27.0852 354.435 27.1932 354.162 27.4091C353.889 27.625 353.683 27.9242 353.543 28.3068C353.402 28.6894 353.332 29.1326 353.332 29.6364C353.332 30.1439 353.402 30.5928 353.543 30.983C353.687 31.3693 353.893 31.6723 354.162 31.892C354.435 32.108 354.77 32.2159 355.168 32.2159ZM365.334 34.1705C364.436 34.1705 363.663 33.9886 363.016 33.625C362.372 33.2576 361.875 32.7386 361.527 32.0682C361.179 31.3939 361.004 30.5966 361.004 29.6761C361.004 28.7784 361.179 27.9905 361.527 27.3125C361.875 26.6345 362.366 26.1061 362.999 25.7273C363.635 25.3485 364.381 25.1591 365.237 25.1591C365.813 25.1591 366.349 25.2519 366.845 25.4375C367.345 25.6193 367.781 25.8939 368.152 26.2614C368.527 26.6288 368.819 27.0909 369.027 27.6477C369.235 28.2008 369.339 28.8485 369.339 29.5909V30.2557H361.97V28.7557H367.061C367.061 28.4072 366.985 28.0985 366.834 27.8295C366.682 27.5606 366.472 27.3504 366.203 27.1989C365.938 27.0436 365.629 26.9659 365.277 26.9659C364.91 26.9659 364.584 27.0511 364.3 27.2216C364.019 27.3883 363.8 27.6136 363.641 27.8977C363.482 28.178 363.4 28.4905 363.396 28.8352V30.2614C363.396 30.6932 363.476 31.0663 363.635 31.3807C363.798 31.6951 364.027 31.9375 364.322 32.108C364.618 32.2784 364.968 32.3636 365.374 32.3636C365.643 32.3636 365.889 32.3258 366.112 32.25C366.336 32.1742 366.527 32.0606 366.686 31.9091C366.845 31.7576 366.966 31.572 367.05 31.3523L369.288 31.5C369.175 32.0379 368.942 32.5076 368.589 32.9091C368.241 33.3068 367.79 33.6174 367.237 33.8409C366.688 34.0606 366.054 34.1705 365.334 34.1705Z" fill="white"/>
<path d="M486.277 15V3.36364H494.118V5.39205H488.737V8.16477H493.714V10.1932H488.737V12.9716H494.141V15H486.277ZM498.449 9.95455V15H496.028V6.27273H498.335V7.8125H498.438C498.631 7.30492 498.955 6.90341 499.409 6.60795C499.864 6.30871 500.415 6.15909 501.062 6.15909C501.669 6.15909 502.197 6.29167 502.648 6.55682C503.098 6.82197 503.449 7.20076 503.699 7.69318C503.949 8.18182 504.074 8.76515 504.074 9.44318V15H501.653V9.875C501.657 9.34091 501.521 8.92424 501.244 8.625C500.968 8.32197 500.587 8.17045 500.102 8.17045C499.777 8.17045 499.489 8.24053 499.239 8.38068C498.992 8.52083 498.799 8.72538 498.659 8.99432C498.523 9.25947 498.453 9.57955 498.449 9.95455ZM513.805 6.27273L510.754 15H508.027L504.976 6.27273H507.533L509.345 12.517H509.436L511.243 6.27273H513.805ZM515.044 15V6.27273H517.464V15H515.044ZM516.26 5.14773C515.9 5.14773 515.591 5.02841 515.334 4.78977C515.08 4.54735 514.953 4.25758 514.953 3.92045C514.953 3.58712 515.08 3.30114 515.334 3.0625C515.591 2.82008 515.9 2.69886 516.26 2.69886C516.62 2.69886 516.927 2.82008 517.18 3.0625C517.438 3.30114 517.567 3.58712 517.567 3.92045C517.567 4.25758 517.438 4.54735 517.18 4.78977C516.927 5.02841 516.62 5.14773 516.26 5.14773ZM521.892 15.1648C521.335 15.1648 520.839 15.0682 520.403 14.875C519.968 14.678 519.623 14.3883 519.369 14.0057C519.119 13.6193 518.994 13.1383 518.994 12.5625C518.994 12.0777 519.083 11.6705 519.261 11.3409C519.439 11.0114 519.682 10.7462 519.989 10.5455C520.295 10.3447 520.644 10.1932 521.034 10.0909C521.428 9.98864 521.841 9.91667 522.273 9.875C522.78 9.82197 523.189 9.77273 523.5 9.72727C523.811 9.67803 524.036 9.60606 524.176 9.51136C524.316 9.41667 524.386 9.27652 524.386 9.09091V9.05682C524.386 8.69697 524.273 8.41856 524.045 8.22159C523.822 8.02462 523.504 7.92614 523.091 7.92614C522.655 7.92614 522.309 8.02273 522.051 8.21591C521.794 8.4053 521.623 8.64394 521.54 8.93182L519.301 8.75C519.415 8.2197 519.638 7.76136 519.972 7.375C520.305 6.98485 520.735 6.68561 521.261 6.47727C521.792 6.26515 522.405 6.15909 523.102 6.15909C523.587 6.15909 524.051 6.21591 524.494 6.32955C524.941 6.44318 525.337 6.61932 525.682 6.85795C526.03 7.09659 526.305 7.40341 526.506 7.77841C526.706 8.14962 526.807 8.5947 526.807 9.11364V15H524.511V13.7898H524.443C524.303 14.0625 524.116 14.303 523.881 14.5114C523.646 14.7159 523.364 14.8769 523.034 14.9943C522.705 15.108 522.324 15.1648 521.892 15.1648ZM522.585 13.4943C522.941 13.4943 523.256 13.4242 523.528 13.2841C523.801 13.1402 524.015 12.947 524.17 12.7045C524.326 12.4621 524.403 12.1875 524.403 11.8807V10.9545C524.328 11.0038 524.223 11.0492 524.091 11.0909C523.962 11.1288 523.816 11.1648 523.653 11.1989C523.491 11.2292 523.328 11.2576 523.165 11.2841C523.002 11.3068 522.854 11.3277 522.722 11.3466C522.438 11.3883 522.189 11.4545 521.977 11.5455C521.765 11.6364 521.6 11.7595 521.483 11.9148C521.366 12.0663 521.307 12.2557 521.307 12.483C521.307 12.8125 521.426 13.0644 521.665 13.2386C521.907 13.4091 522.214 13.4943 522.585 13.4943ZM528.685 15V6.27273H531.031V7.79545H531.122C531.281 7.25379 531.548 6.8447 531.923 6.56818C532.298 6.28788 532.73 6.14773 533.219 6.14773C533.34 6.14773 533.471 6.1553 533.611 6.17045C533.751 6.18561 533.874 6.20644 533.98 6.23295V8.38068C533.866 8.34659 533.709 8.31629 533.509 8.28977C533.308 8.26326 533.124 8.25 532.957 8.25C532.601 8.25 532.283 8.32765 532.003 8.48295C531.726 8.63447 531.507 8.84659 531.344 9.11932C531.185 9.39205 531.105 9.70644 531.105 10.0625V15H528.685ZM538.803 15.1705C537.905 15.1705 537.132 14.9886 536.484 14.625C535.84 14.2576 535.344 13.7386 534.996 13.0682C534.647 12.3939 534.473 11.5966 534.473 10.6761C534.473 9.77841 534.647 8.99053 534.996 8.3125C535.344 7.63447 535.835 7.10606 536.467 6.72727C537.104 6.34848 537.85 6.15909 538.706 6.15909C539.282 6.15909 539.818 6.25189 540.314 6.4375C540.814 6.61932 541.25 6.89394 541.621 7.26136C541.996 7.62879 542.287 8.09091 542.496 8.64773C542.704 9.20076 542.808 9.84848 542.808 10.5909V11.2557H535.439V9.75568H540.53C540.53 9.4072 540.454 9.09848 540.303 8.82955C540.151 8.56061 539.941 8.35038 539.672 8.19886C539.407 8.04356 539.098 7.96591 538.746 7.96591C538.378 7.96591 538.053 8.05114 537.768 8.22159C537.488 8.38826 537.268 8.61364 537.109 8.89773C536.95 9.17803 536.869 9.49053 536.865 9.83523V11.2614C536.865 11.6932 536.945 12.0663 537.104 12.3807C537.267 12.6951 537.496 12.9375 537.791 13.108C538.087 13.2784 538.437 13.3636 538.842 13.3636C539.111 13.3636 539.357 13.3258 539.581 13.25C539.804 13.1742 539.996 13.0606 540.155 12.9091C540.314 12.7576 540.435 12.572 540.518 12.3523L542.757 12.5C542.643 13.0379 542.411 13.5076 542.058 13.9091C541.71 14.3068 541.259 14.6174 540.706 14.8409C540.157 15.0606 539.522 15.1705 538.803 15.1705ZM544.388 15V6.27273H546.695V7.8125H546.797C546.979 7.30114 547.282 6.89773 547.706 6.60227C548.13 6.30682 548.638 6.15909 549.229 6.15909C549.827 6.15909 550.337 6.30871 550.757 6.60795C551.178 6.90341 551.458 7.30492 551.598 7.8125H551.689C551.867 7.3125 552.189 6.91288 552.655 6.61364C553.125 6.31061 553.679 6.15909 554.32 6.15909C555.134 6.15909 555.795 6.41856 556.303 6.9375C556.814 7.45265 557.07 8.18371 557.07 9.13068V15H554.655V9.60795C554.655 9.12311 554.526 8.75947 554.268 8.51705C554.011 8.27462 553.689 8.15341 553.303 8.15341C552.863 8.15341 552.52 8.29356 552.274 8.57386C552.028 8.85038 551.905 9.21591 551.905 9.67045V15H549.558V9.55682C549.558 9.12879 549.435 8.78788 549.189 8.53409C548.946 8.2803 548.626 8.15341 548.229 8.15341C547.96 8.15341 547.717 8.22159 547.501 8.35795C547.289 8.49053 547.121 8.67803 546.996 8.92045C546.871 9.15909 546.808 9.43939 546.808 9.76136V15H544.388ZM562.925 15.1705C562.042 15.1705 561.279 14.983 560.635 14.608C559.995 14.2292 559.5 13.7027 559.152 13.0284C558.804 12.3504 558.629 11.5644 558.629 10.6705C558.629 9.76894 558.804 8.98106 559.152 8.30682C559.5 7.62879 559.995 7.10227 560.635 6.72727C561.279 6.34848 562.042 6.15909 562.925 6.15909C563.807 6.15909 564.569 6.34848 565.209 6.72727C565.853 7.10227 566.349 7.62879 566.697 8.30682C567.046 8.98106 567.22 9.76894 567.22 10.6705C567.22 11.5644 567.046 12.3504 566.697 13.0284C566.349 13.7027 565.853 14.2292 565.209 14.608C564.569 14.983 563.807 15.1705 562.925 15.1705ZM562.936 13.2955C563.338 13.2955 563.673 13.1818 563.942 12.9545C564.211 12.7235 564.413 12.4091 564.55 12.0114C564.69 11.6136 564.76 11.161 564.76 10.6534C564.76 10.1458 564.69 9.69318 564.55 9.29545C564.413 8.89773 564.211 8.58333 563.942 8.35227C563.673 8.12121 563.338 8.00568 562.936 8.00568C562.531 8.00568 562.19 8.12121 561.913 8.35227C561.641 8.58333 561.434 8.89773 561.294 9.29545C561.158 9.69318 561.089 10.1458 561.089 10.6534C561.089 11.161 561.158 11.6136 561.294 12.0114C561.434 12.4091 561.641 12.7235 561.913 12.9545C562.19 13.1818 562.531 13.2955 562.936 13.2955ZM576.055 8.76136L573.839 8.89773C573.802 8.70833 573.72 8.53788 573.595 8.38636C573.47 8.23106 573.305 8.10795 573.101 8.01705C572.9 7.92235 572.66 7.875 572.379 7.875C572.004 7.875 571.688 7.95455 571.43 8.11364C571.173 8.26894 571.044 8.47727 571.044 8.73864C571.044 8.94697 571.127 9.12311 571.294 9.26705C571.461 9.41098 571.747 9.52652 572.152 9.61364L573.732 9.93182C574.58 10.1061 575.213 10.3864 575.629 10.7727C576.046 11.1591 576.254 11.6667 576.254 12.2955C576.254 12.8674 576.086 13.3693 575.749 13.8011C575.415 14.233 574.957 14.5701 574.374 14.8125C573.794 15.0511 573.125 15.1705 572.368 15.1705C571.213 15.1705 570.292 14.9299 569.607 14.4489C568.925 13.964 568.525 13.3049 568.408 12.4716L570.788 12.3466C570.86 12.6989 571.035 12.9678 571.311 13.1534C571.588 13.3352 571.942 13.4261 572.374 13.4261C572.798 13.4261 573.139 13.3447 573.396 13.1818C573.658 13.0152 573.79 12.8011 573.794 12.5398C573.79 12.3201 573.697 12.1402 573.516 12C573.334 11.8561 573.054 11.7462 572.675 11.6705L571.163 11.3693C570.311 11.1989 569.677 10.9034 569.26 10.483C568.847 10.0625 568.641 9.52652 568.641 8.875C568.641 8.31439 568.792 7.83144 569.095 7.42614C569.402 7.02083 569.832 6.70833 570.385 6.48864C570.942 6.26894 571.593 6.15909 572.339 6.15909C573.442 6.15909 574.309 6.39205 574.942 6.85795C575.578 7.32386 575.949 7.95833 576.055 8.76136ZM588.743 8.76136L586.527 8.89773C586.489 8.70833 586.408 8.53788 586.283 8.38636C586.158 8.23106 585.993 8.10795 585.788 8.01705C585.588 7.92235 585.347 7.875 585.067 7.875C584.692 7.875 584.375 7.95455 584.118 8.11364C583.86 8.26894 583.732 8.47727 583.732 8.73864C583.732 8.94697 583.815 9.12311 583.982 9.26705C584.148 9.41098 584.434 9.52652 584.839 9.61364L586.419 9.93182C587.268 10.1061 587.9 10.3864 588.317 10.7727C588.733 11.1591 588.942 11.6667 588.942 12.2955C588.942 12.8674 588.773 13.3693 588.436 13.8011C588.103 14.233 587.644 14.5701 587.061 14.8125C586.482 15.0511 585.813 15.1705 585.055 15.1705C583.9 15.1705 582.98 14.9299 582.294 14.4489C581.612 13.964 581.213 13.3049 581.095 12.4716L583.476 12.3466C583.548 12.6989 583.722 12.9678 583.999 13.1534C584.275 13.3352 584.629 13.4261 585.061 13.4261C585.485 13.4261 585.826 13.3447 586.084 13.1818C586.345 13.0152 586.478 12.8011 586.482 12.5398C586.478 12.3201 586.385 12.1402 586.203 12C586.021 11.8561 585.741 11.7462 585.362 11.6705L583.851 11.3693C582.999 11.1989 582.364 10.9034 581.947 10.483C581.535 10.0625 581.328 9.52652 581.328 8.875C581.328 8.31439 581.48 7.83144 581.783 7.42614C582.089 7.02083 582.519 6.70833 583.072 6.48864C583.629 6.26894 584.281 6.15909 585.027 6.15909C586.129 6.15909 586.997 6.39205 587.629 6.85795C588.266 7.32386 588.637 7.95833 588.743 8.76136ZM596.062 11.2841V6.27273H598.483V15H596.159V13.4148H596.068C595.871 13.9261 595.544 14.3371 595.085 14.6477C594.631 14.9583 594.076 15.1136 593.42 15.1136C592.837 15.1136 592.324 14.9811 591.881 14.7159C591.438 14.4508 591.091 14.0739 590.841 13.5852C590.595 13.0966 590.47 12.5114 590.466 11.8295V6.27273H592.886V11.3977C592.89 11.9129 593.028 12.3201 593.301 12.6193C593.574 12.9186 593.939 13.0682 594.398 13.0682C594.689 13.0682 594.962 13.0019 595.216 12.8693C595.47 12.733 595.674 12.5322 595.83 12.267C595.989 12.0019 596.066 11.6742 596.062 11.2841ZM602.908 15.1648C602.351 15.1648 601.855 15.0682 601.419 14.875C600.983 14.678 600.639 14.3883 600.385 14.0057C600.135 13.6193 600.01 13.1383 600.01 12.5625C600.01 12.0777 600.099 11.6705 600.277 11.3409C600.455 11.0114 600.697 10.7462 601.004 10.5455C601.311 10.3447 601.66 10.1932 602.05 10.0909C602.444 9.98864 602.857 9.91667 603.288 9.875C603.796 9.82197 604.205 9.77273 604.516 9.72727C604.826 9.67803 605.052 9.60606 605.192 9.51136C605.332 9.41667 605.402 9.27652 605.402 9.09091V9.05682C605.402 8.69697 605.288 8.41856 605.061 8.22159C604.838 8.02462 604.519 7.92614 604.107 7.92614C603.671 7.92614 603.324 8.02273 603.067 8.21591C602.809 8.4053 602.639 8.64394 602.555 8.93182L600.317 8.75C600.43 8.2197 600.654 7.76136 600.987 7.375C601.321 6.98485 601.75 6.68561 602.277 6.47727C602.807 6.26515 603.421 6.15909 604.118 6.15909C604.603 6.15909 605.067 6.21591 605.51 6.32955C605.957 6.44318 606.353 6.61932 606.697 6.85795C607.046 7.09659 607.321 7.40341 607.521 7.77841C607.722 8.14962 607.822 8.5947 607.822 9.11364V15H605.527V13.7898H605.459C605.319 14.0625 605.131 14.303 604.896 14.5114C604.661 14.7159 604.379 14.8769 604.05 14.9943C603.72 15.108 603.339 15.1648 602.908 15.1648ZM603.601 13.4943C603.957 13.4943 604.271 13.4242 604.544 13.2841C604.817 13.1402 605.031 12.947 605.186 12.7045C605.341 12.4621 605.419 12.1875 605.419 11.8807V10.9545C605.343 11.0038 605.239 11.0492 605.107 11.0909C604.978 11.1288 604.832 11.1648 604.669 11.1989C604.506 11.2292 604.343 11.2576 604.18 11.2841C604.018 11.3068 603.87 11.3277 603.737 11.3466C603.453 11.3883 603.205 11.4545 602.993 11.5455C602.781 11.6364 602.616 11.7595 602.499 11.9148C602.381 12.0663 602.322 12.2557 602.322 12.483C602.322 12.8125 602.442 13.0644 602.68 13.2386C602.923 13.4091 603.23 13.4943 603.601 13.4943ZM512.716 37.2727V25.2727H515.102V26.7386H515.21C515.316 26.5038 515.47 26.2652 515.67 26.0227C515.875 25.7765 516.14 25.572 516.466 25.4091C516.795 25.2424 517.205 25.1591 517.693 25.1591C518.33 25.1591 518.917 25.3258 519.455 25.6591C519.992 25.9886 520.422 26.4867 520.744 27.1534C521.066 27.8163 521.227 28.6477 521.227 29.6477C521.227 30.6212 521.07 31.4432 520.756 32.1136C520.445 32.7803 520.021 33.286 519.483 33.6307C518.949 33.9716 518.35 34.142 517.688 34.142C517.218 34.142 516.818 34.0644 516.489 33.9091C516.163 33.7538 515.896 33.5587 515.688 33.3239C515.479 33.0852 515.32 32.8447 515.21 32.6023H515.136V37.2727H512.716ZM515.085 29.6364C515.085 30.1553 515.157 30.608 515.301 30.9943C515.445 31.3807 515.653 31.6818 515.926 31.8977C516.199 32.1098 516.53 32.2159 516.92 32.2159C517.314 32.2159 517.648 32.108 517.92 31.892C518.193 31.6723 518.4 31.3693 518.54 30.983C518.684 30.5928 518.756 30.1439 518.756 29.6364C518.756 29.1326 518.686 28.6894 518.545 28.3068C518.405 27.9242 518.199 27.625 517.926 27.4091C517.653 27.1932 517.318 27.0852 516.92 27.0852C516.527 27.0852 516.193 27.1894 515.92 27.3977C515.652 27.6061 515.445 27.9015 515.301 28.2841C515.157 28.6667 515.085 29.1174 515.085 29.6364ZM522.841 34V25.2727H525.188V26.7955H525.278C525.438 26.2538 525.705 25.8447 526.08 25.5682C526.455 25.2879 526.886 25.1477 527.375 25.1477C527.496 25.1477 527.627 25.1553 527.767 25.1705C527.907 25.1856 528.03 25.2064 528.136 25.233V27.3807C528.023 27.3466 527.866 27.3163 527.665 27.2898C527.464 27.2633 527.28 27.25 527.114 27.25C526.758 27.25 526.439 27.3277 526.159 27.483C525.883 27.6345 525.663 27.8466 525.5 28.1193C525.341 28.392 525.261 28.7064 525.261 29.0625V34H522.841ZM532.925 34.1705C532.042 34.1705 531.279 33.983 530.635 33.608C529.995 33.2292 529.5 32.7027 529.152 32.0284C528.804 31.3504 528.629 30.5644 528.629 29.6705C528.629 28.7689 528.804 27.9811 529.152 27.3068C529.5 26.6288 529.995 26.1023 530.635 25.7273C531.279 25.3485 532.042 25.1591 532.925 25.1591C533.807 25.1591 534.569 25.3485 535.209 25.7273C535.853 26.1023 536.349 26.6288 536.697 27.3068C537.046 27.9811 537.22 28.7689 537.22 29.6705C537.22 30.5644 537.046 31.3504 536.697 32.0284C536.349 32.7027 535.853 33.2292 535.209 33.608C534.569 33.983 533.807 34.1705 532.925 34.1705ZM532.936 32.2955C533.338 32.2955 533.673 32.1818 533.942 31.9545C534.211 31.7235 534.413 31.4091 534.55 31.0114C534.69 30.6136 534.76 30.161 534.76 29.6534C534.76 29.1458 534.69 28.6932 534.55 28.2955C534.413 27.8977 534.211 27.5833 533.942 27.3523C533.673 27.1212 533.338 27.0057 532.936 27.0057C532.531 27.0057 532.19 27.1212 531.913 27.3523C531.641 27.5833 531.434 27.8977 531.294 28.2955C531.158 28.6932 531.089 29.1458 531.089 29.6534C531.089 30.161 531.158 30.6136 531.294 31.0114C531.434 31.4091 531.641 31.7235 531.913 31.9545C532.19 32.1818 532.531 32.2955 532.936 32.2955ZM538.794 37.2727V25.2727H541.18V26.7386H541.288C541.394 26.5038 541.548 26.2652 541.749 26.0227C541.953 25.7765 542.218 25.572 542.544 25.4091C542.874 25.2424 543.283 25.1591 543.771 25.1591C544.408 25.1591 544.995 25.3258 545.533 25.6591C546.071 25.9886 546.5 26.4867 546.822 27.1534C547.144 27.8163 547.305 28.6477 547.305 29.6477C547.305 30.6212 547.148 31.4432 546.834 32.1136C546.523 32.7803 546.099 33.286 545.561 33.6307C545.027 33.9716 544.429 34.142 543.766 34.142C543.296 34.142 542.896 34.0644 542.567 33.9091C542.241 33.7538 541.974 33.5587 541.766 33.3239C541.557 33.0852 541.398 32.8447 541.288 32.6023H541.214V37.2727H538.794ZM541.163 29.6364C541.163 30.1553 541.235 30.608 541.379 30.9943C541.523 31.3807 541.732 31.6818 542.004 31.8977C542.277 32.1098 542.608 32.2159 542.999 32.2159C543.393 32.2159 543.726 32.108 543.999 31.892C544.271 31.6723 544.478 31.3693 544.618 30.983C544.762 30.5928 544.834 30.1439 544.834 29.6364C544.834 29.1326 544.764 28.6894 544.624 28.3068C544.483 27.9242 544.277 27.625 544.004 27.4091C543.732 27.1932 543.396 27.0852 542.999 27.0852C542.605 27.0852 542.271 27.1894 541.999 27.3977C541.73 27.6061 541.523 27.9015 541.379 28.2841C541.235 28.6667 541.163 29.1174 541.163 29.6364ZM552.862 34.1705C551.98 34.1705 551.216 33.983 550.572 33.608C549.932 33.2292 549.438 32.7027 549.089 32.0284C548.741 31.3504 548.567 30.5644 548.567 29.6705C548.567 28.7689 548.741 27.9811 549.089 27.3068C549.438 26.6288 549.932 26.1023 550.572 25.7273C551.216 25.3485 551.98 25.1591 552.862 25.1591C553.745 25.1591 554.506 25.3485 555.146 25.7273C555.79 26.1023 556.286 26.6288 556.635 27.3068C556.983 27.9811 557.158 28.7689 557.158 29.6705C557.158 30.5644 556.983 31.3504 556.635 32.0284C556.286 32.7027 555.79 33.2292 555.146 33.608C554.506 33.983 553.745 34.1705 552.862 34.1705ZM552.874 32.2955C553.275 32.2955 553.61 32.1818 553.879 31.9545C554.148 31.7235 554.351 31.4091 554.487 31.0114C554.627 30.6136 554.697 30.161 554.697 29.6534C554.697 29.1458 554.627 28.6932 554.487 28.2955C554.351 27.8977 554.148 27.5833 553.879 27.3523C553.61 27.1212 553.275 27.0057 552.874 27.0057C552.468 27.0057 552.127 27.1212 551.851 27.3523C551.578 27.5833 551.372 27.8977 551.232 28.2955C551.095 28.6932 551.027 29.1458 551.027 29.6534C551.027 30.161 551.095 30.6136 551.232 31.0114C551.372 31.4091 551.578 31.7235 551.851 31.9545C552.127 32.1818 552.468 32.2955 552.874 32.2955ZM565.993 27.7614L563.777 27.8977C563.739 27.7083 563.658 27.5379 563.533 27.3864C563.408 27.2311 563.243 27.108 563.038 27.017C562.838 26.9223 562.597 26.875 562.317 26.875C561.942 26.875 561.625 26.9545 561.368 27.1136C561.11 27.2689 560.982 27.4773 560.982 27.7386C560.982 27.947 561.065 28.1231 561.232 28.267C561.398 28.411 561.684 28.5265 562.089 28.6136L563.669 28.9318C564.518 29.1061 565.15 29.3864 565.567 29.7727C565.983 30.1591 566.192 30.6667 566.192 31.2955C566.192 31.8674 566.023 32.3693 565.686 32.8011C565.353 33.233 564.894 33.5701 564.311 33.8125C563.732 34.0511 563.063 34.1705 562.305 34.1705C561.15 34.1705 560.23 33.9299 559.544 33.4489C558.862 32.964 558.463 32.3049 558.345 31.4716L560.726 31.3466C560.798 31.6989 560.972 31.9678 561.249 32.1534C561.525 32.3352 561.879 32.4261 562.311 32.4261C562.735 32.4261 563.076 32.3447 563.334 32.1818C563.595 32.0152 563.728 31.8011 563.732 31.5398C563.728 31.3201 563.635 31.1402 563.453 31C563.271 30.8561 562.991 30.7462 562.612 30.6705L561.101 30.3693C560.249 30.1989 559.614 29.9034 559.197 29.483C558.785 29.0625 558.578 28.5265 558.578 27.875C558.578 27.3144 558.73 26.8314 559.033 26.4261C559.339 26.0208 559.769 25.7083 560.322 25.4886C560.879 25.2689 561.531 25.1591 562.277 25.1591C563.379 25.1591 564.247 25.392 564.879 25.858C565.516 26.3239 565.887 26.9583 565.993 27.7614ZM572.358 25.2727V27.0909H567.102V25.2727H572.358ZM568.295 23.1818H570.716V31.3182C570.716 31.5417 570.75 31.7159 570.818 31.8409C570.886 31.9621 570.981 32.0473 571.102 32.0966C571.227 32.1458 571.371 32.1705 571.534 32.1705C571.648 32.1705 571.761 32.161 571.875 32.142C571.989 32.1193 572.076 32.1023 572.136 32.0909L572.517 33.892C572.396 33.9299 572.225 33.9735 572.006 34.0227C571.786 34.0758 571.519 34.108 571.205 34.1193C570.621 34.142 570.11 34.0644 569.67 33.8864C569.235 33.7083 568.896 33.4318 568.653 33.0568C568.411 32.6818 568.292 32.2083 568.295 31.6364V23.1818ZM576.423 34.1648C575.866 34.1648 575.37 34.0682 574.935 33.875C574.499 33.678 574.154 33.3883 573.901 33.0057C573.651 32.6193 573.526 32.1383 573.526 31.5625C573.526 31.0777 573.615 30.6705 573.793 30.3409C573.971 30.0114 574.213 29.7462 574.52 29.5455C574.827 29.3447 575.175 29.1932 575.565 29.0909C575.959 28.9886 576.372 28.9167 576.804 28.875C577.312 28.822 577.721 28.7727 578.031 28.7273C578.342 28.678 578.567 28.6061 578.707 28.5114C578.848 28.4167 578.918 28.2765 578.918 28.0909V28.0568C578.918 27.697 578.804 27.4186 578.577 27.2216C578.353 27.0246 578.035 26.9261 577.622 26.9261C577.187 26.9261 576.84 27.0227 576.582 27.2159C576.325 27.4053 576.154 27.6439 576.071 27.9318L573.832 27.75C573.946 27.2197 574.17 26.7614 574.503 26.375C574.836 25.9848 575.266 25.6856 575.793 25.4773C576.323 25.2652 576.937 25.1591 577.634 25.1591C578.118 25.1591 578.582 25.2159 579.026 25.3295C579.473 25.4432 579.868 25.6193 580.213 25.858C580.562 26.0966 580.836 26.4034 581.037 26.7784C581.238 27.1496 581.338 27.5947 581.338 28.1136V34H579.043V32.7898H578.974C578.834 33.0625 578.647 33.303 578.412 33.5114C578.177 33.7159 577.895 33.8769 577.565 33.9943C577.236 34.108 576.855 34.1648 576.423 34.1648ZM577.116 32.4943C577.473 32.4943 577.787 32.4242 578.06 32.2841C578.332 32.1402 578.546 31.947 578.702 31.7045C578.857 31.4621 578.935 31.1875 578.935 30.8807V29.9545C578.859 30.0038 578.755 30.0492 578.622 30.0909C578.493 30.1288 578.348 30.1648 578.185 30.1989C578.022 30.2292 577.859 30.2576 577.696 30.2841C577.533 30.3068 577.385 30.3277 577.253 30.3466C576.969 30.3883 576.721 30.4545 576.509 30.5455C576.296 30.6364 576.132 30.7595 576.014 30.9148C575.897 31.0663 575.838 31.2557 575.838 31.483C575.838 31.8125 575.957 32.0644 576.196 32.2386C576.438 32.4091 576.745 32.4943 577.116 32.4943Z" fill="white"/>
</svg>
